STARTFONT 2.1
COMMENT
COMMENT Converted from OpenType font "Q:\font stuff\winfont\Millenium BdEx BT Bold Extended.ttf" by "otf2bdf 3.0".
COMMENT
FONT -FreeType-Millenium BdEx BT-Medium-R-Normal--50-500-72-72-P-376-ISO10646-1
SIZE 50 72 72
FONTBOUNDINGBOX 105 64 -6 -13
STARTPROPERTIES 19
FOUNDRY "FreeType"
FAMILY_NAME "Millenium BdEx BT"
WEIGHT_NAME "Medium"
SLANT "R"
SETWIDTH_NAME "Normal"
ADD_STYLE_NAME ""
PIXEL_SIZE 36
POINT_SIZE 500
RESOLUTION_X 72
RESOLUTION_Y 72
SPACING "P"
AVERAGE_WIDTH 376
CHARSET_REGISTRY "ISO10646"
CHARSET_ENCODING "1"
FONT_ASCENT 50
FONT_DESCENT 8
COPYRIGHT "Copyright 1990-1998 Bitstream Inc.  All rights reserved."
_OTF_FONTFILE "Q:\font stuff\winfont\Millenium BdEx BT Bold Extended.ttf"
_OTF_PSNAME "MilleniumBT-BoldExtended"
ENDPROPERTIES
CHARS 259
STARTCHAR 0020
ENCODING 32
SWIDTH 480 0
DWIDTH 24 0
BBX 0 0 0 0
BITMAP
ENDCHAR
STARTCHAR 0021
ENCODING 33
SWIDTH 360 0
DWIDTH 18 0
BBX 13 35 2 0
BITMAP
7FF0
8008
BFE8
BFE8
BFE8
BFE8
BFE8
BFE8
BFE8
BFE8
BFE8
BFE8
BFE8
BFE8
BFE8
BFE8
BFE8
BFE8
BFE8
BFE8
BFE8
BFE8
8008
7FF0
0000
7FF0
8008
BFE8
BFE8
BFE8
BFE8
BFE8
BFE8
8008
7FF0
ENDCHAR
STARTCHAR 0022
ENCODING 34
SWIDTH 540 0
DWIDTH 27 0
BBX 21 15 2 20
BITMAP
7F07F0
808808
BE8BE8
BE8BE8
BE8BE8
BE8BE8
BE8BE8
BE8BE8
BE8BE8
BE8BE8
BE8BE8
BE8BE8
BE8BE8
808808
7F07F0
ENDCHAR
STARTCHAR 0023
ENCODING 35
SWIDTH 840 0
DWIDTH 42 0
BBX 40 35 1 0
BITMAP
000FF03FC0
0018102040
0013D06F40
0017D05F40
0017D05F40
0017905F40
0017905E40
0FE79F9E7E
100FC03F01
17FFFFFFFD
17FFFFFFFD
27FFFFFFFE
2FFFFFFFFA
203F00FC02
3FDE7F79FC
00DEC37B00
009E827A00
00BE82FA00
00BE82FA00
00BC82F200
3F3CFCF3F8
407E01F804
5FFFFFFFF4
5FFFFFFFE4
BFFFFFFFE8
BFFFFFFFE8
81F807E008
FEF3FBEFF0
06F61BD800
04F413D000
05F417D000
05F417D000
05E4179000
0408103000
07F81FE000
ENDCHAR
STARTCHAR 0024
ENCODING 36
SWIDTH 860 0
DWIDTH 43 0
BBX 38 48 2 -7
BITMAP
0001FE0000
0002010000
0002FD0000
0002FD0000
0002FD0000
0002FD0000
0FFEFDFFC0
3001FE0020
27FFFFFF90
5FFFFFFFE8
DFFFFFFFEC
BFFFFFFFF4
BFFFFFFFF4
BFF0003FF4
BFEFFFDFF4
BFD0006FF4
BFD000600C
BFD0003FF8
BFD0000000
BFCFFFFFC0
BFF0000020
BFFFFFFF90
BFFFFFFFE8
9FFFFFFFEC
5FFFFFFFF4
27FFFFFFF4
3000003FF4
0FFFFFCFF4
0000002FF4
7FF0002FF4
C018002FF4
BFF8002FF4
BFEFFFDFF4
BFF0003FF4
BFFFFFFFF4
BFFFFFFFF4
9FFFFFFFEC
5FFFFFFFE8
27FFFFFF90
3001FE0030
0FFEFDFFC0
0002FD0000
0002FD0000
0002FD0000
0002FD0000
0002FD0000
0002010000
0001FE0000
ENDCHAR
STARTCHAR 0025
ENCODING 37
SWIDTH 1460 0
DWIDTH 73 0
BBX 68 35 2 0
BITMAP
0FFFFE000FF0000000
180003001018000000
67FFFC8037D8000000
5FFFFF402FD0000000
9FFFFF202F90000000
BFFFFFA06FA0000000
BFC07FA05FA0000000
BF9F3FA05F60000000
BFA0BFA09F40000000
BFA0BFA0BF40000000
BFA0BFA1BEC0000000
BFA0BFA13E80000000
BFA0BFA17E87FFFF00
BFA0BFA37D9C000180
BFA0BFA2FD33FFFE40
BF9F3FA2F92FFFFFA0
BFC07FA6FA4FFFFF90
BFFFFFA5FA5FFFFFD0
BFFFFF25F65FE03FD0
5FFFFF49F45FCF9FD0
67FFFCCBF45FD05FD0
1800031BEC5FD05FD0
0FFFFE17E85FD05FD0
00000017E85FD05FD0
00000037D85FD05FD0
0000002FD05FD05FD0
0000002F905FD05FD0
0000006FB05FDFDFD0
0000005FA05FE03FD0
0000005F605FFFFFD0
000000DF405FFFFF90
000000BF402FFFFFA0
000001BEC033FFFE60
000001808018000180
000000FF0007FFFF00
ENDCHAR
STARTCHAR 0026
ENCODING 38
SWIDTH 960 0
DWIDTH 48 0
BBX 43 35 2 0
BITMAP
00FFFFFFF000
030000000C00
067FFFFFF600
05FFFFFFFA00
0BFFFFFFFD00
0BFFFFFFFD00
0BFFFFFFFD00
0BFE0003FD00
0BFCFFF9FD00
0BFD0005FD00
0BFD00020300
0DFD8003FE00
05FEE0000000
06FF38000000
02FFCE000000
0CFFF3000000
31FFF8C03FC0
67C7FE304020
5FB9FF8C5FA0
DFAE7FE35FA0
BFA31FF89FA0
BFA0CFFE3FA0
BFA073FFFFA0
BFA01CFFFFA0
BFA0067FFFA0
BFA0033FFFA0
BFBFFF3FFFA0
BFC0007FFFA0
BFFFFFFFFFA0
BFFFFFFFFFA0
9FFFFFFFFFA0
5FFFFFFFFFA0
67FFFFFFFFA0
300000000020
0FFFFFFFFFC0
ENDCHAR
STARTCHAR 0027
ENCODING 39
SWIDTH 280 0
DWIDTH 14 0
BBX 9 15 2 20
BITMAP
7F00
8080
BE80
BE80
BE80
BE80
BE80
BE80
BE80
BE80
BE80
BE80
BE80
8080
7F00
ENDCHAR
STARTCHAR 0028
ENCODING 40
SWIDTH 480 0
DWIDTH 24 0
BBX 19 35 2 0
BITMAP
7FFFC0
800020
BFFFA0
BFFFA0
BFFFA0
BFFFA0
BFFFA0
BFC020
BFBFC0
BFA000
BFA000
BFA000
BFA000
BFA000
BFA000
BFA000
BFA000
BFA000
BFA000
BFA000
BFA000
BFA000
BFA000
BFA000
BFA000
BFA000
BFBFC0
BFC020
BFFFA0
BFFFA0
BFFFA0
BFFFA0
BFFFA0
800020
7FFFC0
ENDCHAR
STARTCHAR 0029
ENCODING 41
SWIDTH 480 0
DWIDTH 24 0
BBX 19 35 2 0
BITMAP
7FFFC0
800020
BFFFA0
BFFFA0
BFFFA0
BFFFA0
BFFFA0
807FA0
7F3FA0
00BFA0
00BFA0
00BFA0
00BFA0
00BFA0
00BFA0
00BFA0
00BFA0
00BFA0
00BFA0
00BFA0
00BFA0
00BFA0
00BFA0
00BFA0
00BFA0
00BFA0
7FBFA0
807FA0
BFFFA0
BFFFA0
BFFFA0
BFFFA0
BFFFA0
800020
7FFFC0
ENDCHAR
STARTCHAR 002A
ENCODING 42
SWIDTH 500 0
DWIDTH 25 0
BBX 22 21 2 14
BITMAP
00FC00
010200
017A00
017A00
397A70
6F7BD8
50FC28
5FFFE8
BFFFF4
BFFFF4
8FFFC4
E7FF9C
3BFF70
0BFF40
13FF20
37FFB0
2F8F90
33B730
197A60
0C48C0
038700
ENDCHAR
STARTCHAR 002B
ENCODING 43
SWIDTH 620 0
DWIDTH 31 0
BBX 28 28 1 4
BITMAP
003FC000
00402000
005FA000
005FA000
005FA000
005FA000
005FA000
005FA000
005FA000
7FDFBFE0
803FC010
BFFFFFD0
BFFFFFD0
BFFFFFD0
BFFFFFD0
BFFFFFD0
BFFFFFD0
803FC010
7FDFBFE0
005FA000
005FA000
005FA000
005FA000
005FA000
005FA000
005FA000
00402000
003FC000
ENDCHAR
STARTCHAR 002C
ENCODING 44
SWIDTH 340 0
DWIDTH 17 0
BBX 13 14 2 -4
BITMAP
7FF0
8008
BFE8
BFE8
BFE8
BFE8
BFE8
BFE8
83C8
7DD0
05B0
0560
04C0
0780
ENDCHAR
STARTCHAR 002D
ENCODING 45
SWIDTH 380 0
DWIDTH 19 0
BBX 14 10 2 13
BITMAP
7FF8
8004
BFF4
BFF4
BFF4
BFF4
BFF4
BFF4
8004
7FF8
ENDCHAR
STARTCHAR 002E
ENCODING 46
SWIDTH 340 0
DWIDTH 17 0
BBX 13 10 2 0
BITMAP
7FF0
8008
BFE8
BFE8
BFE8
BFE8
BFE8
BFE8
8008
7FF0
ENDCHAR
STARTCHAR 002F
ENCODING 47
SWIDTH 480 0
DWIDTH 24 0
BBX 25 35 0 0
BITMAP
000FFF80
00180080
0013FE80
0017FE80
0037FD00
002FFD00
006FFA00
004FFA00
005FFA00
00DFF400
00BFF400
00BFF400
01BFE800
017FE800
017FD800
027FD000
02FFD000
06FFA000
05FFA000
05FF2000
0DFF4000
0BFF4000
0BFEC000
17FE8000
17FE8000
17FD8000
2FFD0000
2FF90000
6FFA0000
5FFA0000
5FF60000
BFF40000
BFE40000
800C0000
FFF80000
ENDCHAR
STARTCHAR 0030
ENCODING 48
SWIDTH 980 0
DWIDTH 49 0
BBX 44 35 2 0
BITMAP
0FFFFFFFFF00
3000000000C0
6FFFFFFFFE60
5FFFFFFFFFA0
BFFFFFFFFF90
BFFFFFFFFFD0
BFFFFFFFFFD0
BFE000007FD0
BFDFFFFFBFD0
BFD00000BFD0
BFD00000BFD0
BFD00000BFD0
BFD00000BFD0
BFD00000BFD0
BFD00000BFD0
BFD00000BFD0
BFD00000BFD0
BFD00000BFD0
BFD00000BFD0
BFD00000BFD0
BFD00000BFD0
BFD00000BFD0
BFD00000BFD0
BFD00000BFD0
BFD00000BFD0
BFD00000BFD0
BFDFFFFFBFD0
BFE000007FD0
BFFFFFFFFFD0
BFFFFFFFFFD0
BFFFFFFFFF90
5FFFFFFFFFA0
6FFFFFFFFF60
3000000000C0
0FFFFFFFFF00
ENDCHAR
STARTCHAR 0031
ENCODING 49
SWIDTH 420 0
DWIDTH 21 0
BBX 16 35 1 0
BITMAP
0FFE
1801
17FD
2FFD
6FFD
5FFD
BFFD
87FD
FBFD
0BFD
0BFD
0BFD
0BFD
0BFD
0BFD
0BFD
0BFD
0BFD
0BFD
0BFD
0BFD
0BFD
0BFD
0BFD
0BFD
0BFD
0BFD
0BFD
0BFD
0BFD
0BFD
0BFD
0BFD
0801
07FE
ENDCHAR
STARTCHAR 0032
ENCODING 50
SWIDTH 940 0
DWIDTH 47 0
BBX 42 35 2 0
BITMAP
0FFFFFFFFC00
380000000300
67FFFFFFF980
5FFFFFFFFE80
BFFFFFFFFF40
BFFFFFFFFF40
BFFFFFFFFF40
BFF00001FF40
BFEFFFFCFF40
BFD00002FF40
C0100002FF40
7FE00002FF40
00000002FF40
0000001EFF40
00001FFCFF40
001FF801FF40
07F000FFFF40
1807FFFFFF40
27FFFFFFFE40
4FFFFFFFFE80
DFFFFFFFF980
BFFFFFF80700
BFFFF001FC00
BFE007FF0000
BFCFFE000000
BFD800000000
BFDFFFFFFF80
BFE000000040
BFFFFFFFFF40
BFFFFFFFFF40
BFFFFFFFFF40
BFFFFFFFFF40
BFFFFFFFFF40
800000000040
7FFFFFFFFF80
ENDCHAR
STARTCHAR 0033
ENCODING 51
SWIDTH 900 0
DWIDTH 45 0
BBX 41 35 2 0
BITMAP
0FFFFFFFF000
300000000C00
67FFFFFFE600
5FFFFFFFFA00
9FFFFFFFF900
BFFFFFFFFD00
BFFFFFFFFD00
BFE00003FD00
BFDFFFF9FD00
BFD00005FD00
C0300005FD00
7FE00005FD00
00000005FD00
0000FFF9FB00
00010003F200
00017FFFF400
00017FFFEC00
00017FFFE400
00017FFFF200
00017FFFFD00
00010003FD80
0000FFFDFE80
7FE00005FE80
C0200005FE80
BFD00005FE80
BFD00005FE80
BFDFFFF9FE80
BFE00003FE80
BFFFFFFFFE80
BFFFFFFFFE80
BFFFFFFFFE80
5FFFFFFFFD00
67FFFFFFF300
300000000600
0FFFFFFFF800
ENDCHAR
STARTCHAR 0034
ENCODING 52
SWIDTH 960 0
DWIDTH 48 0
BBX 46 35 1 0
BITMAP
00000FFFFC00
000038000200
000067FFFA00
00019FFFFA00
00033FFFFA00
000CFFFFFA00
0019FFFFFA00
0067FFFFFA00
00CFFF8FFA00
033FFE77FA00
067FF997FA00
19FFF317FA00
33FFCC17FA00
4FFF9817FA00
9FFE6017FA00
BFFCC017FA00
BFF30017FA00
BFCE0017FA00
BF980017FA00
BFA00017FA00
BFBFFFF7FBF8
BFC0000FFC04
BFFFFFFFFFF4
BFFFFFFFFFF4
BFFFFFFFFFF4
BFFFFFFFFFF4
BFFFFFFFFFF4
8000000FFC04
7FFFFFF7FBF8
00000017FA00
00000017FA00
00000017FA00
00000017FA00
000000100200
0000000FFC00
ENDCHAR
STARTCHAR 0035
ENCODING 53
SWIDTH 940 0
DWIDTH 47 0
BBX 42 35 2 0
BITMAP
3FFFFFFFFE00
400000000100
5FFFFFFFFD00
5FFFFFFFFD00
5FFFFFFFFD00
5FFFFFFFFD00
5FFFFFFFFD00
5FF000000100
5FEFFFFFFE00
5FE800000000
5FE800000000
5FE800000000
5FE800000000
5FE7FFFFFC00
5FF000000200
5FFFFFFFF900
5FFFFFFFFE80
6FFFFFFFFEC0
27FFFFFFFF40
13FFFFFFFF40
0C000001FF40
03FFFFFEFF40
00000002FF40
7FF00002FF40
C0080002FF40
BFE80002FF40
BFE7FFFCFF40
BFF00001FF40
BFFFFFFFFF40
BFFFFFFFFF40
9FFFFFFFFE40
5FFFFFFFFE80
27FFFFFFF980
100000000300
0FFFFFFFFC00
ENDCHAR
STARTCHAR 0036
ENCODING 54
SWIDTH 920 0
DWIDTH 46 0
BBX 42 35 2 0
BITMAP
0FFFFFFFFC00
300000000200
27FFFFFFF900
5FFFFFFFFE80
DFFFFFFFFEC0
BFFFFFFFFF40
BFFFFFFFFF40
BFE00001FF40
BFCFFFFDFF40
BFD00002FF40
BFD0000200C0
BFD00001FF80
BFD000000000
BFDFFFFFFC00
BFE000000200
BFFFFFFFF900
BFFFFFFFFE80
BFFFFFFFFEC0
BFFFFFFFFF40
BFFFFFFFFF40
BFE00001FF40
BFDFFFFEFF40
BFD00002FF40
BFD00002FF40
BFD00002FF40
BFD00002FF40
BFDFFFFEFF40
BFE00001FF40
BFFFFFFFFF40
BFFFFFFFFF40
9FFFFFFFFEC0
5FFFFFFFFE80
27FFFFFFF900
300000000300
0FFFFFFFFC00
ENDCHAR
STARTCHAR 0037
ENCODING 55
SWIDTH 860 0
DWIDTH 43 0
BBX 40 35 1 0
BITMAP
7FFFFFFFFE
8000000001
BFFFFFFFFD
BFFFFFFFFD
BFFFFFFFFD
BFFFFFFFFD
BFFFFFFFFD
8000003FFD
7FFFFF9FF9
0000009FFA
000001BFF6
0000037FEC
0000027FC8
000004FFD0
00000DFFB0
00001BFF60
000013FE40
000027FE80
00006FFD80
0000DFFB00
0000BFF200
00013FF400
00037FEC00
0006FFD800
0005FF9000
000BFF2000
0013FF6000
0037FEC000
002FFC8000
005FF90000
009FFB0000
01BFF60000
017FE40000
0100080000
00FFF00000
ENDCHAR
STARTCHAR 0038
ENCODING 56
SWIDTH 920 0
DWIDTH 46 0
BBX 42 35 2 0
BITMAP
07FFFFFFF800
180000000600
33FFFFFFF300
2FFFFFFFFD00
5FFFFFFFFC80
5FFFFFFFFE80
5FFFFFFFFE80
5FF00003FE80
5FEFFFFDFE80
5FE80005FE80
5FE80007FE80
5FE80007FE80
5FE80005FE80
6FEFFFFDFC80
27F00003F900
37FFFFFFFB00
13FFFFFFF200
13FFFFFFF200
27FFFFFFFB00
4FFFFFFFFD80
5FE00001FE80
BFCFFFFCFF40
BFD00002FF40
BFD00002FF40
BFD00002FF40
BFD00002FF40
BFCFFFFCFF40
BFE00001FF40
BFFFFFFFFF40
BFFFFFFFFF40
BFFFFFFFFF40
5FFFFFFFFE80
6FFFFFFFFD80
300000000300
0FFFFFFFFC00
ENDCHAR
STARTCHAR 0039
ENCODING 57
SWIDTH 920 0
DWIDTH 46 0
BBX 42 35 2 0
BITMAP
0FFFFFFFFC00
300000000200
27FFFFFFF900
5FFFFFFFFE80
DFFFFFFFFEC0
BFFFFFFFFF40
BFFFFFFFFF40
BFE00001FF40
BFDFFFFEFF40
BFD00002FF40
BFD00002FF40
BFD00002FF40
BFD00002FF40
BFDFFFFEFF40
BFE00001FF40
BFFFFFFFFF40
BFFFFFFFFF40
9FFFFFFFFF40
5FFFFFFFFF40
27FFFFFFFF40
30000001FF40
0FFFFFFEFF40
00000002FF40
7FE00002FF40
C0100002FF40
BFD00002FF40
BFEFFFFCFF40
BFE00001FF40
BFFFFFFFFF40
BFFFFFFFFF40
9FFFFFFFFEC0
5FFFFFFFFE80
27FFFFFFF900
300000000300
0FFFFFFFFC00
ENDCHAR
STARTCHAR 003A
ENCODING 58
SWIDTH 340 0
DWIDTH 17 0
BBX 13 23 2 0
BITMAP
7FF0
8008
BFE8
BFE8
BFE8
BFE8
BFE8
BFE8
8008
7FF0
0000
0000
0000
7FF0
8008
BFE8
BFE8
BFE8
BFE8
BFE8
BFE8
8008
7FF0
ENDCHAR
STARTCHAR 003B
ENCODING 59
SWIDTH 340 0
DWIDTH 17 0
BBX 13 27 2 -4
BITMAP
7FF0
8008
BFE8
BFE8
BFE8
BFE8
BFE8
BFE8
8008
7FF0
0000
0000
0000
7FF0
8008
BFE8
BFE8
BFE8
BFE8
BFE8
BFE8
83C8
7DD0
05B0
0560
04C0
0780
ENDCHAR
STARTCHAR 003C
ENCODING 60
SWIDTH 840 0
DWIDTH 42 0
BBX 29 29 6 0
BITMAP
00000008
00000078
000001F8
00000FF8
00003FF8
0001FFF8
0007FFF0
003FFF80
00FFFE00
07FFF800
1FFFC000
7FFF0000
FFF80000
FFE00000
FF000000
FFC00000
FFF80000
FFFE0000
1FFFC000
07FFF000
00FFFE00
003FFF80
0007FFF0
0001FFF8
00003FF8
00000FF8
000001F8
00000078
00000008
ENDCHAR
STARTCHAR 003D
ENCODING 61
SWIDTH 620 0
DWIDTH 31 0
BBX 28 20 1 8
BITMAP
7FFFFFE0
80000010
BFFFFFD0
BFFFFFD0
BFFFFFD0
BFFFFFD0
BFFFFFD0
80000010
7FFFFFE0
00000000
00000000
7FFFFFE0
80000010
BFFFFFD0
BFFFFFD0
BFFFFFD0
BFFFFFD0
BFFFFFD0
80000010
7FFFFFE0
ENDCHAR
STARTCHAR 003E
ENCODING 62
SWIDTH 840 0
DWIDTH 42 0
BBX 29 29 6 0
BITMAP
80000000
F0000000
FC000000
FF800000
FFE00000
FFFC0000
7FFF0000
0FFFE000
03FFF800
007FFF00
001FFFC0
0003FFF0
0000FFF8
00003FF8
000007F8
00001FF8
0000FFF8
0003FFF8
001FFFC0
007FFF00
03FFF800
0FFFE000
7FFF0000
FFFC0000
FFE00000
FF800000
FC000000
F0000000
80000000
ENDCHAR
STARTCHAR 003F
ENCODING 63
SWIDTH 780 0
DWIDTH 39 0
BBX 36 35 1 0
BITMAP
0FFFFFFF00
30000000C0
67FFFFFE60
5FFFFFFFA0
BFFFFFFF90
BFFFFFFFD0
BFFFFFFFD0
BFC0007FD0
BFBFFF3FD0
BFA000BFD0
C02000BFD0
7FC000BFD0
000000BFD0
0003FF7FD0
0006007FD0
0019FFFFD0
0017FFFFD0
0027FFFFA0
002FFFFE60
002FF800C0
002FF7FF00
002FE80000
0030080000
001FF00000
0000000000
003FF80000
0040040000
005FF40000
005FF40000
005FF40000
005FF40000
005FF40000
005FF40000
0040040000
003FF80000
ENDCHAR
STARTCHAR 0040
ENCODING 64
SWIDTH 1000 0
DWIDTH 50 0
BBX 46 44 2 -8
BITMAP
00000FFC0000
0000FFFFC000
0007FFFFF000
000FFFFFFC00
003FFFFFFF00
007FF003FF80
00FF80007FC0
03FC00001FE0
03F8000007E0
07F0000003F0
0FC0000001F0
1F80000001F8
1F800F8000F8
3F007FE3E0F8
3E00FFF7E07C
7E01FFF7C07C
7C03FFFFC07C
7C07F87FC07C
7C07F01F807C
F80FE01F807C
F80FC01F807C
F81FC01F80FC
F81F801F00F8
F81F803F00F8
F81F803F01F8
F81F803F03F0
F81F807E07F0
F81F80FE0FE0
7C1FC1FF3FC0
7C0FFFFFFFC0
7E0FFFFFFF80
7E07FF9FFE00
3F03FF1FFC00
3F80FC07E000
1FC000000000
0FE000000400
07F000001E00
07FC00007F00
01FFC007FE00
00FFFFFFFC00
007FFFFFF000
001FFFFFE000
0003FFFF0000
00003FF00000
ENDCHAR
STARTCHAR 0041
ENCODING 65
SWIDTH 1020 0
DWIDTH 51 0
BBX 52 35 -1 0
BITMAP
00007FFFE00000
0000C000300000
00009FFFD00000
0001BFFFC80000
00013FFFE80000
00037FFFE40000
0002FFFFF40000
0006FF0FF20000
0005FF6FFB0000
0009FEF7F90000
000BFC97FD8000
0013FD8BFE8000
0017F909FEC000
002FFA05FF4000
006FF204FF2000
005FF402FFA000
00DFE4027F9000
00BFE8017FD000
01BFD801BFC800
017FD000BFE800
027FDFFFBFF400
02FFC0003FF400
05FFFFFFFFFA00
05FFFFFFFFFB00
0BFFFFFFFFFD00
1BFFFFFFFFFD80
17FFFFFFFFFE80
37FC000003FEC0
2FFBFFFFFDFF40
7FF6000006FF20
5FF4000002FFA0
BFE40000027FD0
BFEC0000037FD0
80080000010010
FFF0000000FFF0
ENDCHAR
STARTCHAR 0042
ENCODING 66
SWIDTH 1000 0
DWIDTH 50 0
BBX 45 35 2 0
BITMAP
7FFFFFFFFF00
8000000000C0
BFFFFFFFFE60
BFFFFFFFFFA0
BFFFFFFFFF90
BFFFFFFFFFD0
BFFFFFFFFFD0
BFE000007FD0
BFDFFFFF3FD0
BFD00000BFD0
BFD00000BFD0
BFD00000BFD0
BFD00000BFD0
BFDFFFFFBFB0
BFE000007FA0
BFFFFFFFFF60
BFFFFFFFFF40
BFFFFFFFFF60
BFFFFFFFFF20
BFFFFFFFFF90
BFE000003FD8
BFDFFFFF9FE8
BFD000005FE8
BFD000005FE8
BFD000005FE8
BFD000005FE8
BFDFFFFF9FE8
BFE000003FE8
BFFFFFFFFFE8
BFFFFFFFFFE8
BFFFFFFFFFE8
BFFFFFFFFFD0
BFFFFFFFFFB0
800000000060
7FFFFFFFFF80
ENDCHAR
STARTCHAR 0043
ENCODING 67
SWIDTH 960 0
DWIDTH 48 0
BBX 44 35 2 0
BITMAP
0FFFFFFFFF00
3000000000C0
6FFFFFFFFE60
5FFFFFFFFFA0
BFFFFFFFFF90
BFFFFFFFFFD0
BFFFFFFFFFD0
BFE00000FFD0
BFCFFFFE7FD0
BFD000017FD0
BFD000018030
BFD00000FFE0
BFD000000000
BFD000000000
BFD000000000
BFD000000000
BFD000000000
BFD000000000
BFD000000000
BFD000000000
BFD000000000
BFD000000000
BFD000000000
BFD00000FFE0
BFD000010030
BFD000017FD0
BFCFFFFE7FD0
BFE00000FFD0
BFFFFFFFFFD0
BFFFFFFFFFD0
BFFFFFFFFF90
5FFFFFFFFFA0
6FFFFFFFFE60
3000000000C0
0FFFFFFFFF00
ENDCHAR
STARTCHAR 0044
ENCODING 68
SWIDTH 1040 0
DWIDTH 52 0
BBX 47 35 2 0
BITMAP
7FFFFFFFFFE0
800000000018
BFFFFFFFFFCC
BFFFFFFFFFF4
BFFFFFFFFFFA
BFFFFFFFFFFA
BFFFFFFFFFFA
BFE000000FFA
BFDFFFFFE7FA
BFD0000017FA
BFD0000017FA
BFD0000017FA
BFD0000017FA
BFD0000017FA
BFD0000017FA
BFD0000017FA
BFD0000017FA
BFD0000017FA
BFD0000017FA
BFD0000017FA
BFD0000017FA
BFD0000017FA
BFD0000017FA
BFD0000017FA
BFD0000017FA
BFD0000017FA
BFDFFFFFF7FA
BFE000000FFA
BFFFFFFFFFFA
BFFFFFFFFFFA
BFFFFFFFFFFA
BFFFFFFFFFF4
BFFFFFFFFFEC
800000000018
7FFFFFFFFFE0
ENDCHAR
STARTCHAR 0045
ENCODING 69
SWIDTH 900 0
DWIDTH 45 0
BBX 40 35 2 0
BITMAP
7FFFFFFFFE
8000000001
BFFFFFFFFD
BFFFFFFFFD
BFFFFFFFFD
BFFFFFFFFD
BFFFFFFFFD
BFE0000001
BFDFFFFFFE
BFD0000000
BFD0000000
BFD0000000
BFD0000000
BFDFFFFFFE
BFE0000001
BFFFFFFFFD
BFFFFFFFFD
BFFFFFFFFD
BFFFFFFFFD
BFFFFFFFFD
BFE0000001
BFDFFFFFFE
BFD0000000
BFD0000000
BFD0000000
BFD0000000
BFDFFFFFFE
BFE0000001
BFFFFFFFFD
BFFFFFFFFD
BFFFFFFFFD
BFFFFFFFFD
BFFFFFFFFD
8000000001
7FFFFFFFFE
ENDCHAR
STARTCHAR 0046
ENCODING 70
SWIDTH 880 0
DWIDTH 44 0
BBX 39 35 2 0
BITMAP
7FFFFFFFFC
8000000002
BFFFFFFFFA
BFFFFFFFFA
BFFFFFFFFA
BFFFFFFFFA
BFFFFFFFFA
BFE0000002
BFDFFFFFFC
BFD0000000
BFD0000000
BFD0000000
BFD0000000
BFDFFFFFFC
BFE0000002
BFFFFFFFFA
BFFFFFFFFA
BFFFFFFFFA
BFFFFFFFFA
BFFFFFFFFA
BFE0000002
BFDFFFFFFC
BFD0000000
BFD0000000
BFD0000000
BFD0000000
BFD0000000
BFD0000000
BFD0000000
BFD0000000
BFD0000000
BFD0000000
BFD0000000
8010000000
7FE0000000
ENDCHAR
STARTCHAR 0047
ENCODING 71
SWIDTH 1040 0
DWIDTH 52 0
BBX 47 35 2 0
BITMAP
0FFFFFFFFFE0
300000000018
6FFFFFFFFFCC
5FFFFFFFFFF4
BFFFFFFFFFF2
BFFFFFFFFFFA
BFFFFFFFFFFA
BFE000000FFA
BFCFFFFFEFFA
BFD0000017FA
BFD000001006
BFD000000FFC
BFD000000000
BFD000000000
BFD000000000
BFD003FFFFFC
BFD004000002
BFD005FFFFFA
BFD005FFFFFA
BFD005FFFFFA
BFD005FFFFFA
BFD005FFFFFA
BFD005FFFFFA
BFD004000FFA
BFD003FFF7FA
BFD0000017FA
BFDFFFFFF7FA
BFE000000FFA
BFFFFFFFFFFA
BFFFFFFFFFFA
BFFFFFFFFFFA
5FFFFFFFFFF4
6FFFFFFFFFEC
300000000018
0FFFFFFFFFE0
ENDCHAR
STARTCHAR 0048
ENCODING 72
SWIDTH 1020 0
DWIDTH 51 0
BBX 46 35 2 0
BITMAP
7FE000001FF8
801000002004
BFD000002FF4
BFD000002FF4
BFD000002FF4
BFD000002FF4
BFD000002FF4
BFD000002FF4
BFD000002FF4
BFD000002FF4
BFD000002FF4
BFD000002FF4
BFD000002FF4
BFDFFFFFEFF4
BFE000001FF4
BFFFFFFFFFF4
BFFFFFFFFFF4
BFFFFFFFFFF4
BFFFFFFFFFF4
BFFFFFFFFFF4
BFE000001FF4
BFDFFFFFEFF4
BFD000002FF4
BFD000002FF4
BFD000002FF4
BFD000002FF4
BFD000002FF4
BFD000002FF4
BFD000002FF4
BFD000002FF4
BFD000002FF4
BFD000002FF4
BFD000002FF4
801000002004
7FE000001FF8
ENDCHAR
STARTCHAR 0049
ENCODING 73
SWIDTH 360 0
DWIDTH 18 0
BBX 12 35 2 0
BITMAP
7FE0
8010
BFD0
BFD0
BFD0
BFD0
BFD0
BFD0
BFD0
BFD0
BFD0
BFD0
BFD0
BFD0
BFD0
BFD0
BFD0
BFD0
BFD0
BFD0
BFD0
BFD0
BFD0
BFD0
BFD0
BFD0
BFD0
BFD0
BFD0
BFD0
BFD0
BFD0
BFD0
8010
7FE0
ENDCHAR
STARTCHAR 004A
ENCODING 74
SWIDTH 840 0
DWIDTH 42 0
BBX 39 35 1 0
BITMAP
0000000FFC
0000001002
00000017FA
00000017FA
00000017FA
00000017FA
00000017FA
00000017FA
00000017FA
00000017FA
00000017FA
00000017FA
00000017FA
00000017FA
00000017FA
00000017FA
00000017FA
00000017FA
00000017FA
00000017FA
7FE00017FA
80100017FA
BFD00017FA
BFD00017FA
BFD00017FA
BFD00017FA
BFCFFFE7FA
BFE0000FFA
BFFFFFFFFA
BFFFFFFFFA
9FFFFFFFF2
5FFFFFFFF4
67FFFFFFEC
3000000018
0FFFFFFFE0
ENDCHAR
STARTCHAR 004B
ENCODING 75
SWIDTH 980 0
DWIDTH 49 0
BBX 46 35 2 0
BITMAP
7FE00007FFF0
801000180008
BFD00037FFC8
BFD0006FFF98
BFD000DFFF30
BFD001BFFEC0
BFD0037FF980
BFD006FFF300
BFD00DFFE600
BFD01BFFD800
BFD037FF3000
BFD06FFE6000
BFD0DFFD8000
BFDF3FFB0000
BFE07FE60000
BFFFFFC80000
BFFFFFB00000
BFFFFFA00000
BFFFFFB00000
BFFFFFD80000
BFE0FFE60000
BFDF7FF30000
BFD19FFD8000
BFD0CFFE6000
BFD067FF3000
BFD013FFC800
BFD009FFE600
BFD004FFFB00
BFD0037FFCC0
BFD001BFFE60
BFD000CFFF90
BFD00067FFCC
BFD00033FFE4
801000180004
7FE00007FFF8
ENDCHAR
STARTCHAR 004C
ENCODING 76
SWIDTH 800 0
DWIDTH 40 0
BBX 36 35 2 0
BITMAP
7FE0000000
8010000000
BFD0000000
BFD0000000
BFD0000000
BFD0000000
BFD0000000
BFD0000000
BFD0000000
BFD0000000
BFD0000000
BFD0000000
BFD0000000
BFD0000000
BFD0000000
BFD0000000
BFD0000000
BFD0000000
BFD0000000
BFD0000000
BFD0000000
BFD0000000
BFD0000000
BFD0000000
BFD0000000
BFD0000000
BFDFFFFFE0
BFE0000010
BFFFFFFFD0
BFFFFFFFD0
BFFFFFFFD0
BFFFFFFFD0
BFFFFFFFD0
8000000010
7FFFFFFFE0
ENDCHAR
STARTCHAR 004D
ENCODING 77
SWIDTH 1280 0
DWIDTH 64 0
BBX 59 35 2 0
BITMAP
7FFFE00000FFFFC0
8000100001000020
BFFFC800027FFFA0
BFFFE80002FFFFA0
BFFFE40004FFFFA0
BFFFF40005FFFFA0
BFFFF20009FFFFA0
BFFFFA000BFFFFA0
BFE7F9001BFCFFA0
BFC3FD0017F87FA0
BFDBFC8037FB7FA0
BFD9FE802FF77FA0
BFD5FEC06FF57FA0
BFD4FF405FE57FA0
BFD2FF60DFE97FA0
BFD27FA0BFC97FA0
BFD17FB1BFD17FA0
BFD13FD17F917FA0
BFD0BFDB7FA17FA0
BFD09FEAFF217FA0
BFD05FEEFF417FA0
BFD04FF1FE417FA0
BFD02FFFFE817FA0
BFD027FFFC817FA0
BFD017FFFD017FA0
BFD013FFF9017FA0
BFD00BFFFB017FA0
BFD009FFF2017FA0
BFD005FFF6017FA0
BFD004FFE4017FA0
BFD002FFEC017FA0
BFD0027FC8017FA0
BFD0037FD8017FA0
8010010010010020
7FE000FFE000FFC0
ENDCHAR
STARTCHAR 004E
ENCODING 78
SWIDTH 1080 0
DWIDTH 54 0
BBX 49 35 2 0
BITMAP
7FFFF00003FF00
80000800040080
BFFFE40005FE80
BFFFF60005FE80
BFFFF20005FE80
BFFFF90005FE80
BFFFFD8005FE80
BFFFFE8005FE80
BFFFFE4005FE80
BFE3FF6005FE80
BFD9FFA005FE80
BFD5FF9005FE80
BFD6FFD805FE80
BFD27FEC05FE80
BFD17FE405FE80
BFD1BFF205FE80
BFD09FFB05FE80
BFD05FFD05FE80
BFD06FFC85FE80
BFD037FEC5FE80
BFD013FF45FE80
BFD01BFF25FE80
BFD00DFFB5FE80
BFD004FFD5FE80
BFD002FFCDFE80
BFD0037FE3FE80
BFD0013FFFFE80
BFD000BFFFFE80
BFD000DFFFFE80
BFD0004FFFFE80
BFD00027FFFE80
BFD00037FFFE80
BFD00013FFFE80
80100008000080
7FE00007FFFF00
ENDCHAR
STARTCHAR 004F
ENCODING 79
SWIDTH 980 0
DWIDTH 49 0
BBX 44 35 2 0
BITMAP
0FFFFFFFFF00
3000000000C0
67FFFFFFFE60
5FFFFFFFFFA0
BFFFFFFFFF90
BFFFFFFFFFD0
BFFFFFFFFFD0
BFE000007FD0
BFDFFFFFBFD0
BFD00000BFD0
BFD00000BFD0
BFD00000BFD0
BFD00000BFD0
BFD00000BFD0
BFD00000BFD0
BFD00000BFD0
BFD00000BFD0
BFD00000BFD0
BFD00000BFD0
BFD00000BFD0
BFD00000BFD0
BFD00000BFD0
BFD00000BFD0
BFD00000BFD0
BFD00000BFD0
BFD00000BFD0
BFDFFFFFBFD0
BFE000007FD0
BFFFFFFFFFD0
BFFFFFFFFFD0
BFFFFFFFFF90
5FFFFFFFFFA0
6FFFFFFFFF60
3000000000C0
0FFFFFFFFF00
ENDCHAR
STARTCHAR 0050
ENCODING 80
SWIDTH 980 0
DWIDTH 49 0
BBX 44 35 2 0
BITMAP
7FFFFFFFFF00
8000000000C0
BFFFFFFFFE60
BFFFFFFFFFA0
BFFFFFFFFF90
BFFFFFFFFFD0
BFFFFFFFFFD0
BFE000007FD0
BFDFFFFF3FD0
BFD00000BFD0
BFD00000BFD0
BFD00000BFD0
BFD00000BFD0
BFDFFFFF3FD0
BFE000007FD0
BFFFFFFFFFD0
BFFFFFFFFFD0
BFFFFFFFFF90
BFFFFFFFFFA0
BFFFFFFFFF60
BFE0000000C0
BFDFFFFFFF00
BFD000000000
BFD000000000
BFD000000000
BFD000000000
BFD000000000
BFD000000000
BFD000000000
BFD000000000
BFD000000000
BFD000000000
BFD000000000
801000000000
7FE000000000
ENDCHAR
STARTCHAR 0051
ENCODING 81
SWIDTH 1060 0
DWIDTH 53 0
BBX 48 35 2 0
BITMAP
0FFFFFFFFFF0
30000000000C
6FFFFFFFFFE6
5FFFFFFFFFFA
BFFFFFFFFFFD
BFFFFFFFFFFD
BFFFFFFFFFFD
BFE0000007FD
BFDFFFFFF3FD
BFD000000BFD
BFD000000BFD
BFD000000BFD
BFD000000BFD
BFD000000BFD
BFD000000BFD
BFD000000BFD
BFD000000BFD
BFD0003FFBFD
BFD0004007FD
BFD0005FFFFD
BFD0005FFFFD
BFD0005FFFFD
BFD0005FFFFD
BFD0005FFFFD
BFD0005FFFFD
BFD0005FFFFD
BFDFFFDFFFFD
BFE0003FFFFD
BFFFFFFFFFFD
BFFFFFFFFFFD
BFFFFFFFFFFD
5FFFFFFFFFFD
6FFFFFFFFFFD
300000000001
0FFFFFFFFFFE
ENDCHAR
STARTCHAR 0052
ENCODING 82
SWIDTH 980 0
DWIDTH 49 0
BBX 44 35 2 0
BITMAP
7FFFFFFFFF00
8000000000C0
BFFFFFFFFE60
BFFFFFFFFFA0
BFFFFFFFFF90
BFFFFFFFFFD0
BFFFFFFFFFD0
BFE000007FD0
BFDFFFFF3FD0
BFD00000BFD0
BFD00000BFD0
BFD00000BFD0
BFD00000BFB0
BFDFFFFFBF20
BFE000007EC0
BFFFFFFFFD80
BFFFFFFFFD00
BFFFFFFFFC80
BFFFFFFFFE40
BFFFFFFFFF20
BFE000007FA0
BFDFFFFFBFD0
BFD00000BFD0
BFD00000BFD0
BFD00000BFD0
BFD00000BFD0
BFD00000BFD0
BFD00000BFD0
BFD00000BFD0
BFD00000BFD0
BFD00000BFD0
BFD00000BFD0
BFD00000BFD0
801000008010
7FE000007FE0
ENDCHAR
STARTCHAR 0053
ENCODING 83
SWIDTH 940 0
DWIDTH 47 0
BBX 43 35 2 0
BITMAP
0FFFFFFFFE00
300000000100
27FFFFFFFC80
5FFFFFFFFF40
DFFFFFFFFF60
BFFFFFFFFFA0
BFFFFFFFFFA0
BFE00000FFA0
BFCFFFFEFFA0
BFD000017FA0
BFD000010060
BFD00000FFC0
BFD000000000
BFDFFFFFFE00
BFE000000100
BFFFFFFFFC80
BFFFFFFFFF40
9FFFFFFFFF60
5FFFFFFFFFA0
27FFFFFFFFA0
30000000FFA0
0FFFFFFF7FA0
000000017FA0
7FE000017FA0
C01000017FA0
BFD000017FA0
BFEFFFFE7FA0
BFE00000FFA0
BFFFFFFFFFA0
BFFFFFFFFFA0
9FFFFFFFFF60
5FFFFFFFFF40
27FFFFFFFC80
300000000180
0FFFFFFFFE00
ENDCHAR
STARTCHAR 0054
ENCODING 84
SWIDTH 900 0
DWIDTH 45 0
BBX 42 35 1 0
BITMAP
7FFFFFFFFF80
800000000040
BFFFFFFFFF40
BFFFFFFFFF40
BFFFFFFFFF40
BFFFFFFFFF40
BFFFFFFFFF40
8000FFC00040
7FFF7FBFFF80
00017FA00000
00017FA00000
00017FA00000
00017FA00000
00017FA00000
00017FA00000
00017FA00000
00017FA00000
00017FA00000
00017FA00000
00017FA00000
00017FA00000
00017FA00000
00017FA00000
00017FA00000
00017FA00000
00017FA00000
00017FA00000
00017FA00000
00017FA00000
00017FA00000
00017FA00000
00017FA00000
00017FA00000
000100200000
0000FFC00000
ENDCHAR
STARTCHAR 0055
ENCODING 85
SWIDTH 1020 0
DWIDTH 51 0
BBX 46 35 2 0
BITMAP
7FE000001FF8
801000002004
BFD000002FF4
BFD000002FF4
BFD000002FF4
BFD000002FF4
BFD000002FF4
BFD000002FF4
BFD000002FF4
BFD000002FF4
BFD000002FF4
BFD000002FF4
BFD000002FF4
BFD000002FF4
BFD000002FF4
BFD000002FF4
BFD000002FF4
BFD000002FF4
BFD000002FF4
BFD000002FF4
BFD000002FF4
BFD000002FF4
BFD000002FF4
BFD000002FF4
BFD000002FF4
BFD000002FF4
BFDFFFFFEFF4
BFE000001FF4
BFFFFFFFFFF4
BFFFFFFFFFF4
BFFFFFFFFFE4
5FFFFFFFFFE8
6FFFFFFFFFD8
300000000030
0FFFFFFFFFC0
ENDCHAR
STARTCHAR 0056
ENCODING 86
SWIDTH 960 0
DWIDTH 48 0
BBX 49 35 -1 0
BITMAP
7FF0000007FF00
80080000080080
9FEC00001BFE80
5FF4000017FD80
5FF6000037FD00
2FFA00002FFB00
2FFB00002FFA00
17FD00004FF600
17FD00005FF400
0BFC80009FEC00
0BFE8000BFE800
05FE4001BFC800
05FF40017FD000
04FF60037F9000
02FFA002FFA000
027FB006FF2000
017FD005FF4000
013FD805FE4000
00BFC809FE8000
009FE80BFC8000
005FE413FD0000
004FF417F90000
002FF237FA0000
0027FA2FF20000
0017FB6FF40000
0013FD5FF40000
000BFDDFEC0000
0009FE3FE80000
0005FFFFD80000
0005FFFFD00000
0002FFFFB00000
0002FFFFA00000
00037FFF600000
00010000400000
0000FFFF800000
ENDCHAR
STARTCHAR 0057
ENCODING 87
SWIDTH 1420 0
DWIDTH 71 0
BBX 72 35 0 0
BITMAP
FFF00007FFE0000FFF
8008000C0030001001
BFEC000BFFD00037FD
DFF4000BFFD0002FFB
5FF4001BFFD8002FFA
4FF60013FFE8006FF2
2FFA0017FFE8005FF4
2FFA0017FFE8005FF4
37FB0037FFEC00DFEC
17FD002FFFF400BFE8
13FD002FFFF400BFC8
0BFD802FC3F401BFD0
0BFE806FDBF2017FD0
0DFE805F99FA017FB0
05FEC05FB5FA037FA0
04FE405FA5FA02FF20
02FF40DFA5F902FF40
02FF60BF24FD02FF40
037F20BF62FD04FEC0
017FA1BF42FD85FE80
013FB13F42FE85FE80
00BF917E427E89FD00
00BFD17E817E8BFD00
00DFD37E817ECBFB00
005FCAFE817F53FA00
004FEAFD81BF57FA00
006FEEFD00BF77F600
002FF1FD00BF8FF400
0027FFFD009FFFE400
0017FFFB00DFFFE800
0017FFFA005FFFE800
001BFFFA005FFFD800
000BFFF2004FFFD000
000C00040020003000
0007FFFC003FFFE000
ENDCHAR
STARTCHAR 0058
ENCODING 88
SWIDTH 960 0
DWIDTH 48 0
BBX 48 35 0 0
BITMAP
7FFE00003FFE
80010000C003
9FFC8001BFF9
CFFEC0013FF2
67FF60027FE6
37FF2004FFCC
1BFF9009FF98
0DFFD81BFF30
06FFEC37FE60
037FF46FFCC0
01BFF2DFF980
00DFF9BFFB00
006FFC7FF600
0027FFFFEC00
0013FFFFD800
0009FFFFB000
0004FFFF6000
0002FFFF4000
0006FFFF6000
000DFFFFB000
001BFFFFD800
0037FFFFEC00
006FFC3FF600
00DFF99FFB00
01BFF25FFD80
037FE46FFEC0
06FFEC37FF60
0DFFD813FFB0
1BFFB009FFD8
37FF600DFFEC
6FFE4006FFF6
CFFC80027FF3
9FF900013FF9
800300008001
7FFC00007FFE
ENDCHAR
STARTCHAR 0059
ENCODING 89
SWIDTH 940 0
DWIDTH 47 0
BBX 47 35 -1 0
BITMAP
7FFE00007FFC
80030000C002
9FFD8001BFF2
CFFE80017FF6
6FFE40027FEC
37FF2006FFD8
1BFFB00DFFB0
0DFFD00BFF20
06FFC813FE40
037FE437FC80
01BFF66FF900
00DFFA5FFB00
004FFD9FF600
0027FC3FEC00
0013FFFFD800
0009FFFF9000
0004FFFF2000
00027FFE4000
00013FFC8000
00009FFD8000
00005FFB0000
00006FF60000
00002FF40000
00002FF40000
00002FF40000
00002FF40000
00002FF40000
00002FF40000
00002FF40000
00002FF40000
00002FF40000
00002FF40000
00002FF40000
000020040000
00001FF80000
ENDCHAR
STARTCHAR 005A
ENCODING 90
SWIDTH 940 0
DWIDTH 47 0
BBX 43 35 2 0
BITMAP
7FFFFFFFFFC0
800000000020
BFFFFFFFFFA0
BFFFFFFFFFA0
BFFFFFFFFFA0
BFFFFFFFFFA0
BFFFFFFFFFA0
800001FFFFA0
7FFFFEFFFF60
000006FFFEC0
00000CFFF980
000033FFF300
000067FFEC00
0000CFFF9800
00019FFF3000
00067FFE6000
000CFFFD8000
0019FFF30000
0037FFE60000
00CFFFCC0000
019FFF300000
033FFE600000
04FFFCC00000
19FFFB800000
33FFE6000000
6FFFEC000000
9FFFEFFFFFC0
BFFFF0000020
BFFFFFFFFFA0
BFFFFFFFFFA0
BFFFFFFFFFA0
BFFFFFFFFFA0
BFFFFFFFFFA0
800000000020
7FFFFFFFFFC0
ENDCHAR
STARTCHAR 005B
ENCODING 91
SWIDTH 480 0
DWIDTH 24 0
BBX 19 35 2 0
BITMAP
0FFFC0
300020
67FFA0
5FFFA0
BFFFA0
BFFFA0
BFFFA0
BFC020
BFBFC0
BFA000
BFA000
BFA000
BFA000
BFA000
BFA000
BFA000
BFA000
BFA000
BFA000
BFA000
BFA000
BFA000
BFA000
BFA000
BFA000
BFA000
BF9FC0
BFC020
BFFFA0
BFFFA0
9FFFA0
5FFFA0
67FFA0
300020
0FFFC0
ENDCHAR
STARTCHAR 005C
ENCODING 92
SWIDTH 480 0
DWIDTH 24 0
BBX 25 35 0 0
BITMAP
FFF80000
800C0000
BFE40000
DFF40000
5FF20000
4FFA0000
2FFA0000
2FF90000
27FD0000
17FD0000
17FC8000
13FE8000
0BFEC000
09FF4000
0DFF4000
05FF2000
04FFA000
02FFA000
02FF9000
027FD000
017FD000
017FC800
01BFE800
00BFEC00
009FF400
00DFF400
005FF200
004FFA00
002FFA00
002FF900
0027FD00
0017FD80
0017FE80
00180080
000FFF80
ENDCHAR
STARTCHAR 005D
ENCODING 93
SWIDTH 480 0
DWIDTH 24 0
BBX 19 35 2 0
BITMAP
7FFE00
800180
BFFCC0
BFFF40
BFFF20
BFFFA0
BFFFA0
807FA0
7F3FA0
00BFA0
00BFA0
00BFA0
00BFA0
00BFA0
00BFA0
00BFA0
00BFA0
00BFA0
00BFA0
00BFA0
00BFA0
00BFA0
00BFA0
00BFA0
00BFA0
00BFA0
7FBFA0
807FA0
BFFFA0
BFFFA0
BFFF20
BFFF40
BFFCC0
800180
7FFE00
ENDCHAR
STARTCHAR 005E
ENCODING 94
SWIDTH 1000 0
DWIDTH 50 0
BBX 30 14 10 22
BITMAP
001FE000
003FF000
007FF800
007FF800
00FFFC00
01FFFE00
03FCFF00
07F87F80
0FF03F80
0FE01FC0
1FC00FE0
3F8007F0
7F0003F8
FE0001FC
ENDCHAR
STARTCHAR 005F
ENCODING 95
SWIDTH 500 0
DWIDTH 25 0
BBX 25 6 0 -12
BITMAP
FFFFFF80
FFFFFF80
FFFFFF80
FFFFFF80
FFFFFF80
FFFFFF80
ENDCHAR
STARTCHAR 0060
ENCODING 96
SWIDTH 500 0
DWIDTH 25 0
BBX 16 11 3 37
BITMAP
7FC0
8060
BFB0
CF90
67C8
13E4
09F2
067B
033D
0081
007E
ENDCHAR
STARTCHAR 0061
ENCODING 97
SWIDTH 1020 0
DWIDTH 51 0
BBX 52 35 -1 0
BITMAP
00007FFFE00000
0000C000300000
00009FFFD00000
0001BFFFC80000
00013FFFE80000
00037FFFE40000
0002FFFFF40000
0006FF0FF20000
0005FF6FFB0000
0009FEF7F90000
000BFC97FD8000
0013FD8BFE8000
0017F909FEC000
002FFA05FF4000
006FF204FF2000
005FF402FFA000
00DFE4027F9000
00BFE8017FD000
01BFD801BFC800
017FD000BFE800
027FDFFFBFF400
02FFC0003FF400
05FFFFFFFFFA00
05FFFFFFFFFB00
0BFFFFFFFFFD00
1BFFFFFFFFFD80
17FFFFFFFFFE80
37FC000003FEC0
2FFBFFFFFDFF40
7FF6000006FF20
5FF4000002FFA0
BFE40000027FD0
BFEC0000037FD0
80080000010010
FFF0000000FFF0
ENDCHAR
STARTCHAR 0062
ENCODING 98
SWIDTH 1000 0
DWIDTH 50 0
BBX 45 35 2 0
BITMAP
7FFFFFFFFF00
8000000000C0
BFFFFFFFFE60
BFFFFFFFFFA0
BFFFFFFFFF90
BFFFFFFFFFD0
BFFFFFFFFFD0
BFE000007FD0
BFDFFFFF3FD0
BFD00000BFD0
BFD00000BFD0
BFD00000BFD0
BFD00000BFD0
BFDFFFFFBFB0
BFE000007FA0
BFFFFFFFFF60
BFFFFFFFFF40
BFFFFFFFFF60
BFFFFFFFFF20
BFFFFFFFFF90
BFE000003FD8
BFDFFFFF9FE8
BFD000005FE8
BFD000005FE8
BFD000005FE8
BFD000005FE8
BFDFFFFF9FE8
BFE000003FE8
BFFFFFFFFFE8
BFFFFFFFFFE8
BFFFFFFFFFE8
BFFFFFFFFFD0
BFFFFFFFFFB0
800000000060
7FFFFFFFFF80
ENDCHAR
STARTCHAR 0063
ENCODING 99
SWIDTH 960 0
DWIDTH 48 0
BBX 44 35 2 0
BITMAP
0FFFFFFFFF00
3000000000C0
6FFFFFFFFE60
5FFFFFFFFFA0
BFFFFFFFFF90
BFFFFFFFFFD0
BFFFFFFFFFD0
BFE00000FFD0
BFCFFFFE7FD0
BFD000017FD0
BFD000018030
BFD00000FFE0
BFD000000000
BFD000000000
BFD000000000
BFD000000000
BFD000000000
BFD000000000
BFD000000000
BFD000000000
BFD000000000
BFD000000000
BFD000000000
BFD00000FFE0
BFD000010030
BFD000017FD0
BFCFFFFE7FD0
BFE00000FFD0
BFFFFFFFFFD0
BFFFFFFFFFD0
BFFFFFFFFF90
5FFFFFFFFFA0
6FFFFFFFFE60
3000000000C0
0FFFFFFFFF00
ENDCHAR
STARTCHAR 0064
ENCODING 100
SWIDTH 1040 0
DWIDTH 52 0
BBX 47 35 2 0
BITMAP
7FFFFFFFFFE0
800000000018
BFFFFFFFFFCC
BFFFFFFFFFF4
BFFFFFFFFFFA
BFFFFFFFFFFA
BFFFFFFFFFFA
BFE000000FFA
BFDFFFFFE7FA
BFD0000017FA
BFD0000017FA
BFD0000017FA
BFD0000017FA
BFD0000017FA
BFD0000017FA
BFD0000017FA
BFD0000017FA
BFD0000017FA
BFD0000017FA
BFD0000017FA
BFD0000017FA
BFD0000017FA
BFD0000017FA
BFD0000017FA
BFD0000017FA
BFD0000017FA
BFDFFFFFF7FA
BFE000000FFA
BFFFFFFFFFFA
BFFFFFFFFFFA
BFFFFFFFFFFA
BFFFFFFFFFF4
BFFFFFFFFFEC
800000000018
7FFFFFFFFFE0
ENDCHAR
STARTCHAR 0065
ENCODING 101
SWIDTH 900 0
DWIDTH 45 0
BBX 40 35 2 0
BITMAP
7FFFFFFFFE
8000000001
BFFFFFFFFD
BFFFFFFFFD
BFFFFFFFFD
BFFFFFFFFD
BFFFFFFFFD
BFE0000001
BFDFFFFFFE
BFD0000000
BFD0000000
BFD0000000
BFD0000000
BFDFFFFFFE
BFE0000001
BFFFFFFFFD
BFFFFFFFFD
BFFFFFFFFD
BFFFFFFFFD
BFFFFFFFFD
BFE0000001
BFDFFFFFFE
BFD0000000
BFD0000000
BFD0000000
BFD0000000
BFDFFFFFFE
BFE0000001
BFFFFFFFFD
BFFFFFFFFD
BFFFFFFFFD
BFFFFFFFFD
BFFFFFFFFD
8000000001
7FFFFFFFFE
ENDCHAR
STARTCHAR 0066
ENCODING 102
SWIDTH 880 0
DWIDTH 44 0
BBX 39 35 2 0
BITMAP
7FFFFFFFFC
8000000002
BFFFFFFFFA
BFFFFFFFFA
BFFFFFFFFA
BFFFFFFFFA
BFFFFFFFFA
BFE0000002
BFDFFFFFFC
BFD0000000
BFD0000000
BFD0000000
BFD0000000
BFDFFFFFFC
BFE0000002
BFFFFFFFFA
BFFFFFFFFA
BFFFFFFFFA
BFFFFFFFFA
BFFFFFFFFA
BFE0000002
BFDFFFFFFC
BFD0000000
BFD0000000
BFD0000000
BFD0000000
BFD0000000
BFD0000000
BFD0000000
BFD0000000
BFD0000000
BFD0000000
BFD0000000
8010000000
7FE0000000
ENDCHAR
STARTCHAR 0067
ENCODING 103
SWIDTH 1040 0
DWIDTH 52 0
BBX 47 35 2 0
BITMAP
0FFFFFFFFFE0
300000000018
6FFFFFFFFFCC
5FFFFFFFFFF4
BFFFFFFFFFF2
BFFFFFFFFFFA
BFFFFFFFFFFA
BFE000000FFA
BFCFFFFFEFFA
BFD0000017FA
BFD000001006
BFD000000FFC
BFD000000000
BFD000000000
BFD000000000
BFD003FFFFFC
BFD004000002
BFD005FFFFFA
BFD005FFFFFA
BFD005FFFFFA
BFD005FFFFFA
BFD005FFFFFA
BFD005FFFFFA
BFD004000FFA
BFD003FFF7FA
BFD0000017FA
BFDFFFFFF7FA
BFE000000FFA
BFFFFFFFFFFA
BFFFFFFFFFFA
BFFFFFFFFFFA
5FFFFFFFFFF4
6FFFFFFFFFEC
300000000018
0FFFFFFFFFE0
ENDCHAR
STARTCHAR 0068
ENCODING 104
SWIDTH 1020 0
DWIDTH 51 0
BBX 46 35 2 0
BITMAP
7FE000001FF8
801000002004
BFD000002FF4
BFD000002FF4
BFD000002FF4
BFD000002FF4
BFD000002FF4
BFD000002FF4
BFD000002FF4
BFD000002FF4
BFD000002FF4
BFD000002FF4
BFD000002FF4
BFDFFFFFEFF4
BFE000001FF4
BFFFFFFFFFF4
BFFFFFFFFFF4
BFFFFFFFFFF4
BFFFFFFFFFF4
BFFFFFFFFFF4
BFE000001FF4
BFDFFFFFEFF4
BFD000002FF4
BFD000002FF4
BFD000002FF4
BFD000002FF4
BFD000002FF4
BFD000002FF4
BFD000002FF4
BFD000002FF4
BFD000002FF4
BFD000002FF4
BFD000002FF4
801000002004
7FE000001FF8
ENDCHAR
STARTCHAR 0069
ENCODING 105
SWIDTH 360 0
DWIDTH 18 0
BBX 12 35 2 0
BITMAP
7FE0
8010
BFD0
BFD0
BFD0
BFD0
BFD0
BFD0
BFD0
BFD0
BFD0
BFD0
BFD0
BFD0
BFD0
BFD0
BFD0
BFD0
BFD0
BFD0
BFD0
BFD0
BFD0
BFD0
BFD0
BFD0
BFD0
BFD0
BFD0
BFD0
BFD0
BFD0
BFD0
8010
7FE0
ENDCHAR
STARTCHAR 006A
ENCODING 106
SWIDTH 840 0
DWIDTH 42 0
BBX 39 35 1 0
BITMAP
0000000FFC
0000001002
00000017FA
00000017FA
00000017FA
00000017FA
00000017FA
00000017FA
00000017FA
00000017FA
00000017FA
00000017FA
00000017FA
00000017FA
00000017FA
00000017FA
00000017FA
00000017FA
00000017FA
00000017FA
7FE00017FA
80100017FA
BFD00017FA
BFD00017FA
BFD00017FA
BFD00017FA
BFCFFFE7FA
BFE0000FFA
BFFFFFFFFA
BFFFFFFFFA
9FFFFFFFF2
5FFFFFFFF4
67FFFFFFEC
3000000018
0FFFFFFFE0
ENDCHAR
STARTCHAR 006B
ENCODING 107
SWIDTH 980 0
DWIDTH 49 0
BBX 46 35 2 0
BITMAP
7FE00007FFF0
801000180008
BFD00037FFC8
BFD0006FFF98
BFD000DFFF30
BFD001BFFEC0
BFD0037FF980
BFD006FFF300
BFD00DFFE600
BFD01BFFD800
BFD037FF3000
BFD06FFE6000
BFD0DFFD8000
BFDF3FFB0000
BFE07FE60000
BFFFFFC80000
BFFFFFB00000
BFFFFFA00000
BFFFFFB00000
BFFFFFD80000
BFE0FFE60000
BFDF7FF30000
BFD19FFD8000
BFD0CFFE6000
BFD067FF3000
BFD013FFC800
BFD009FFE600
BFD004FFFB00
BFD0037FFCC0
BFD001BFFE60
BFD000CFFF90
BFD00067FFCC
BFD00033FFE4
801000180004
7FE00007FFF8
ENDCHAR
STARTCHAR 006C
ENCODING 108
SWIDTH 800 0
DWIDTH 40 0
BBX 36 35 2 0
BITMAP
7FE0000000
8010000000
BFD0000000
BFD0000000
BFD0000000
BFD0000000
BFD0000000
BFD0000000
BFD0000000
BFD0000000
BFD0000000
BFD0000000
BFD0000000
BFD0000000
BFD0000000
BFD0000000
BFD0000000
BFD0000000
BFD0000000
BFD0000000
BFD0000000
BFD0000000
BFD0000000
BFD0000000
BFD0000000
BFD0000000
BFDFFFFFE0
BFE0000010
BFFFFFFFD0
BFFFFFFFD0
BFFFFFFFD0
BFFFFFFFD0
BFFFFFFFD0
8000000010
7FFFFFFFE0
ENDCHAR
STARTCHAR 006D
ENCODING 109
SWIDTH 1280 0
DWIDTH 64 0
BBX 59 35 2 0
BITMAP
7FFFE00000FFFFC0
8000100001000020
BFFFC800027FFFA0
BFFFE80002FFFFA0
BFFFE40004FFFFA0
BFFFF40005FFFFA0
BFFFF20009FFFFA0
BFFFFA000BFFFFA0
BFE7F9001BFCFFA0
BFC3FD0017F87FA0
BFDBFC8037FB7FA0
BFD9FE802FF77FA0
BFD5FEC06FF57FA0
BFD4FF405FE57FA0
BFD2FF60DFE97FA0
BFD27FA0BFC97FA0
BFD17FB1BFD17FA0
BFD13FD17F917FA0
BFD0BFDB7FA17FA0
BFD09FEAFF217FA0
BFD05FEEFF417FA0
BFD04FF1FE417FA0
BFD02FFFFE817FA0
BFD027FFFC817FA0
BFD017FFFD017FA0
BFD013FFF9017FA0
BFD00BFFFB017FA0
BFD009FFF2017FA0
BFD005FFF6017FA0
BFD004FFE4017FA0
BFD002FFEC017FA0
BFD0027FC8017FA0
BFD0037FD8017FA0
8010010010010020
7FE000FFE000FFC0
ENDCHAR
STARTCHAR 006E
ENCODING 110
SWIDTH 1080 0
DWIDTH 54 0
BBX 49 35 2 0
BITMAP
7FFFF00003FF00
80000800040080
BFFFE40005FE80
BFFFF60005FE80
BFFFF20005FE80
BFFFF90005FE80
BFFFFD8005FE80
BFFFFE8005FE80
BFFFFE4005FE80
BFE3FF6005FE80
BFD9FFA005FE80
BFD5FF9005FE80
BFD6FFD805FE80
BFD27FEC05FE80
BFD17FE405FE80
BFD1BFF205FE80
BFD09FFB05FE80
BFD05FFD05FE80
BFD06FFC85FE80
BFD037FEC5FE80
BFD013FF45FE80
BFD01BFF25FE80
BFD00DFFB5FE80
BFD004FFD5FE80
BFD002FFCDFE80
BFD0037FE3FE80
BFD0013FFFFE80
BFD000BFFFFE80
BFD000DFFFFE80
BFD0004FFFFE80
BFD00027FFFE80
BFD00037FFFE80
BFD00013FFFE80
80100008000080
7FE00007FFFF00
ENDCHAR
STARTCHAR 006F
ENCODING 111
SWIDTH 980 0
DWIDTH 49 0
BBX 44 35 2 0
BITMAP
0FFFFFFFFF00
3000000000C0
67FFFFFFFE60
5FFFFFFFFFA0
BFFFFFFFFF90
BFFFFFFFFFD0
BFFFFFFFFFD0
BFE000007FD0
BFDFFFFFBFD0
BFD00000BFD0
BFD00000BFD0
BFD00000BFD0
BFD00000BFD0
BFD00000BFD0
BFD00000BFD0
BFD00000BFD0
BFD00000BFD0
BFD00000BFD0
BFD00000BFD0
BFD00000BFD0
BFD00000BFD0
BFD00000BFD0
BFD00000BFD0
BFD00000BFD0
BFD00000BFD0
BFD00000BFD0
BFDFFFFFBFD0
BFE000007FD0
BFFFFFFFFFD0
BFFFFFFFFFD0
BFFFFFFFFF90
5FFFFFFFFFA0
6FFFFFFFFF60
3000000000C0
0FFFFFFFFF00
ENDCHAR
STARTCHAR 0070
ENCODING 112
SWIDTH 980 0
DWIDTH 49 0
BBX 44 35 2 0
BITMAP
7FFFFFFFFF00
8000000000C0
BFFFFFFFFE60
BFFFFFFFFFA0
BFFFFFFFFF90
BFFFFFFFFFD0
BFFFFFFFFFD0
BFE000007FD0
BFDFFFFF3FD0
BFD00000BFD0
BFD00000BFD0
BFD00000BFD0
BFD00000BFD0
BFDFFFFF3FD0
BFE000007FD0
BFFFFFFFFFD0
BFFFFFFFFFD0
BFFFFFFFFF90
BFFFFFFFFFA0
BFFFFFFFFF60
BFE0000000C0
BFDFFFFFFF00
BFD000000000
BFD000000000
BFD000000000
BFD000000000
BFD000000000
BFD000000000
BFD000000000
BFD000000000
BFD000000000
BFD000000000
BFD000000000
801000000000
7FE000000000
ENDCHAR
STARTCHAR 0071
ENCODING 113
SWIDTH 1060 0
DWIDTH 53 0
BBX 48 35 2 0
BITMAP
0FFFFFFFFFF0
30000000000C
6FFFFFFFFFE6
5FFFFFFFFFFA
BFFFFFFFFFFD
BFFFFFFFFFFD
BFFFFFFFFFFD
BFE0000007FD
BFDFFFFFF3FD
BFD000000BFD
BFD000000BFD
BFD000000BFD
BFD000000BFD
BFD000000BFD
BFD000000BFD
BFD000000BFD
BFD000000BFD
BFD0003FFBFD
BFD0004007FD
BFD0005FFFFD
BFD0005FFFFD
BFD0005FFFFD
BFD0005FFFFD
BFD0005FFFFD
BFD0005FFFFD
BFD0005FFFFD
BFDFFFDFFFFD
BFE0003FFFFD
BFFFFFFFFFFD
BFFFFFFFFFFD
BFFFFFFFFFFD
5FFFFFFFFFFD
6FFFFFFFFFFD
300000000001
0FFFFFFFFFFE
ENDCHAR
STARTCHAR 0072
ENCODING 114
SWIDTH 980 0
DWIDTH 49 0
BBX 44 35 2 0
BITMAP
7FFFFFFFFF00
8000000000C0
BFFFFFFFFE60
BFFFFFFFFFA0
BFFFFFFFFF90
BFFFFFFFFFD0
BFFFFFFFFFD0
BFE000007FD0
BFDFFFFF3FD0
BFD00000BFD0
BFD00000BFD0
BFD00000BFD0
BFD00000BFB0
BFDFFFFFBF20
BFE000007EC0
BFFFFFFFFD80
BFFFFFFFFD00
BFFFFFFFFC80
BFFFFFFFFE40
BFFFFFFFFF20
BFE000007FA0
BFDFFFFFBFD0
BFD00000BFD0
BFD00000BFD0
BFD00000BFD0
BFD00000BFD0
BFD00000BFD0
BFD00000BFD0
BFD00000BFD0
BFD00000BFD0
BFD00000BFD0
BFD00000BFD0
BFD00000BFD0
801000008010
7FE000007FE0
ENDCHAR
STARTCHAR 0073
ENCODING 115
SWIDTH 940 0
DWIDTH 47 0
BBX 43 35 2 0
BITMAP
0FFFFFFFFE00
300000000100
27FFFFFFFC80
5FFFFFFFFF40
DFFFFFFFFF60
BFFFFFFFFFA0
BFFFFFFFFFA0
BFE00000FFA0
BFCFFFFEFFA0
BFD000017FA0
BFD000010060
BFD00000FFC0
BFD000000000
BFDFFFFFFE00
BFE000000100
BFFFFFFFFC80
BFFFFFFFFF40
9FFFFFFFFF60
5FFFFFFFFFA0
27FFFFFFFFA0
30000000FFA0
0FFFFFFF7FA0
000000017FA0
7FE000017FA0
C01000017FA0
BFD000017FA0
BFEFFFFE7FA0
BFE00000FFA0
BFFFFFFFFFA0
BFFFFFFFFFA0
9FFFFFFFFF60
5FFFFFFFFF40
27FFFFFFFC80
300000000180
0FFFFFFFFE00
ENDCHAR
STARTCHAR 0074
ENCODING 116
SWIDTH 900 0
DWIDTH 45 0
BBX 42 35 1 0
BITMAP
7FFFFFFFFF80
800000000040
BFFFFFFFFF40
BFFFFFFFFF40
BFFFFFFFFF40
BFFFFFFFFF40
BFFFFFFFFF40
8000FFC00040
7FFF7FBFFF80
00017FA00000
00017FA00000
00017FA00000
00017FA00000
00017FA00000
00017FA00000
00017FA00000
00017FA00000
00017FA00000
00017FA00000
00017FA00000
00017FA00000
00017FA00000
00017FA00000
00017FA00000
00017FA00000
00017FA00000
00017FA00000
00017FA00000
00017FA00000
00017FA00000
00017FA00000
00017FA00000
00017FA00000
000100200000
0000FFC00000
ENDCHAR
STARTCHAR 0075
ENCODING 117
SWIDTH 1020 0
DWIDTH 51 0
BBX 46 35 2 0
BITMAP
7FE000001FF8
801000002004
BFD000002FF4
BFD000002FF4
BFD000002FF4
BFD000002FF4
BFD000002FF4
BFD000002FF4
BFD000002FF4
BFD000002FF4
BFD000002FF4
BFD000002FF4
BFD000002FF4
BFD000002FF4
BFD000002FF4
BFD000002FF4
BFD000002FF4
BFD000002FF4
BFD000002FF4
BFD000002FF4
BFD000002FF4
BFD000002FF4
BFD000002FF4
BFD000002FF4
BFD000002FF4
BFD000002FF4
BFDFFFFFEFF4
BFE000001FF4
BFFFFFFFFFF4
BFFFFFFFFFF4
BFFFFFFFFFE4
5FFFFFFFFFE8
6FFFFFFFFFD8
300000000030
0FFFFFFFFFC0
ENDCHAR
STARTCHAR 0076
ENCODING 118
SWIDTH 960 0
DWIDTH 48 0
BBX 49 35 -1 0
BITMAP
7FF0000007FF00
80080000080080
9FEC00001BFE80
5FF4000017FD80
5FF6000037FD00
2FFA00002FFB00
2FFB00002FFA00
17FD00004FF600
17FD00005FF400
0BFC80009FEC00
0BFE8000BFE800
05FE4001BFC800
05FF40017FD000
04FF60037F9000
02FFA002FFA000
027FB006FF2000
017FD005FF4000
013FD805FE4000
00BFC809FE8000
009FE80BFC8000
005FE413FD0000
004FF417F90000
002FF237FA0000
0027FA2FF20000
0017FB6FF40000
0013FD5FF40000
000BFDDFEC0000
0009FE3FE80000
0005FFFFD80000
0005FFFFD00000
0002FFFFB00000
0002FFFFA00000
00037FFF600000
00010000400000
0000FFFF800000
ENDCHAR
STARTCHAR 0077
ENCODING 119
SWIDTH 1420 0
DWIDTH 71 0
BBX 72 35 0 0
BITMAP
FFF00007FFE0000FFF
8008000C0030001001
BFEC000BFFD00037FD
DFF4000BFFD0002FFB
5FF4001BFFD8002FFA
4FF60013FFE8006FF2
2FFA0017FFE8005FF4
2FFA0017FFE8005FF4
37FB0037FFEC00DFEC
17FD002FFFF400BFE8
13FD002FFFF400BFC8
0BFD802FC3F401BFD0
0BFE806FDBF2017FD0
0DFE805F99FA017FB0
05FEC05FB5FA037FA0
04FE405FA5FA02FF20
02FF40DFA5F902FF40
02FF60BF24FD02FF40
037F20BF62FD04FEC0
017FA1BF42FD85FE80
013FB13F42FE85FE80
00BF917E427E89FD00
00BFD17E817E8BFD00
00DFD37E817ECBFB00
005FCAFE817F53FA00
004FEAFD81BF57FA00
006FEEFD00BF77F600
002FF1FD00BF8FF400
0027FFFD009FFFE400
0017FFFB00DFFFE800
0017FFFA005FFFE800
001BFFFA005FFFD800
000BFFF2004FFFD000
000C00040020003000
0007FFFC003FFFE000
ENDCHAR
STARTCHAR 0078
ENCODING 120
SWIDTH 960 0
DWIDTH 48 0
BBX 48 35 0 0
BITMAP
7FFE00003FFE
80010000C003
9FFC8001BFF9
CFFEC0013FF2
67FF60027FE6
37FF2004FFCC
1BFF9009FF98
0DFFD81BFF30
06FFEC37FE60
037FF46FFCC0
01BFF2DFF980
00DFF9BFFB00
006FFC7FF600
0027FFFFEC00
0013FFFFD800
0009FFFFB000
0004FFFF6000
0002FFFF4000
0006FFFF6000
000DFFFFB000
001BFFFFD800
0037FFFFEC00
006FFC3FF600
00DFF99FFB00
01BFF25FFD80
037FE46FFEC0
06FFEC37FF60
0DFFD813FFB0
1BFFB009FFD8
37FF600DFFEC
6FFE4006FFF6
CFFC80027FF3
9FF900013FF9
800300008001
7FFC00007FFE
ENDCHAR
STARTCHAR 0079
ENCODING 121
SWIDTH 940 0
DWIDTH 47 0
BBX 47 35 -1 0
BITMAP
7FFE00007FFC
80030000C002
9FFD8001BFF2
CFFE80017FF6
6FFE40027FEC
37FF2006FFD8
1BFFB00DFFB0
0DFFD00BFF20
06FFC813FE40
037FE437FC80
01BFF66FF900
00DFFA5FFB00
004FFD9FF600
0027FC3FEC00
0013FFFFD800
0009FFFF9000
0004FFFF2000
00027FFE4000
00013FFC8000
00009FFD8000
00005FFB0000
00006FF60000
00002FF40000
00002FF40000
00002FF40000
00002FF40000
00002FF40000
00002FF40000
00002FF40000
00002FF40000
00002FF40000
00002FF40000
00002FF40000
000020040000
00001FF80000
ENDCHAR
STARTCHAR 007A
ENCODING 122
SWIDTH 940 0
DWIDTH 47 0
BBX 43 35 2 0
BITMAP
7FFFFFFFFFC0
800000000020
BFFFFFFFFFA0
BFFFFFFFFFA0
BFFFFFFFFFA0
BFFFFFFFFFA0
BFFFFFFFFFA0
800001FFFFA0
7FFFFEFFFF60
000006FFFEC0
00000CFFF980
000033FFF300
000067FFEC00
0000CFFF9800
00019FFF3000
00067FFE6000
000CFFFD8000
0019FFF30000
0037FFE60000
00CFFFCC0000
019FFF300000
033FFE600000
04FFFCC00000
19FFFB800000
33FFE6000000
6FFFEC000000
9FFFEFFFFFC0
BFFFF0000020
BFFFFFFFFFA0
BFFFFFFFFFA0
BFFFFFFFFFA0
BFFFFFFFFFA0
BFFFFFFFFFA0
800000000020
7FFFFFFFFFC0
ENDCHAR
STARTCHAR 007B
ENCODING 123
SWIDTH 500 0
DWIDTH 25 0
BBX 18 46 4 -10
BITMAP
001FC0
00FFC0
01FFC0
01FFC0
03FFC0
03FFC0
03FC00
03F800
03F800
03F800
03F800
03F800
03F800
03F800
03F800
03F800
03F800
03F800
07F800
0FF800
FFF000
FFE000
FFC000
FF8000
FFE000
FFF000
0FF800
07F800
03F800
03F800
03F800
03F800
03F800
03F800
03F800
03F800
03F800
03F800
03F800
03FC00
03FFC0
03FFC0
01FFC0
01FFC0
00FFC0
003FC0
ENDCHAR
STARTCHAR 007C
ENCODING 124
SWIDTH 500 0
DWIDTH 25 0
BBX 6 50 10 -12
BITMAP
FC
FC
FC
FC
FC
FC
FC
FC
FC
FC
FC
FC
FC
FC
FC
FC
FC
FC
FC
FC
FC
FC
FC
FC
FC
FC
FC
FC
FC
FC
FC
FC
FC
FC
FC
FC
FC
FC
FC
FC
FC
FC
FC
FC
FC
FC
FC
FC
FC
FC
ENDCHAR
STARTCHAR 007D
ENCODING 125
SWIDTH 500 0
DWIDTH 25 0
BBX 18 46 3 -10
BITMAP
FE0000
FFC000
FFE000
FFE000
FFF000
FFF000
0FF000
07F000
07F000
07F000
07F000
07F000
07F000
07F000
07F000
07F000
07F000
07F000
07F800
07FC00
03FFC0
01FFC0
00FFC0
007FC0
01FFC0
03FFC0
07FC00
07F800
07F000
07F000
07F000
07F000
07F000
07F000
07F000
07F000
07F000
07F000
07F000
0FF000
FFF000
FFF000
FFE000
FFE000
FFC000
FF0000
ENDCHAR
STARTCHAR 007E
ENCODING 126
SWIDTH 840 0
DWIDTH 42 0
BBX 33 10 4 10
BITMAP
03FC000180
1FFF800380
7FFFF81F80
FFFFFFFF80
FFFFFFFF80
FFFFFFFF80
FC07FFFF00
F0007FFC00
C0000FE000
8000000000
ENDCHAR
STARTCHAR 0080
ENCODING 128
SWIDTH 980 0
DWIDTH 49 0
BBX 48 35 -1 0
BITMAP
00FFFFFFFFE0
010000000018
027FFFFFFFE4
05FFFFFFFFF2
05FFFFFFFFFA
0BFFFFFFFFFD
0BFFFFFFFFFD
0BFE00003FFD
0BFDFFFF9FFD
0BFD00006001
0BFD00003FFE
0BFD00000000
7BFDFFE00000
C3FC00200000
BFFFFFE00000
BFFFFFE00000
83FC00200000
7BFDFFE00000
0BFD00000000
FFFFFFE00000
BFFFFFA00000
83FC00600000
FBFDFFC00000
0BFD00000000
0BFD00003FFE
0BFD00004001
0BFDFFFFDFFD
0BFE00003FFD
0BFFFFFFFFFD
0BFFFFFFFFFD
05FFFFFFFFFA
05FFFFFFFFF2
027FFFFFFFE4
010000000018
00FFFFFFFFE0
ENDCHAR
STARTCHAR 00A0
ENCODING 160
SWIDTH 980 0
DWIDTH 49 0
BBX 0 0 0 0
BITMAP
ENDCHAR
STARTCHAR 00A1
ENCODING 161
SWIDTH 360 0
DWIDTH 18 0
BBX 13 35 2 0
BITMAP
7FF0
8008
BFE8
BFE8
BFE8
BFE8
BFE8
BFE8
8008
7FF0
0000
7FF0
8008
BFE8
BFE8
BFE8
BFE8
BFE8
BFE8
BFE8
BFE8
BFE8
BFE8
BFE8
BFE8
BFE8
BFE8
BFE8
BFE8
BFE8
BFE8
BFE8
BFE8
8008
7FF0
ENDCHAR
STARTCHAR 00A2
ENCODING 162
SWIDTH 860 0
DWIDTH 43 0
BBX 38 48 2 -7
BITMAP
0003FE0000
0002010000
0006FD0000
0006FD0000
0006FD0000
0006FD0000
0FFCFDFFC0
3001FE0060
27FFFFFF90
5FFFFFFFE8
DFFFFFFFEC
BFFFFFFFF4
BFFFFFFFF4
BFF0003FF4
BFEFFFBFF4
BFD0005FF4
BFD000400C
BFD0003FF8
BFD0000000
BFD0000000
BFD0000000
BFD0000000
BFD0000000
BFD0000000
BFD0000000
BFD0000000
BFD0000000
BFD0000000
BFD0000000
BFD0003FF8
BFD000400C
BFD0005FF4
BFCFFF9FF4
BFF0003FF4
BFFFFFFFF4
BFFFFFFFF4
9FFFFFFFEC
5FFFFFFFE8
27FFFFFF90
3001FE0060
0FFEFDFFC0
0002FD0000
0002FD0000
0002FD0000
0002FD0000
0002FD0000
0002010000
0001FE0000
ENDCHAR
STARTCHAR 00A3
ENCODING 163
SWIDTH 940 0
DWIDTH 47 0
BBX 42 35 3 0
BITMAP
007FFFFFFC00
018000000600
033FFFFFF980
02FFFFFFFE80
05FFFFFFFE40
05FFFFFFFF40
05FFFFFFFF40
05FF0003FF40
05FEFFFDFF40
05FE80060040
05FE8003FF80
05FE80000000
05FE80000000
05FE80000000
05FE80000000
7DFEFFF00000
83FF00080000
BFFFFFE80000
BFFFFFE80000
BFFFFFE80000
83FF00080000
7DFEFFF00000
05FE80000000
05FE80000000
05FE80000000
05FE80000000
7DFEFFFFFF80
83FF00000040
BFFFFFFFFF40
BFFFFFFFFF40
BFFFFFFFFF40
BFFFFFFFFF40
BFFFFFFFFF40
800000000040
7FFFFFFFFF80
ENDCHAR
STARTCHAR 00A4
ENCODING 164
SWIDTH 980 0
DWIDTH 49 0
BBX 48 35 -1 0
BITMAP
00FFFFFFFFE0
010000000018
027FFFFFFFE4
05FFFFFFFFF2
05FFFFFFFFFA
0BFFFFFFFFFD
0BFFFFFFFFFD
0BFE00003FFD
0BFDFFFF9FFD
0BFD00006001
0BFD00003FFE
0BFD00000000
7BFDFFE00000
C3FC00200000
BFFFFFE00000
BFFFFFE00000
83FC00200000
7BFDFFE00000
0BFD00000000
FFFFFFE00000
BFFFFFA00000
83FC00600000
FBFDFFC00000
0BFD00000000
0BFD00003FFE
0BFD00004001
0BFDFFFFDFFD
0BFE00003FFD
0BFFFFFFFFFD
0BFFFFFFFFFD
05FFFFFFFFFA
05FFFFFFFFF2
027FFFFFFFE4
010000000018
00FFFFFFFFE0
ENDCHAR
STARTCHAR 00A5
ENCODING 165
SWIDTH 940 0
DWIDTH 47 0
BBX 46 35 0 0
BITMAP
7FFE0000FFF8
800100010004
BFFC80027FF4
DFFE8002FFEC
6FFF4005FFD8
37FF600BFFB0
1BFFA01BFF20
0DFFD017FE40
06FFD82FFC80
037FE86FF900
01BFE4DFFA00
00DFF4BFF400
006FFB3FE800
0037F87FD800
001BFFFFB000
000DFFFF6000
0006FFFEC000
0002FFFE8000
03FEFFFEFF00
0401FFFF0080
05FFFFFFFE80
05FFFFFFFE80
05FFFFFFFE80
04003FF00080
03FFDFEFFF00
00005FE80000
00005FE80000
00005FE80000
00005FE80000
00005FE80000
00005FE80000
00005FE80000
00005FE80000
000040080000
00003FF00000
ENDCHAR
STARTCHAR 00A6
ENCODING 166
SWIDTH 500 0
DWIDTH 25 0
BBX 6 44 10 -9
BITMAP
FC
FC
FC
FC
FC
FC
FC
FC
FC
FC
FC
FC
FC
FC
FC
FC
FC
FC
FC
00
00
00
00
00
00
FC
FC
FC
FC
FC
FC
FC
FC
FC
FC
FC
FC
FC
FC
FC
FC
FC
FC
FC
ENDCHAR
STARTCHAR 00A7
ENCODING 167
SWIDTH 780 0
DWIDTH 39 0
BBX 34 42 2 -7
BITMAP
00FFFFC000
0180003000
067FFFD800
05FFFFEC00
09FFFFF400
0BFFFFF400
0BFF0FF400
0BFEF7F400
0BFE97F400
0BFC980400
0DFECFF800
04FE380000
06FF870000
067FF0E000
1CFFFE1C00
33FFFFE300
6FC7FFFD80
5F987FFE80
BFBF0FFF40
BFA0F1FF40
BFB01E7F40
BF9E037F40
BFE3C17F40
BFFC3D7F40
5FFF867E80
67FFF8FC80
30FFFFF300
0E1FFFCE00
01C3FFD800
00387FD800
00071FC800
1FF0CFEC00
20102FF400
4FE82FF400
4FEFDFF400
4FF03FF400
4FFFFFF400
6FFFFFE400
27FFFFE800
13FFFF9800
0C00003000
03FFFFC000
ENDCHAR
STARTCHAR 00A8
ENCODING 168
SWIDTH 500 0
DWIDTH 25 0
BBX 20 9 3 38
BITMAP
7F9FE0
806010
BF6FD0
BF6FD0
BF6FD0
BF6FD0
BF6FD0
806010
7F9FE0
ENDCHAR
STARTCHAR 00A9
ENCODING 169
SWIDTH 840 0
DWIDTH 42 0
BBX 36 36 3 0
BITMAP
0003FC0000
001FFF8000
007FFFE000
01FC03F800
03E0007C00
07C0003E00
0F00000F00
1E01F80780
1C0FFE0380
3C1FFF83C0
383FFF81C0
783F1FC0E0
707E0FC0E0
707E07E0E0
E0FC000070
E0FC000070
E0FC000070
E0FC000070
E0FC000070
E0FC000070
E0FC000070
E0FC07E070
707E07E0E0
707E0FE0E0
787F0FC0E0
383FFFC1C0
3C1FFF83C0
1C0FFF0380
1E03F80780
0F00000F00
07C0003E00
03F0007C00
01FC03F800
007FFFE000
001FFF8000
0003FC0000
ENDCHAR
STARTCHAR 00AA
ENCODING 170
SWIDTH 680 0
DWIDTH 34 0
BBX 34 21 0 14
BITMAP
000FFE0000
0010020000
002FFD0000
002FFF0000
005FFE8000
007F3F4000
00BEDF4000
017D3FA000
01FD2FE000
02FA17D000
05F40BE800
05F7FBE800
0BF003F400
0FFFFFFC00
17FFFFFA00
2FFFFFFD00
3F80007F00
5FBFFF7E80
BF4000BF80
8080004040
FF00003FC0
ENDCHAR
STARTCHAR 00AB
ENCODING 171
SWIDTH 620 0
DWIDTH 31 0
BBX 27 20 1 3
BITMAP
03F81FC0
06043020
0DF46FA0
09E44F20
13E89F40
37D1BEC0
2F917C80
4FA27D00
DF66FB00
BE45F200
BE45F200
9F66FB00
4FA27D00
2F917C80
37D1BEC0
13E89F40
09E44F20
0DF46FA0
06043020
03F81FC0
ENDCHAR
STARTCHAR 00AC
ENCODING 172
SWIDTH 840 0
DWIDTH 42 0
BBX 29 12 6 9
BITMAP
FFFFFFF8
FFFFFFF8
FFFFFFF8
FFFFFFF8
FFFFFFF8
FFFFFFF8
000001F8
000001F8
000001F8
000001F8
000001F8
000001F8
ENDCHAR
STARTCHAR 00AD
ENCODING 173
SWIDTH 380 0
DWIDTH 19 0
BBX 14 10 2 13
BITMAP
7FF8
8004
BFF4
BFF4
BFF4
BFF4
BFF4
BFF4
8004
7FF8
ENDCHAR
STARTCHAR 00AE
ENCODING 174
SWIDTH 840 0
DWIDTH 42 0
BBX 36 36 3 0
BITMAP
0003FC0000
001FFF8000
007FFFE000
01FC03F800
03E0007C00
07C0003E00
0F00000F00
1E00000780
1C1FFE0380
3C1FFF83C0
381FFFC1C0
701FFFE0E0
701F8FE0E0
701F87E0E0
E01F87E070
E01F8FE070
E01FFFC070
E01FFF8070
E01FFF0070
E01FFE0070
E01FBE0070
E01F9F0070
701F9F80E0
701F8F80E0
701F8FC0E0
381F8FC1C0
3C1F87E3C0
1C00000380
1E00000780
0F00000F00
07C0003E00
03E0007C00
01FC03F800
007FFFE000
001FFF8000
0003FC0000
ENDCHAR
STARTCHAR 00AF
ENCODING 175
SWIDTH 500 0
DWIDTH 25 0
BBX 20 7 3 39
BITMAP
7FFFE0
800010
BFFFD0
BFFFD0
BFFFD0
800010
7FFFE0
ENDCHAR
STARTCHAR 00B0
ENCODING 176
SWIDTH 320 0
DWIDTH 16 0
BBX 15 15 1 21
BITMAP
07C0
1FF0
3FF8
7FFC
7C7C
F83E
F01E
F01E
F01E
F83E
7C7C
7FFC
3FF8
1FF0
07C0
ENDCHAR
STARTCHAR 00B1
ENCODING 177
SWIDTH 840 0
DWIDTH 42 0
BBX 30 31 6 0
BITMAP
000FC000
000FC000
000FC000
000FC000
000FC000
000FC000
000FC000
000FC000
FFFFFFFC
FFFFFFFC
FFFFFFFC
FFFFFFFC
FFFFFFFC
FFFFFFFC
000FC000
000FC000
000FC000
000FC000
000FC000
000FC000
000FC000
000FC000
00000000
00000000
00000000
FFFFFFFC
FFFFFFFC
FFFFFFFC
FFFFFFFC
FFFFFFFC
FFFFFFFC
ENDCHAR
STARTCHAR 00B2
ENCODING 178
SWIDTH 620 0
DWIDTH 31 0
BBX 28 21 2 14
BITMAP
1FFFFF80
60000060
5FFFFFA0
BFFFFFD0
BFFFFFD0
800007D0
FFFFF7D0
000017D0
003FEFD0
1FC1FFD0
607FFFD0
DFFFFFA0
BFFF01C0
BE7CFE00
BEFFFFE0
BE000010
BFFFFFD0
BFFFFFD0
BFFFFFD0
80000010
7FFFFFE0
ENDCHAR
STARTCHAR 00B3
ENCODING 179
SWIDTH 600 0
DWIDTH 30 0
BBX 27 21 1 14
BITMAP
1FFFFE00
60000180
5FFFFE80
BFFFFF40
BFFFFF40
C0000F40
FFFFEF40
001FEF40
00201E80
002FFF00
002FFE80
002FFE40
00201FA0
FF1FEFA0
81FFEFA0
BE000FA0
BFFFFFA0
BFFFFFA0
DFFFFF40
600000C0
1FFFFF00
ENDCHAR
STARTCHAR 00B4
ENCODING 180
SWIDTH 500 0
DWIDTH 25 0
BBX 16 11 6 37
BITMAP
03FE
0601
0DFD
09F3
13E6
27C8
4FB0
DE60
BCC0
8100
7E00
ENDCHAR
STARTCHAR 00B5
ENCODING 181
SWIDTH 640 0
DWIDTH 32 0
BBX 32 38 -1 -11
BITMAP
03FC01FF
03FC01FF
07FC01FF
07FC01FE
07FC03FE
07FC03FE
07FC03FE
07F803FE
0FF803FE
0FF803FC
0FF807FC
0FF807FC
0FF807FC
0FF007FC
0FF007FC
1FF007FC
1FF00FF8
1FF00FF8
1FF81FF8
1FFC3FF8
1FFFFFF8
3FFFFFF8
3FFFFFF0
3FFFFFF0
3FFFFFF0
3FCFEFF0
3FC78FF0
3FC00000
7FC00000
7FC00000
7FC00000
7FC00000
7F800000
7F800000
7F800000
FF800000
FF800000
FF800000
ENDCHAR
STARTCHAR 00B6
ENCODING 182
SWIDTH 500 0
DWIDTH 25 0
BBX 24 36 1 0
BITMAP
03FFFF
0FFFFF
3FFFFF
3FF878
7FF878
FFF878
FFF878
FFF878
FFF878
FFF878
FFF878
FFF878
7FF878
3FF878
3FF878
0FF878
03F878
007878
007878
007878
007878
007878
007878
007878
007878
007878
007878
007878
007878
007878
007878
007878
007878
007878
007878
007878
ENDCHAR
STARTCHAR 00B7
ENCODING 183
SWIDTH 340 0
DWIDTH 17 0
BBX 12 10 2 13
BITMAP
7FE0
8010
BFD0
BFD0
BFD0
BFD0
BFD0
BFD0
8010
7FE0
ENDCHAR
STARTCHAR 00B8
ENCODING 184
SWIDTH 500 0
DWIDTH 25 0
BBX 19 13 3 -13
BITMAP
03FF80
060040
05FF60
05FFA0
05FFA0
0607A0
7FF7A0
C007A0
BFFFA0
BFFFA0
BFFF60
C00040
7FFF80
ENDCHAR
STARTCHAR 00B9
ENCODING 185
SWIDTH 280 0
DWIDTH 14 0
BBX 12 21 1 14
BITMAP
1FE0
2010
5FD0
5FD0
BFD0
9FD0
EFD0
2FD0
2FD0
2FD0
2FD0
2FD0
2FD0
2FD0
2FD0
2FD0
2FD0
2FD0
2FD0
2010
1FE0
ENDCHAR
STARTCHAR 00BA
ENCODING 186
SWIDTH 640 0
DWIDTH 32 0
BBX 29 21 1 14
BITMAP
1FFFFFC0
60000030
5FFFFFD0
BFFFFFE8
BFFFFFE8
BF8007E8
BF7FFBE8
BF400BE8
BF400BE8
BF400BE8
BF400BE8
BF400BE8
BF400BE8
BF400BE8
BF7FFBE8
BF8007E8
BFFFFFE8
BFFFFFE8
5FFFFFD0
60000030
1FFFFFC0
ENDCHAR
STARTCHAR 00BB
ENCODING 187
SWIDTH 620 0
DWIDTH 31 0
BBX 27 20 2 3
BITMAP
7F03F800
81840C00
BEC5F600
9E44FA00
5F22F900
6FB17D80
27D13E80
17C8BE40
1BECDF20
09F44FA0
09F44FA0
1BECDF60
17C8BE40
27D13E80
6FB17D80
5F22F900
9E44FA00
BEC5F600
81840C00
7F03F800
ENDCHAR
STARTCHAR 00BC
ENCODING 188
SWIDTH 1020 0
DWIDTH 51 0
BBX 49 35 1 0
BITMAP
3FC03FE0000000
20204020000000
5FA05FA0000000
7FA0DFA0000000
BFA0BF40000000
9FA0BF40000000
EFA1BF40000000
2FA17E80000000
2FA17E80000000
2FA27F80000000
2FA2FD00000000
2FA2FD00000000
2FA5FA00000000
2FA5FA00000000
2FA5FA00000000
2FABF400000000
2FABF4007FF000
203BF400C00800
3FD7E801FFE800
0017E807FFE800
0037F00FFFE800
002FD03FE7E800
002FD05FDBE800
006FA1FF6BE800
005FA6FE8BE800
005FA5FB0BE800
00BF45F7FBEF00
00BF45F007F080
00BF45FFFFFE80
017E85FFFFFE80
017E85FFFFFE80
017F040007F080
02FD03FFFBEF00
02010000080800
03FE000007F000
ENDCHAR
STARTCHAR 00BD
ENCODING 189
SWIDTH 1020 0
DWIDTH 51 0
BBX 48 35 1 0
BITMAP
3FC03FE00000
202060200000
5FA05FA00000
7FA05FA00000
BFA0BF400000
9FA0BF400000
EFA1BF400000
2FA17E800000
2FA17E800000
2FA27D800000
2FA2FD000000
2FA2FD000000
2FA5FA000000
2FA5FA000000
2FADFA000000
2FABF4000000
2FABF4FFFFFC
2033E7000002
3FD7EAFFFFFD
0017EAFFFFFD
002FDAFFFFFD
002FD200007D
006FD3FFFF7D
005FA0001F7D
005FA0FFEFFD
00DF2103FFFE
00BF427FFFF4
00BF42FC3E08
017EC2FBFFFE
017E82F80001
037E82FFFFFD
02FD02FFFFFD
02FD02FFFFFD
020302000001
01FE01FFFFFE
ENDCHAR
STARTCHAR 00BE
ENCODING 190
SWIDTH 1340 0
DWIDTH 67 0
BBX 65 35 1 0
BITMAP
3FFFFE007F80000000
600001004040000000
DFFFFD809F40000000
BFFFFE80BF40000000
BFFFFE81BE80000000
C0001E813E80000000
FFFFDE817E80000000
00403E837D00000000
005FFD02FD00000000
005FFE02FD00000000
005FFF86FA00000000
00403F45FA00000000
FFFFDF45FE00000000
C0001F49F400000000
BFFFFF4BF400000000
BFFFFF5BE800000000
BFFFFF57E8007FF000
C00000D7E800C00800
3FFFFF37D001FFE800
0000002FD007FFE800
0000002FD00FFFE800
0000005FA03FE7E800
0000005FA07FDBE800
000000DF61FF6BE800
000000BF47FE8BE800
000000BF45FB0BE800
000001FE85F7FBEF00
0000017E85F007F080
0000017E85FFFFFE80
000002FD05FFFFFE80
000002FD05FFFFFE80
000002FD040007F080
000005FA03FFFBEF00
000004020000080800
000007FC000007F000
ENDCHAR
STARTCHAR 00BF
ENCODING 191
SWIDTH 780 0
DWIDTH 39 0
BBX 36 35 2 0
BITMAP
0001FFC000
0002002000
0002FFA000
0002FFA000
0002FFA000
0002FFA000
0002FFA000
0002FFA000
0002002000
0001FFC000
0000000000
0000FF8000
000100C000
00027F4000
0FFEFF4000
3000FF4000
67FFFF4000
5FFFFE4000
BFFFFE8000
BFFFF98000
BFE0060000
BFCFFC0000
BFD0000000
BFD0003FE0
BFD0004030
BFD0005FD0
BFCFFFDFD0
BFE0003FD0
BFFFFFFFD0
BFFFFFFFD0
BFFFFFFFD0
5FFFFFFFA0
67FFFFFE60
30000000C0
0FFFFFFF00
ENDCHAR
STARTCHAR 00C0
ENCODING 192
SWIDTH 1020 0
DWIDTH 51 0
BBX 52 48 -1 0
BITMAP
00003FE0000000
00004030000000
00005FD8000000
000067C8000000
000033E4000000
000009F2000000
000004F9000000
0000033D800000
0000019E800000
00000040800000
0000003F000000
00000000000000
00000000000000
00007FFFE00000
0000C000300000
00009FFFD00000
0001BFFFC80000
00013FFFE80000
00037FFFE40000
0002FFFFF40000
0006FF0FF20000
0005FF6FFB0000
0009FEF7F90000
000BFC97FD8000
0013FD8BFE8000
0017F909FEC000
002FFA05FF4000
006FF204FF2000
005FF402FFA000
00DFE4027F9000
00BFE8017FD000
01BFD801BFC800
017FD000BFE800
027FDFFFBFF400
02FFC0003FF400
05FFFFFFFFFA00
05FFFFFFFFFB00
0BFFFFFFFFFD00
1BFFFFFFFFFD80
17FFFFFFFFFE80
37FC000003FEC0
2FFBFFFFFDFF40
7FF6000006FF20
5FF4000002FFA0
BFE40000027FD0
BFEC0000037FD0
80080000010010
FFF0000000FFF0
ENDCHAR
STARTCHAR 00C1
ENCODING 193
SWIDTH 1020 0
DWIDTH 51 0
BBX 52 48 -1 0
BITMAP
0000003FE00000
00000060100000
000000DFD00000
0000009F300000
0000013E600000
0000027C800000
000004FB000000
00000DE6000000
00000BCC000000
00000810000000
000007E0000000
00000000000000
00000000000000
00007FFFE00000
0000C000300000
00009FFFD00000
0001BFFFC80000
00013FFFE80000
00037FFFE40000
0002FFFFF40000
0006FF0FF20000
0005FF6FFB0000
0009FEF7F90000
000BFC97FD8000
0013FD8BFE8000
0017F909FEC000
002FFA05FF4000
006FF204FF2000
005FF402FFA000
00DFE4027F9000
00BFE8017FD000
01BFD801BFC800
017FD000BFE800
027FDFFFBFF400
02FFC0003FF400
05FFFFFFFFFA00
05FFFFFFFFFB00
0BFFFFFFFFFD00
1BFFFFFFFFFD80
17FFFFFFFFFE80
37FC000003FEC0
2FFBFFFFFDFF40
7FF6000006FF20
5FF4000002FFA0
BFE40000027FD0
BFEC0000037FD0
80080000010010
FFF0000000FFF0
ENDCHAR
STARTCHAR 00C2
ENCODING 194
SWIDTH 1020 0
DWIDTH 51 0
BBX 52 48 -1 0
BITMAP
000003FE000000
00000401000000
000009FC800000
00001BFEC00000
000017FE400000
000027FF200000
00004F8F900000
0000DE73D80000
0000BCD9E80000
00008306080000
00007E03F00000
00000000000000
00000000000000
00007FFFE00000
0000C000300000
00009FFFD00000
0001BFFFC80000
00013FFFE80000
00037FFFE40000
0002FFFFF40000
0006FF0FF20000
0005FF6FFB0000
0009FEF7F90000
000BFC97FD8000
0013FD8BFE8000
0017F909FEC000
002FFA05FF4000
006FF204FF2000
005FF402FFA000
00DFE4027F9000
00BFE8017FD000
01BFD801BFC800
017FD000BFE800
027FDFFFBFF400
02FFC0003FF400
05FFFFFFFFFA00
05FFFFFFFFFB00
0BFFFFFFFFFD00
1BFFFFFFFFFD80
17FFFFFFFFFE80
37FC000003FEC0
2FFBFFFFFDFF40
7FF6000006FF20
5FF4000002FFA0
BFE40000027FD0
BFEC0000037FD0
80080000010010
FFF0000000FFF0
ENDCHAR
STARTCHAR 00C3
ENCODING 195
SWIDTH 1020 0
DWIDTH 51 0
BBX 52 47 -1 0
BITMAP
00000001F80000
000007F3080000
0000180EE80000
000033E0E80000
00004FFFD80000
0000DFFF900000
0000BC3F200000
0000BB80C00000
0000867F800000
00007C00000000
00000000000000
00000000000000
00007FFFE00000
0000C000300000
00009FFFD00000
0001BFFFC80000
00013FFFE80000
00037FFFE40000
0002FFFFF40000
0006FF0FF20000
0005FF6FFB0000
0009FEF7F90000
000BFC97FD8000
0013FD8BFE8000
0017F909FEC000
002FFA05FF4000
006FF204FF2000
005FF402FFA000
00DFE4027F9000
00BFE8017FD000
01BFD801BFC800
017FD000BFE800
027FDFFFBFF400
02FFC0003FF400
05FFFFFFFFFA00
05FFFFFFFFFB00
0BFFFFFFFFFD00
1BFFFFFFFFFD80
17FFFFFFFFFE80
37FC000003FEC0
2FFBFFFFFDFF40
7FF6000006FF20
5FF4000002FFA0
BFE40000027FD0
BFEC0000037FD0
80080000010010
FFF0000000FFF0
ENDCHAR
STARTCHAR 00C4
ENCODING 196
SWIDTH 1020 0
DWIDTH 51 0
BBX 52 47 -1 0
BITMAP
00003FCFF00000
00004030080000
00005FB7E80000
00005FB7E80000
00005FB7E80000
00005FB7E80000
00005FB7E80000
00004030080000
00003FCFF00000
00000000000000
00000000000000
00000000000000
00007FFFE00000
0000C000300000
00009FFFD00000
0001BFFFC80000
00013FFFE80000
00037FFFE40000
0002FFFFF40000
0006FF0FF20000
0005FF6FFB0000
0009FEF7F90000
000BFC97FD8000
0013FD8BFE8000
0017F909FEC000
002FFA05FF4000
006FF204FF2000
005FF402FFA000
00DFE4027F9000
00BFE8017FD000
01BFD801BFC800
017FD000BFE800
027FDFFFBFF400
02FFC0003FF400
05FFFFFFFFFA00
05FFFFFFFFFB00
0BFFFFFFFFFD00
1BFFFFFFFFFD80
17FFFFFFFFFE80
37FC000003FEC0
2FFBFFFFFDFF40
7FF6000006FF20
5FF4000002FFA0
BFE40000027FD0
BFEC0000037FD0
80080000010010
FFF0000000FFF0
ENDCHAR
STARTCHAR 00C5
ENCODING 197
SWIDTH 1020 0
DWIDTH 51 0
BBX 52 50 -1 0
BITMAP
000003FC000000
00000C03000000
000013F8800000
000027FE400000
00006E0F600000
00005DF7A00000
00005D17A00000
00005D17A00000
00005DF7A00000
00006E0F600000
000027FE400000
000013FC800000
00000C03000000
000003FC000000
00000000000000
00003FFFE00000
00004000300000
0000DFFFD00000
0000BFFFD80000
00013FFFE80000
00017FFFEC0000
0002FFFFF40000
0002FE0FF20000
0005FEEFFA0000
000DFDB7F90000
000BFD17FD0000
001BFB1BFC8000
0017FB0BFE8000
0027FA0DFF4000
002FF604FF6000
005FF406FFA000
005FEC027FB000
00BFE8037FD000
01BFD801BFC800
017FD000BFE800
037FDFFFBFE400
02FFC0003FF400
05FFFFFFFFFA00
05FFFFFFFFFA00
0BFFFFFFFFFD00
0BFFFFFFFFFD80
17FFFFFFFFFE80
37FC000003FEC0
2FF9FFFFF9FF40
6FFA000004FF20
5FF6000006FFA0
BFF4000002FFD0
BFE40000027FD0
80080000010010
FFF0000000FFF0
ENDCHAR
STARTCHAR 00C6
ENCODING 198
SWIDTH 1440 0
DWIDTH 72 0
BBX 71 35 -1 0
BITMAP
0000000FFFFFFFFFFC
000000300000000002
0000006FFFFFFFFFFA
000000DFFFFFFFFFFA
000000BFFFFFFFFFFA
0000017FFFFFFFFFFA
000002FFFFFFFFFFFA
000004FCFFC0000002
000009FB7FBFFFFFFC
00001BF77FA0000000
000037E57FA0000000
00006FED7FA0000000
00005FD97FA0000000
0000BF917FBFFFFFFC
00017FB17FC0000002
00027F617FFFFFFFFA
0006FF417FFFFFFFFA
000DFEC17FFFFFFFFA
001BFC817FFFFFFFFA
0017FD817FFFFFFFFA
002FFCFF7FC0000002
005FFE00FFBFFFFFFC
00BFFFFFFFA0000000
013FFFFFFFA0000000
037FFFFFFFA0000000
06FFFFFFFFA0000000
05FFFFFFFFBFFFFFFC
0BFE0000FFC0000002
17F9FFFF7FFFFFFFFA
2FFB00017FFFFFFFFA
4FF200017FFFFFFFFA
DFF400017FFFFFFFFA
BFEC00017FFFFFFFFA
801800010000000002
FFF00000FFFFFFFFFC
ENDCHAR
STARTCHAR 00C7
ENCODING 199
SWIDTH 960 0
DWIDTH 48 0
BBX 44 48 2 -13
BITMAP
0FFFFFFFFF00
3000000000C0
6FFFFFFFFE60
5FFFFFFFFFA0
BFFFFFFFFF90
BFFFFFFFFFD0
BFFFFFFFFFD0
BFE00000FFD0
BFCFFFFE7FD0
BFD000017FD0
BFD000018030
BFD00000FFE0
BFD000000000
BFD000000000
BFD000000000
BFD000000000
BFD000000000
BFD000000000
BFD000000000
BFD000000000
BFD000000000
BFD000000000
BFD000000000
BFD00000FFE0
BFD000010030
BFD000017FD0
BFCFFFFE7FD0
BFE00000FFD0
BFFFFFFFFFD0
BFFFFFFFFFD0
BFFFFFFFFF90
5FFFFFFFFFA0
6FFFFFFFFE60
3000000000C0
0FFFFFFFFF00
00001FFC0000
000030020000
00002FFB0000
00002FFD0000
00002FFD0000
0000303D0000
0003FFBD0000
0006003D0000
0005FFFD0000
0005FFFD0000
0005FFFB0000
000600020000
0003FFFC0000
ENDCHAR
STARTCHAR 00C8
ENCODING 200
SWIDTH 900 0
DWIDTH 45 0
BBX 40 48 2 0
BITMAP
000FF80000
00100C0000
0017F60000
0019F20000
000CF90000
00027C8000
00013E4000
0000CF6000
000067A000
0000102000
00000FC000
0000000000
0000000000
7FFFFFFFFE
8000000001
BFFFFFFFFD
BFFFFFFFFD
BFFFFFFFFD
BFFFFFFFFD
BFFFFFFFFD
BFE0000001
BFDFFFFFFE
BFD0000000
BFD0000000
BFD0000000
BFD0000000
BFDFFFFFFE
BFE0000001
BFFFFFFFFD
BFFFFFFFFD
BFFFFFFFFD
BFFFFFFFFD
BFFFFFFFFD
BFE0000001
BFDFFFFFFE
BFD0000000
BFD0000000
BFD0000000
BFD0000000
BFDFFFFFFE
BFE0000001
BFFFFFFFFD
BFFFFFFFFD
BFFFFFFFFD
BFFFFFFFFD
BFFFFFFFFD
8000000001
7FFFFFFFFE
ENDCHAR
STARTCHAR 00C9
ENCODING 201
SWIDTH 900 0
DWIDTH 45 0
BBX 40 48 2 0
BITMAP
00000FF800
0000180400
000037F400
000027CC00
00004F9800
00009F2000
00013EC000
0003798000
0002F30000
0002040000
0001F80000
0000000000
0000000000
7FFFFFFFFE
8000000001
BFFFFFFFFD
BFFFFFFFFD
BFFFFFFFFD
BFFFFFFFFD
BFFFFFFFFD
BFE0000001
BFDFFFFFFE
BFD0000000
BFD0000000
BFD0000000
BFD0000000
BFDFFFFFFE
BFE0000001
BFFFFFFFFD
BFFFFFFFFD
BFFFFFFFFD
BFFFFFFFFD
BFFFFFFFFD
BFE0000001
BFDFFFFFFE
BFD0000000
BFD0000000
BFD0000000
BFD0000000
BFDFFFFFFE
BFE0000001
BFFFFFFFFD
BFFFFFFFFD
BFFFFFFFFD
BFFFFFFFFD
BFFFFFFFFD
8000000001
7FFFFFFFFE
ENDCHAR
STARTCHAR 00CA
ENCODING 202
SWIDTH 900 0
DWIDTH 45 0
BBX 40 48 2 0
BITMAP
0000FF8000
0001004000
00027F2000
0006FFB000
0005FF9000
0009FFC800
0013E3E400
00379CF600
002F367A00
0020C18200
001F80FC00
0000000000
0000000000
7FFFFFFFFE
8000000001
BFFFFFFFFD
BFFFFFFFFD
BFFFFFFFFD
BFFFFFFFFD
BFFFFFFFFD
BFE0000001
BFDFFFFFFE
BFD0000000
BFD0000000
BFD0000000
BFD0000000
BFDFFFFFFE
BFE0000001
BFFFFFFFFD
BFFFFFFFFD
BFFFFFFFFD
BFFFFFFFFD
BFFFFFFFFD
BFE0000001
BFDFFFFFFE
BFD0000000
BFD0000000
BFD0000000
BFD0000000
BFDFFFFFFE
BFE0000001
BFFFFFFFFD
BFFFFFFFFD
BFFFFFFFFD
BFFFFFFFFD
BFFFFFFFFD
8000000001
7FFFFFFFFE
ENDCHAR
STARTCHAR 00CB
ENCODING 203
SWIDTH 900 0
DWIDTH 45 0
BBX 40 47 2 0
BITMAP
000FF3FC00
00100C0200
0017EDFA00
0017EDFA00
0017EDFA00
0017EDFA00
0017EDFA00
00100C0200
000FF3FC00
0000000000
0000000000
0000000000
7FFFFFFFFE
8000000001
BFFFFFFFFD
BFFFFFFFFD
BFFFFFFFFD
BFFFFFFFFD
BFFFFFFFFD
BFE0000001
BFDFFFFFFE
BFD0000000
BFD0000000
BFD0000000
BFD0000000
BFDFFFFFFE
BFE0000001
BFFFFFFFFD
BFFFFFFFFD
BFFFFFFFFD
BFFFFFFFFD
BFFFFFFFFD
BFE0000001
BFDFFFFFFE
BFD0000000
BFD0000000
BFD0000000
BFD0000000
BFDFFFFFFE
BFE0000001
BFFFFFFFFD
BFFFFFFFFD
BFFFFFFFFD
BFFFFFFFFD
BFFFFFFFFD
8000000001
7FFFFFFFFE
ENDCHAR
STARTCHAR 00CC
ENCODING 204
SWIDTH 360 0
DWIDTH 18 0
BBX 16 48 -1 0
BITMAP
7FC0
8060
BFB0
CF90
67C8
13E4
09F2
067B
033D
0081
007E
0000
0000
0FFC
1002
17FA
17FA
17FA
17FA
17FA
17FA
17FA
17FA
17FA
17FA
17FA
17FA
17FA
17FA
17FA
17FA
17FA
17FA
17FA
17FA
17FA
17FA
17FA
17FA
17FA
17FA
17FA
17FA
17FA
17FA
17FA
1002
0FFC
ENDCHAR
STARTCHAR 00CD
ENCODING 205
SWIDTH 360 0
DWIDTH 18 0
BBX 16 48 2 0
BITMAP
03FE
0601
0DFD
09F3
13E6
27C8
4FB0
DE60
BCC0
8100
7E00
0000
0000
7FE0
8010
BFD0
BFD0
BFD0
BFD0
BFD0
BFD0
BFD0
BFD0
BFD0
BFD0
BFD0
BFD0
BFD0
BFD0
BFD0
BFD0
BFD0
BFD0
BFD0
BFD0
BFD0
BFD0
BFD0
BFD0
BFD0
BFD0
BFD0
BFD0
BFD0
BFD0
BFD0
8010
7FE0
ENDCHAR
STARTCHAR 00CE
ENCODING 206
SWIDTH 360 0
DWIDTH 18 0
BBX 21 48 -2 0
BITMAP
03FE00
040100
09FC80
1BFEC0
17FE40
27FF20
4F8F90
DE73D8
BCD9E8
830608
7E03F0
000000
000000
07FE00
080100
0BFD00
0BFD00
0BFD00
0BFD00
0BFD00
0BFD00
0BFD00
0BFD00
0BFD00
0BFD00
0BFD00
0BFD00
0BFD00
0BFD00
0BFD00
0BFD00
0BFD00
0BFD00
0BFD00
0BFD00
0BFD00
0BFD00
0BFD00
0BFD00
0BFD00
0BFD00
0BFD00
0BFD00
0BFD00
0BFD00
0BFD00
080100
07FE00
ENDCHAR
STARTCHAR 00CF
ENCODING 207
SWIDTH 360 0
DWIDTH 18 0
BBX 20 47 -1 0
BITMAP
7F9FE0
806010
BF6FD0
BF6FD0
BF6FD0
BF6FD0
BF6FD0
806010
7F9FE0
000000
000000
000000
0FFC00
100200
17FA00
17FA00
17FA00
17FA00
17FA00
17FA00
17FA00
17FA00
17FA00
17FA00
17FA00
17FA00
17FA00
17FA00
17FA00
17FA00
17FA00
17FA00
17FA00
17FA00
17FA00
17FA00
17FA00
17FA00
17FA00
17FA00
17FA00
17FA00
17FA00
17FA00
17FA00
100200
0FFC00
ENDCHAR
STARTCHAR 00D0
ENCODING 208
SWIDTH 1100 0
DWIDTH 55 0
BBX 52 35 1 0
BITMAP
03FFFFFFFFFF00
040000000000C0
05FFFFFFFFFE60
05FFFFFFFFFFA0
05FFFFFFFFFFD0
05FFFFFFFFFFD0
05FFFFFFFFFFD0
05FF0000007FD0
05FEFFFFFF3FD0
05FE800000BFD0
05FE800000BFD0
05FE800000BFD0
05FE800000BFD0
7DFEFFF000BFD0
83FF000800BFD0
BFFFFFE800BFD0
BFFFFFE800BFD0
BFFFFFE800BFD0
83FF000800BFD0
7DFEFFF000BFD0
05FE800000BFD0
05FE800000BFD0
05FE800000BFD0
05FE800000BFD0
05FE800000BFD0
05FE800000BFD0
05FEFFFFFF3FD0
05FF0000007FD0
05FFFFFFFFFFD0
05FFFFFFFFFFD0
05FFFFFFFFFFD0
05FFFFFFFFFFA0
05FFFFFFFFFF60
040000000000C0
03FFFFFFFFFF00
ENDCHAR
STARTCHAR 00D1
ENCODING 209
SWIDTH 1080 0
DWIDTH 54 0
BBX 49 47 2 0
BITMAP
00000007E00000
00001FCC200000
0000603BA00000
0000CF83A00000
00013FFF600000
00037FFE400000
0002F0FC800000
0002EE03000000
000219FE000000
0001F000000000
00000000000000
00000000000000
7FFFF00003FF00
80000800040080
BFFFE40005FE80
BFFFF60005FE80
BFFFF20005FE80
BFFFF90005FE80
BFFFFD8005FE80
BFFFFE8005FE80
BFFFFE4005FE80
BFE3FF6005FE80
BFD9FFA005FE80
BFD5FF9005FE80
BFD6FFD805FE80
BFD27FEC05FE80
BFD17FE405FE80
BFD1BFF205FE80
BFD09FFB05FE80
BFD05FFD05FE80
BFD06FFC85FE80
BFD037FEC5FE80
BFD013FF45FE80
BFD01BFF25FE80
BFD00DFFB5FE80
BFD004FFD5FE80
BFD002FFCDFE80
BFD0037FE3FE80
BFD0013FFFFE80
BFD000BFFFFE80
BFD000DFFFFE80
BFD0004FFFFE80
BFD00027FFFE80
BFD00037FFFE80
BFD00013FFFE80
80100008000080
7FE00007FFFF00
ENDCHAR
STARTCHAR 00D2
ENCODING 210
SWIDTH 980 0
DWIDTH 49 0
BBX 44 48 2 0
BITMAP
0003FE000000
000403000000
0005FD800000
00067C800000
00033E400000
00009F200000
00004F900000
000033D80000
000019E80000
000004080000
000003F00000
000000000000
000000000000
0FFFFFFFFF00
3000000000C0
67FFFFFFFE60
5FFFFFFFFFA0
BFFFFFFFFF90
BFFFFFFFFFD0
BFFFFFFFFFD0
BFE000007FD0
BFDFFFFFBFD0
BFD00000BFD0
BFD00000BFD0
BFD00000BFD0
BFD00000BFD0
BFD00000BFD0
BFD00000BFD0
BFD00000BFD0
BFD00000BFD0
BFD00000BFD0
BFD00000BFD0
BFD00000BFD0
BFD00000BFD0
BFD00000BFD0
BFD00000BFD0
BFD00000BFD0
BFD00000BFD0
BFD00000BFD0
BFDFFFFFBFD0
BFE000007FD0
BFFFFFFFFFD0
BFFFFFFFFFD0
BFFFFFFFFF90
5FFFFFFFFFA0
6FFFFFFFFF60
3000000000C0
0FFFFFFFFF00
ENDCHAR
STARTCHAR 00D3
ENCODING 211
SWIDTH 980 0
DWIDTH 49 0
BBX 44 48 2 0
BITMAP
000003FE0000
000006010000
00000DFD0000
000009F30000
000013E60000
000027C80000
00004FB00000
0000DE600000
0000BCC00000
000081000000
00007E000000
000000000000
000000000000
0FFFFFFFFF00
3000000000C0
67FFFFFFFE60
5FFFFFFFFFA0
BFFFFFFFFF90
BFFFFFFFFFD0
BFFFFFFFFFD0
BFE000007FD0
BFDFFFFFBFD0
BFD00000BFD0
BFD00000BFD0
BFD00000BFD0
BFD00000BFD0
BFD00000BFD0
BFD00000BFD0
BFD00000BFD0
BFD00000BFD0
BFD00000BFD0
BFD00000BFD0
BFD00000BFD0
BFD00000BFD0
BFD00000BFD0
BFD00000BFD0
BFD00000BFD0
BFD00000BFD0
BFD00000BFD0
BFDFFFFFBFD0
BFE000007FD0
BFFFFFFFFFD0
BFFFFFFFFFD0
BFFFFFFFFF90
5FFFFFFFFFA0
6FFFFFFFFF60
3000000000C0
0FFFFFFFFF00
ENDCHAR
STARTCHAR 00D4
ENCODING 212
SWIDTH 980 0
DWIDTH 49 0
BBX 44 48 2 0
BITMAP
00003FE00000
000040100000
00009FC80000
0001BFEC0000
00017FE40000
00027FF20000
0004F8F90000
000DE73D8000
000BCD9E8000
000830608000
0007E03F0000
000000000000
000000000000
0FFFFFFFFF00
3000000000C0
67FFFFFFFE60
5FFFFFFFFFA0
BFFFFFFFFF90
BFFFFFFFFFD0
BFFFFFFFFFD0
BFE000007FD0
BFDFFFFFBFD0
BFD00000BFD0
BFD00000BFD0
BFD00000BFD0
BFD00000BFD0
BFD00000BFD0
BFD00000BFD0
BFD00000BFD0
BFD00000BFD0
BFD00000BFD0
BFD00000BFD0
BFD00000BFD0
BFD00000BFD0
BFD00000BFD0
BFD00000BFD0
BFD00000BFD0
BFD00000BFD0
BFD00000BFD0
BFDFFFFFBFD0
BFE000007FD0
BFFFFFFFFFD0
BFFFFFFFFFD0
BFFFFFFFFF90
5FFFFFFFFFA0
6FFFFFFFFF60
3000000000C0
0FFFFFFFFF00
ENDCHAR
STARTCHAR 00D5
ENCODING 213
SWIDTH 980 0
DWIDTH 49 0
BBX 44 47 2 0
BITMAP
0000001F8000
00007F308000
000180EE8000
00033E0E8000
0004FFFD8000
000DFFF90000
000BC3F20000
000BB80C0000
000867F80000
0007C0000000
000000000000
000000000000
0FFFFFFFFF00
3000000000C0
67FFFFFFFE60
5FFFFFFFFFA0
BFFFFFFFFF90
BFFFFFFFFFD0
BFFFFFFFFFD0
BFE000007FD0
BFDFFFFFBFD0
BFD00000BFD0
BFD00000BFD0
BFD00000BFD0
BFD00000BFD0
BFD00000BFD0
BFD00000BFD0
BFD00000BFD0
BFD00000BFD0
BFD00000BFD0
BFD00000BFD0
BFD00000BFD0
BFD00000BFD0
BFD00000BFD0
BFD00000BFD0
BFD00000BFD0
BFD00000BFD0
BFD00000BFD0
BFDFFFFFBFD0
BFE000007FD0
BFFFFFFFFFD0
BFFFFFFFFFD0
BFFFFFFFFF90
5FFFFFFFFFA0
6FFFFFFFFF60
3000000000C0
0FFFFFFFFF00
ENDCHAR
STARTCHAR 00D6
ENCODING 214
SWIDTH 980 0
DWIDTH 49 0
BBX 44 47 2 0
BITMAP
0003FCFF0000
000403008000
0005FB7E8000
0005FB7E8000
0005FB7E8000
0005FB7E8000
0005FB7E8000
000403008000
0003FCFF0000
000000000000
000000000000
000000000000
0FFFFFFFFF00
3000000000C0
67FFFFFFFE60
5FFFFFFFFFA0
BFFFFFFFFF90
BFFFFFFFFFD0
BFFFFFFFFFD0
BFE000007FD0
BFDFFFFFBFD0
BFD00000BFD0
BFD00000BFD0
BFD00000BFD0
BFD00000BFD0
BFD00000BFD0
BFD00000BFD0
BFD00000BFD0
BFD00000BFD0
BFD00000BFD0
BFD00000BFD0
BFD00000BFD0
BFD00000BFD0
BFD00000BFD0
BFD00000BFD0
BFD00000BFD0
BFD00000BFD0
BFD00000BFD0
BFDFFFFFBFD0
BFE000007FD0
BFFFFFFFFFD0
BFFFFFFFFFD0
BFFFFFFFFF90
5FFFFFFFFFA0
6FFFFFFFFF60
3000000000C0
0FFFFFFFFF00
ENDCHAR
STARTCHAR 00D7
ENCODING 215
SWIDTH 620 0
DWIDTH 31 0
BBX 26 26 2 0
BITMAP
0F003C00
18804600
32805300
6740B980
CFA17CC0
9F937E40
BFD2FF40
9FEDFE40
6FF3FD80
13FFF200
09FFEC00
06FFD800
017FB000
017FA000
06FFD800
0DFFE400
13FFF200
6FF3FD80
9FEDFE40
BFD2FF40
9FB27E40
CFA17CC0
6740B980
32805300
18804600
0F003C00
ENDCHAR
STARTCHAR 00D8
ENCODING 216
SWIDTH 980 0
DWIDTH 49 0
BBX 54 45 -3 -5
BITMAP
000000000000E0
00000000000130
00000000000258
000000000004EC
000000000019F4
007FFFFFFFF3F4
01800000000FC8
033FFFFFFFFFB0
02FFFFFFFFFF60
05FFFFFFFFFEC0
05FFFFFFFFFE80
05FFFFFFFFFE80
05FF000003FE80
05FEFFFFFDFE80
05FE800005FE80
05FE800005FE80
05FE800005FE80
05FE800005FE80
05FE800005FE80
05FE800005FE80
05FE800005FE80
05FE800005FE80
05FE800005FE80
05FE800005FE80
05FE800005FE80
05FE800005FE80
05FE800005FE80
05FE800005FE80
05FE800005FE80
05FE800005FE80
05FE800005FE80
05FEFFFFFDFE80
05FF000003FE80
05FFFFFFFFFE80
05FFFFFFFFFE80
0DFFFFFFFFFC80
1BFFFFFFFFFD00
37FFFFFFFFFB00
4F800000000600
BF3FFFFFFFF800
BE600000000000
DC800000000000
69000000000000
32000000000000
1C000000000000
ENDCHAR
STARTCHAR 00D9
ENCODING 217
SWIDTH 1020 0
DWIDTH 51 0
BBX 46 48 2 0
BITMAP
0001FF000000
000201800000
0002FEC00000
00033E400000
00019F200000
00004F900000
000027C80000
000019EC0000
00000CF40000
000002040000
000001F80000
000000000000
000000000000
7FE000001FF8
801000002004
BFD000002FF4
BFD000002FF4
BFD000002FF4
BFD000002FF4
BFD000002FF4
BFD000002FF4
BFD000002FF4
BFD000002FF4
BFD000002FF4
BFD000002FF4
BFD000002FF4
BFD000002FF4
BFD000002FF4
BFD000002FF4
BFD000002FF4
BFD000002FF4
BFD000002FF4
BFD000002FF4
BFD000002FF4
BFD000002FF4
BFD000002FF4
BFD000002FF4
BFD000002FF4
BFD000002FF4
BFDFFFFFEFF4
BFE000001FF4
BFFFFFFFFFF4
BFFFFFFFFFF4
BFFFFFFFFFE4
5FFFFFFFFFE8
6FFFFFFFFFD8
300000000030
0FFFFFFFFFC0
ENDCHAR
STARTCHAR 00DA
ENCODING 218
SWIDTH 1020 0
DWIDTH 51 0
BBX 46 48 2 0
BITMAP
000001FF0000
000003008000
000006FE8000
000004F98000
000009F30000
000013E40000
000027D80000
00006F300000
00005E600000
000040800000
00003F000000
000000000000
000000000000
7FE000001FF8
801000002004
BFD000002FF4
BFD000002FF4
BFD000002FF4
BFD000002FF4
BFD000002FF4
BFD000002FF4
BFD000002FF4
BFD000002FF4
BFD000002FF4
BFD000002FF4
BFD000002FF4
BFD000002FF4
BFD000002FF4
BFD000002FF4
BFD000002FF4
BFD000002FF4
BFD000002FF4
BFD000002FF4
BFD000002FF4
BFD000002FF4
BFD000002FF4
BFD000002FF4
BFD000002FF4
BFD000002FF4
BFDFFFFFEFF4
BFE000001FF4
BFFFFFFFFFF4
BFFFFFFFFFF4
BFFFFFFFFFE4
5FFFFFFFFFE8
6FFFFFFFFFD8
300000000030
0FFFFFFFFFC0
ENDCHAR
STARTCHAR 00DB
ENCODING 219
SWIDTH 1020 0
DWIDTH 51 0
BBX 46 48 2 0
BITMAP
00001FF00000
000020080000
00004FE40000
0000DFF60000
0000BFF20000
00013FF90000
00027C7C8000
0006F39EC000
0005E6CF4000
000418304000
0003F01F8000
000000000000
000000000000
7FE000001FF8
801000002004
BFD000002FF4
BFD000002FF4
BFD000002FF4
BFD000002FF4
BFD000002FF4
BFD000002FF4
BFD000002FF4
BFD000002FF4
BFD000002FF4
BFD000002FF4
BFD000002FF4
BFD000002FF4
BFD000002FF4
BFD000002FF4
BFD000002FF4
BFD000002FF4
BFD000002FF4
BFD000002FF4
BFD000002FF4
BFD000002FF4
BFD000002FF4
BFD000002FF4
BFD000002FF4
BFD000002FF4
BFDFFFFFEFF4
BFE000001FF4
BFFFFFFFFFF4
BFFFFFFFFFF4
BFFFFFFFFFE4
5FFFFFFFFFE8
6FFFFFFFFFD8
300000000030
0FFFFFFFFFC0
ENDCHAR
STARTCHAR 00DC
ENCODING 220
SWIDTH 1020 0
DWIDTH 51 0
BBX 46 47 2 0
BITMAP
0001FE7F8000
000201804000
0002FDBF4000
0002FDBF4000
0002FDBF4000
0002FDBF4000
0002FDBF4000
000201804000
0001FE7F8000
000000000000
000000000000
000000000000
7FE000001FF8
801000002004
BFD000002FF4
BFD000002FF4
BFD000002FF4
BFD000002FF4
BFD000002FF4
BFD000002FF4
BFD000002FF4
BFD000002FF4
BFD000002FF4
BFD000002FF4
BFD000002FF4
BFD000002FF4
BFD000002FF4
BFD000002FF4
BFD000002FF4
BFD000002FF4
BFD000002FF4
BFD000002FF4
BFD000002FF4
BFD000002FF4
BFD000002FF4
BFD000002FF4
BFD000002FF4
BFD000002FF4
BFDFFFFFEFF4
BFE000001FF4
BFFFFFFFFFF4
BFFFFFFFFFF4
BFFFFFFFFFE4
5FFFFFFFFFE8
6FFFFFFFFFD8
300000000030
0FFFFFFFFFC0
ENDCHAR
STARTCHAR 00DD
ENCODING 221
SWIDTH 940 0
DWIDTH 47 0
BBX 47 48 -1 0
BITMAP
000000FF8000
000001804000
0000037F4000
0000027CC000
000004F98000
000009F20000
000013EC0000
000037980000
00002F300000
000020400000
00001F800000
000000000000
000000000000
7FFE00007FFC
80030000C002
9FFD8001BFF2
CFFE80017FF6
6FFE40027FEC
37FF2006FFD8
1BFFB00DFFB0
0DFFD00BFF20
06FFC813FE40
037FE437FC80
01BFF66FF900
00DFFA5FFB00
004FFD9FF600
0027FC3FEC00
0013FFFFD800
0009FFFF9000
0004FFFF2000
00027FFE4000
00013FFC8000
00009FFD8000
00005FFB0000
00006FF60000
00002FF40000
00002FF40000
00002FF40000
00002FF40000
00002FF40000
00002FF40000
00002FF40000
00002FF40000
00002FF40000
00002FF40000
00002FF40000
000020040000
00001FF80000
ENDCHAR
STARTCHAR 00DE
ENCODING 222
SWIDTH 980 0
DWIDTH 49 0
BBX 44 35 2 0
BITMAP
7FE000000000
801000000000
BFD000000000
BFD000000000
BFD000000000
BFD000000000
BFDFFFFFFF00
BFE0000000C0
BFFFFFFFFE60
BFFFFFFFFFA0
BFFFFFFFFF90
BFFFFFFFFFD0
BFFFFFFFFFD0
BFE000007FD0
BFDFFFFF3FD0
BFD00000BFD0
BFD00000BFD0
BFD00000BFD0
BFD00000BFD0
BFD00000BFD0
BFDFFFFF3FD0
BFE000007FD0
BFFFFFFFFFD0
BFFFFFFFFFD0
BFFFFFFFFF90
BFFFFFFFFFA0
BFFFFFFFFE60
BFE0000000C0
BFDFFFFFFF00
BFD000000000
BFD000000000
BFD000000000
BFD000000000
801000000000
7FE000000000
ENDCHAR
STARTCHAR 00DF
ENCODING 223
SWIDTH 1900 0
DWIDTH 95 0
BBX 90 35 2 0
BITMAP
0FFFFFFFFE001FFFFFFFFC00
300000000100600000000200
27FFFFFFFC804FFFFFFFF900
5FFFFFFFFF40BFFFFFFFFE80
DFFFFFFFFF61BFFFFFFFFEC0
BFFFFFFFFFA17FFFFFFFFF40
BFFFFFFFFFA17FFFFFFFFF40
BFE00000FFA17FC00001FF40
BFCFFFFEFFA17F9FFFFDFF40
BFD000017FA17FA00002FF40
BFD0000100617FA0000200C0
BFD00000FFC17FA00001FF80
BFD0000000017FA000000000
BFDFFFFFFE017FBFFFFFFC00
BFE0000001017FC000000200
BFFFFFFFFC817FFFFFFFF900
BFFFFFFFFF417FFFFFFFFE80
9FFFFFFFFF613FFFFFFFFEC0
5FFFFFFFFFA0BFFFFFFFFF40
27FFFFFFFFA04FFFFFFFFF40
30000000FFA060000001FF40
0FFFFFFF7FA01FFFFFFEFF40
000000017FA000000002FF40
7FE000017FA0FFC00002FF40
C01000017FA180200002FF40
BFD000017FA17FA00002FF40
BFEFFFFE7FA17FDFFFFCFF40
BFE00000FFA17FC00001FF40
BFFFFFFFFFA17FFFFFFFFF40
BFFFFFFFFFA17FFFFFFFFF40
9FFFFFFFFF613FFFFFFFFEC0
5FFFFFFFFF40BFFFFFFFFE80
27FFFFFFFC804FFFFFFFF900
300000000180600000000300
0FFFFFFFFE001FFFFFFFFC00
ENDCHAR
STARTCHAR 00E0
ENCODING 224
SWIDTH 1020 0
DWIDTH 51 0
BBX 52 48 -1 0
BITMAP
00003FE0000000
00004030000000
00005FD8000000
000067C8000000
000033E4000000
000009F2000000
000004F9000000
0000033D800000
0000019E800000
00000040800000
0000003F000000
00000000000000
00000000000000
00007FFFE00000
0000C000300000
00009FFFD00000
0001BFFFC80000
00013FFFE80000
00037FFFE40000
0002FFFFF40000
0006FF0FF20000
0005FF6FFB0000
0009FEF7F90000
000BFC97FD8000
0013FD8BFE8000
0017F909FEC000
002FFA05FF4000
006FF204FF2000
005FF402FFA000
00DFE4027F9000
00BFE8017FD000
01BFD801BFC800
017FD000BFE800
027FDFFFBFF400
02FFC0003FF400
05FFFFFFFFFA00
05FFFFFFFFFB00
0BFFFFFFFFFD00
1BFFFFFFFFFD80
17FFFFFFFFFE80
37FC000003FEC0
2FFBFFFFFDFF40
7FF6000006FF20
5FF4000002FFA0
BFE40000027FD0
BFEC0000037FD0
80080000010010
FFF0000000FFF0
ENDCHAR
STARTCHAR 00E1
ENCODING 225
SWIDTH 1020 0
DWIDTH 51 0
BBX 52 48 -1 0
BITMAP
0000003FE00000
00000060100000
000000DFD00000
0000009F300000
0000013E600000
0000027C800000
000004FB000000
00000DE6000000
00000BCC000000
00000810000000
000007E0000000
00000000000000
00000000000000
00007FFFE00000
0000C000300000
00009FFFD00000
0001BFFFC80000
00013FFFE80000
00037FFFE40000
0002FFFFF40000
0006FF0FF20000
0005FF6FFB0000
0009FEF7F90000
000BFC97FD8000
0013FD8BFE8000
0017F909FEC000
002FFA05FF4000
006FF204FF2000
005FF402FFA000
00DFE4027F9000
00BFE8017FD000
01BFD801BFC800
017FD000BFE800
027FDFFFBFF400
02FFC0003FF400
05FFFFFFFFFA00
05FFFFFFFFFB00
0BFFFFFFFFFD00
1BFFFFFFFFFD80
17FFFFFFFFFE80
37FC000003FEC0
2FFBFFFFFDFF40
7FF6000006FF20
5FF4000002FFA0
BFE40000027FD0
BFEC0000037FD0
80080000010010
FFF0000000FFF0
ENDCHAR
STARTCHAR 00E2
ENCODING 226
SWIDTH 1020 0
DWIDTH 51 0
BBX 52 48 -1 0
BITMAP
000003FE000000
00000401000000
000009FC800000
00001BFEC00000
000017FE400000
000027FF200000
00004F8F900000
0000DE73D80000
0000BCD9E80000
00008306080000
00007E03F00000
00000000000000
00000000000000
00007FFFE00000
0000C000300000
00009FFFD00000
0001BFFFC80000
00013FFFE80000
00037FFFE40000
0002FFFFF40000
0006FF0FF20000
0005FF6FFB0000
0009FEF7F90000
000BFC97FD8000
0013FD8BFE8000
0017F909FEC000
002FFA05FF4000
006FF204FF2000
005FF402FFA000
00DFE4027F9000
00BFE8017FD000
01BFD801BFC800
017FD000BFE800
027FDFFFBFF400
02FFC0003FF400
05FFFFFFFFFA00
05FFFFFFFFFB00
0BFFFFFFFFFD00
1BFFFFFFFFFD80
17FFFFFFFFFE80
37FC000003FEC0
2FFBFFFFFDFF40
7FF6000006FF20
5FF4000002FFA0
BFE40000027FD0
BFEC0000037FD0
80080000010010
FFF0000000FFF0
ENDCHAR
STARTCHAR 00E3
ENCODING 227
SWIDTH 1020 0
DWIDTH 51 0
BBX 52 47 -1 0
BITMAP
00000001F80000
000007F3080000
0000180EE80000
000033E0E80000
00004FFFD80000
0000DFFF900000
0000BC3F200000
0000BB80C00000
0000867F800000
00007C00000000
00000000000000
00000000000000
00007FFFE00000
0000C000300000
00009FFFD00000
0001BFFFC80000
00013FFFE80000
00037FFFE40000
0002FFFFF40000
0006FF0FF20000
0005FF6FFB0000
0009FEF7F90000
000BFC97FD8000
0013FD8BFE8000
0017F909FEC000
002FFA05FF4000
006FF204FF2000
005FF402FFA000
00DFE4027F9000
00BFE8017FD000
01BFD801BFC800
017FD000BFE800
027FDFFFBFF400
02FFC0003FF400
05FFFFFFFFFA00
05FFFFFFFFFB00
0BFFFFFFFFFD00
1BFFFFFFFFFD80
17FFFFFFFFFE80
37FC000003FEC0
2FFBFFFFFDFF40
7FF6000006FF20
5FF4000002FFA0
BFE40000027FD0
BFEC0000037FD0
80080000010010
FFF0000000FFF0
ENDCHAR
STARTCHAR 00E4
ENCODING 228
SWIDTH 1020 0
DWIDTH 51 0
BBX 52 47 -1 0
BITMAP
00003FCFF00000
00004030080000
00005FB7E80000
00005FB7E80000
00005FB7E80000
00005FB7E80000
00005FB7E80000
00004030080000
00003FCFF00000
00000000000000
00000000000000
00000000000000
00007FFFE00000
0000C000300000
00009FFFD00000
0001BFFFC80000
00013FFFE80000
00037FFFE40000
0002FFFFF40000
0006FF0FF20000
0005FF6FFB0000
0009FEF7F90000
000BFC97FD8000
0013FD8BFE8000
0017F909FEC000
002FFA05FF4000
006FF204FF2000
005FF402FFA000
00DFE4027F9000
00BFE8017FD000
01BFD801BFC800
017FD000BFE800
027FDFFFBFF400
02FFC0003FF400
05FFFFFFFFFA00
05FFFFFFFFFB00
0BFFFFFFFFFD00
1BFFFFFFFFFD80
17FFFFFFFFFE80
37FC000003FEC0
2FFBFFFFFDFF40
7FF6000006FF20
5FF4000002FFA0
BFE40000027FD0
BFEC0000037FD0
80080000010010
FFF0000000FFF0
ENDCHAR
STARTCHAR 00E5
ENCODING 229
SWIDTH 1020 0
DWIDTH 51 0
BBX 52 50 -1 0
BITMAP
000003FC000000
00000C03000000
000013F8800000
000027FE400000
00006E0F600000
00005DF7A00000
00005D17A00000
00005D17A00000
00005DF7A00000
00006E0F600000
000027FE400000
000013FC800000
00000C03000000
000003FC000000
00000000000000
00003FFFE00000
00004000300000
0000DFFFD00000
0000BFFFD80000
00013FFFE80000
00017FFFEC0000
0002FFFFF40000
0002FE0FF20000
0005FEEFFA0000
000DFDB7F90000
000BFD17FD0000
001BFB1BFC8000
0017FB0BFE8000
0027FA0DFF4000
002FF604FF6000
005FF406FFA000
005FEC027FB000
00BFE8037FD000
01BFD801BFC800
017FD000BFE800
037FDFFFBFE400
02FFC0003FF400
05FFFFFFFFFA00
05FFFFFFFFFA00
0BFFFFFFFFFD00
0BFFFFFFFFFD80
17FFFFFFFFFE80
37FC000003FEC0
2FF9FFFFF9FF40
6FFA000004FF20
5FF6000006FFA0
BFF4000002FFD0
BFE40000027FD0
80080000010010
FFF0000000FFF0
ENDCHAR
STARTCHAR 00E6
ENCODING 230
SWIDTH 1440 0
DWIDTH 72 0
BBX 71 35 -1 0
BITMAP
0000000FFFFFFFFFFC
000000300000000002
0000006FFFFFFFFFFA
000000DFFFFFFFFFFA
000000BFFFFFFFFFFA
0000017FFFFFFFFFFA
000002FFFFFFFFFFFA
000004FCFFC0000002
000009FB7FBFFFFFFC
00001BF77FA0000000
000037E57FA0000000
00006FED7FA0000000
00005FD97FA0000000
0000BF917FBFFFFFFC
00017FB17FC0000002
00027F617FFFFFFFFA
0006FF417FFFFFFFFA
000DFEC17FFFFFFFFA
001BFC817FFFFFFFFA
0017FD817FFFFFFFFA
002FFCFF7FC0000002
005FFE00FFBFFFFFFC
00BFFFFFFFA0000000
013FFFFFFFA0000000
037FFFFFFFA0000000
06FFFFFFFFA0000000
05FFFFFFFFBFFFFFFC
0BFE0000FFC0000002
17F9FFFF7FFFFFFFFA
2FFB00017FFFFFFFFA
4FF200017FFFFFFFFA
DFF400017FFFFFFFFA
BFEC00017FFFFFFFFA
801800010000000002
FFF00000FFFFFFFFFC
ENDCHAR
STARTCHAR 00E7
ENCODING 231
SWIDTH 960 0
DWIDTH 48 0
BBX 44 48 2 -13
BITMAP
0FFFFFFFFF00
3000000000C0
6FFFFFFFFE60
5FFFFFFFFFA0
BFFFFFFFFF90
BFFFFFFFFFD0
BFFFFFFFFFD0
BFE00000FFD0
BFCFFFFE7FD0
BFD000017FD0
BFD000018030
BFD00000FFE0
BFD000000000
BFD000000000
BFD000000000
BFD000000000
BFD000000000
BFD000000000
BFD000000000
BFD000000000
BFD000000000
BFD000000000
BFD000000000
BFD00000FFE0
BFD000010030
BFD000017FD0
BFCFFFFE7FD0
BFE00000FFD0
BFFFFFFFFFD0
BFFFFFFFFFD0
BFFFFFFFFF90
5FFFFFFFFFA0
6FFFFFFFFE60
3000000000C0
0FFFFFFFFF00
00001FFC0000
000030020000
00002FFB0000
00002FFD0000
00002FFD0000
0000303D0000
0003FFBD0000
0006003D0000
0005FFFD0000
0005FFFD0000
0005FFFB0000
000600020000
0003FFFC0000
ENDCHAR
STARTCHAR 00E8
ENCODING 232
SWIDTH 900 0
DWIDTH 45 0
BBX 40 48 2 0
BITMAP
000FF80000
00100C0000
0017F60000
0019F20000
000CF90000
00027C8000
00013E4000
0000CF6000
000067A000
0000102000
00000FC000
0000000000
0000000000
7FFFFFFFFE
8000000001
BFFFFFFFFD
BFFFFFFFFD
BFFFFFFFFD
BFFFFFFFFD
BFFFFFFFFD
BFE0000001
BFDFFFFFFE
BFD0000000
BFD0000000
BFD0000000
BFD0000000
BFDFFFFFFE
BFE0000001
BFFFFFFFFD
BFFFFFFFFD
BFFFFFFFFD
BFFFFFFFFD
BFFFFFFFFD
BFE0000001
BFDFFFFFFE
BFD0000000
BFD0000000
BFD0000000
BFD0000000
BFDFFFFFFE
BFE0000001
BFFFFFFFFD
BFFFFFFFFD
BFFFFFFFFD
BFFFFFFFFD
BFFFFFFFFD
8000000001
7FFFFFFFFE
ENDCHAR
STARTCHAR 00E9
ENCODING 233
SWIDTH 900 0
DWIDTH 45 0
BBX 40 48 2 0
BITMAP
00000FF800
0000180400
000037F400
000027CC00
00004F9800
00009F2000
00013EC000
0003798000
0002F30000
0002040000
0001F80000
0000000000
0000000000
7FFFFFFFFE
8000000001
BFFFFFFFFD
BFFFFFFFFD
BFFFFFFFFD
BFFFFFFFFD
BFFFFFFFFD
BFE0000001
BFDFFFFFFE
BFD0000000
BFD0000000
BFD0000000
BFD0000000
BFDFFFFFFE
BFE0000001
BFFFFFFFFD
BFFFFFFFFD
BFFFFFFFFD
BFFFFFFFFD
BFFFFFFFFD
BFE0000001
BFDFFFFFFE
BFD0000000
BFD0000000
BFD0000000
BFD0000000
BFDFFFFFFE
BFE0000001
BFFFFFFFFD
BFFFFFFFFD
BFFFFFFFFD
BFFFFFFFFD
BFFFFFFFFD
8000000001
7FFFFFFFFE
ENDCHAR
STARTCHAR 00EA
ENCODING 234
SWIDTH 900 0
DWIDTH 45 0
BBX 40 48 2 0
BITMAP
0000FF8000
0001004000
00027F2000
0006FFB000
0005FF9000
0009FFC800
0013E3E400
00379CF600
002F367A00
0020C18200
001F80FC00
0000000000
0000000000
7FFFFFFFFE
8000000001
BFFFFFFFFD
BFFFFFFFFD
BFFFFFFFFD
BFFFFFFFFD
BFFFFFFFFD
BFE0000001
BFDFFFFFFE
BFD0000000
BFD0000000
BFD0000000
BFD0000000
BFDFFFFFFE
BFE0000001
BFFFFFFFFD
BFFFFFFFFD
BFFFFFFFFD
BFFFFFFFFD
BFFFFFFFFD
BFE0000001
BFDFFFFFFE
BFD0000000
BFD0000000
BFD0000000
BFD0000000
BFDFFFFFFE
BFE0000001
BFFFFFFFFD
BFFFFFFFFD
BFFFFFFFFD
BFFFFFFFFD
BFFFFFFFFD
8000000001
7FFFFFFFFE
ENDCHAR
STARTCHAR 00EB
ENCODING 235
SWIDTH 900 0
DWIDTH 45 0
BBX 40 47 2 0
BITMAP
000FF3FC00
00100C0200
0017EDFA00
0017EDFA00
0017EDFA00
0017EDFA00
0017EDFA00
00100C0200
000FF3FC00
0000000000
0000000000
0000000000
7FFFFFFFFE
8000000001
BFFFFFFFFD
BFFFFFFFFD
BFFFFFFFFD
BFFFFFFFFD
BFFFFFFFFD
BFE0000001
BFDFFFFFFE
BFD0000000
BFD0000000
BFD0000000
BFD0000000
BFDFFFFFFE
BFE0000001
BFFFFFFFFD
BFFFFFFFFD
BFFFFFFFFD
BFFFFFFFFD
BFFFFFFFFD
BFE0000001
BFDFFFFFFE
BFD0000000
BFD0000000
BFD0000000
BFD0000000
BFDFFFFFFE
BFE0000001
BFFFFFFFFD
BFFFFFFFFD
BFFFFFFFFD
BFFFFFFFFD
BFFFFFFFFD
8000000001
7FFFFFFFFE
ENDCHAR
STARTCHAR 00EC
ENCODING 236
SWIDTH 360 0
DWIDTH 18 0
BBX 16 48 -1 0
BITMAP
7FC0
8060
BFB0
CF90
67C8
13E4
09F2
067B
033D
0081
007E
0000
0000
0FFC
1002
17FA
17FA
17FA
17FA
17FA
17FA
17FA
17FA
17FA
17FA
17FA
17FA
17FA
17FA
17FA
17FA
17FA
17FA
17FA
17FA
17FA
17FA
17FA
17FA
17FA
17FA
17FA
17FA
17FA
17FA
17FA
1002
0FFC
ENDCHAR
STARTCHAR 00ED
ENCODING 237
SWIDTH 360 0
DWIDTH 18 0
BBX 16 48 2 0
BITMAP
03FE
0601
0DFD
09F3
13E6
27C8
4FB0
DE60
BCC0
8100
7E00
0000
0000
7FE0
8010
BFD0
BFD0
BFD0
BFD0
BFD0
BFD0
BFD0
BFD0
BFD0
BFD0
BFD0
BFD0
BFD0
BFD0
BFD0
BFD0
BFD0
BFD0
BFD0
BFD0
BFD0
BFD0
BFD0
BFD0
BFD0
BFD0
BFD0
BFD0
BFD0
BFD0
BFD0
8010
7FE0
ENDCHAR
STARTCHAR 00EE
ENCODING 238
SWIDTH 360 0
DWIDTH 18 0
BBX 21 48 -2 0
BITMAP
03FE00
040100
09FC80
1BFEC0
17FE40
27FF20
4F8F90
DE73D8
BCD9E8
830608
7E03F0
000000
000000
07FE00
080100
0BFD00
0BFD00
0BFD00
0BFD00
0BFD00
0BFD00
0BFD00
0BFD00
0BFD00
0BFD00
0BFD00
0BFD00
0BFD00
0BFD00
0BFD00
0BFD00
0BFD00
0BFD00
0BFD00
0BFD00
0BFD00
0BFD00
0BFD00
0BFD00
0BFD00
0BFD00
0BFD00
0BFD00
0BFD00
0BFD00
0BFD00
080100
07FE00
ENDCHAR
STARTCHAR 00EF
ENCODING 239
SWIDTH 360 0
DWIDTH 18 0
BBX 20 47 -1 0
BITMAP
7F9FE0
806010
BF6FD0
BF6FD0
BF6FD0
BF6FD0
BF6FD0
806010
7F9FE0
000000
000000
000000
0FFC00
100200
17FA00
17FA00
17FA00
17FA00
17FA00
17FA00
17FA00
17FA00
17FA00
17FA00
17FA00
17FA00
17FA00
17FA00
17FA00
17FA00
17FA00
17FA00
17FA00
17FA00
17FA00
17FA00
17FA00
17FA00
17FA00
17FA00
17FA00
17FA00
17FA00
17FA00
17FA00
100200
0FFC00
ENDCHAR
STARTCHAR 00F0
ENCODING 240
SWIDTH 1100 0
DWIDTH 55 0
BBX 52 35 1 0
BITMAP
03FFFFFFFFFF00
040000000000C0
05FFFFFFFFFE60
05FFFFFFFFFFA0
05FFFFFFFFFFD0
05FFFFFFFFFFD0
05FFFFFFFFFFD0
05FF0000007FD0
05FEFFFFFF3FD0
05FE800000BFD0
05FE800000BFD0
05FE800000BFD0
05FE800000BFD0
7DFEFFF000BFD0
83FF000800BFD0
BFFFFFE800BFD0
BFFFFFE800BFD0
BFFFFFE800BFD0
83FF000800BFD0
7DFEFFF000BFD0
05FE800000BFD0
05FE800000BFD0
05FE800000BFD0
05FE800000BFD0
05FE800000BFD0
05FE800000BFD0
05FEFFFFFF3FD0
05FF0000007FD0
05FFFFFFFFFFD0
05FFFFFFFFFFD0
05FFFFFFFFFFD0
05FFFFFFFFFFA0
05FFFFFFFFFF60
040000000000C0
03FFFFFFFFFF00
ENDCHAR
STARTCHAR 00F1
ENCODING 241
SWIDTH 1080 0
DWIDTH 54 0
BBX 49 47 2 0
BITMAP
00000007E00000
00001FCC200000
0000603BA00000
0000CF83A00000
00013FFF600000
00037FFE400000
0002F0FC800000
0002EE03000000
000219FE000000
0001F000000000
00000000000000
00000000000000
7FFFF00003FF00
80000800040080
BFFFE40005FE80
BFFFF60005FE80
BFFFF20005FE80
BFFFF90005FE80
BFFFFD8005FE80
BFFFFE8005FE80
BFFFFE4005FE80
BFE3FF6005FE80
BFD9FFA005FE80
BFD5FF9005FE80
BFD6FFD805FE80
BFD27FEC05FE80
BFD17FE405FE80
BFD1BFF205FE80
BFD09FFB05FE80
BFD05FFD05FE80
BFD06FFC85FE80
BFD037FEC5FE80
BFD013FF45FE80
BFD01BFF25FE80
BFD00DFFB5FE80
BFD004FFD5FE80
BFD002FFCDFE80
BFD0037FE3FE80
BFD0013FFFFE80
BFD000BFFFFE80
BFD000DFFFFE80
BFD0004FFFFE80
BFD00027FFFE80
BFD00037FFFE80
BFD00013FFFE80
80100008000080
7FE00007FFFF00
ENDCHAR
STARTCHAR 00F2
ENCODING 242
SWIDTH 980 0
DWIDTH 49 0
BBX 44 48 2 0
BITMAP
0003FE000000
000403000000
0005FD800000
00067C800000
00033E400000
00009F200000
00004F900000
000033D80000
000019E80000
000004080000
000003F00000
000000000000
000000000000
0FFFFFFFFF00
3000000000C0
67FFFFFFFE60
5FFFFFFFFFA0
BFFFFFFFFF90
BFFFFFFFFFD0
BFFFFFFFFFD0
BFE000007FD0
BFDFFFFFBFD0
BFD00000BFD0
BFD00000BFD0
BFD00000BFD0
BFD00000BFD0
BFD00000BFD0
BFD00000BFD0
BFD00000BFD0
BFD00000BFD0
BFD00000BFD0
BFD00000BFD0
BFD00000BFD0
BFD00000BFD0
BFD00000BFD0
BFD00000BFD0
BFD00000BFD0
BFD00000BFD0
BFD00000BFD0
BFDFFFFFBFD0
BFE000007FD0
BFFFFFFFFFD0
BFFFFFFFFFD0
BFFFFFFFFF90
5FFFFFFFFFA0
6FFFFFFFFF60
3000000000C0
0FFFFFFFFF00
ENDCHAR
STARTCHAR 00F3
ENCODING 243
SWIDTH 980 0
DWIDTH 49 0
BBX 44 48 2 0
BITMAP
000003FE0000
000006010000
00000DFD0000
000009F30000
000013E60000
000027C80000
00004FB00000
0000DE600000
0000BCC00000
000081000000
00007E000000
000000000000
000000000000
0FFFFFFFFF00
3000000000C0
67FFFFFFFE60
5FFFFFFFFFA0
BFFFFFFFFF90
BFFFFFFFFFD0
BFFFFFFFFFD0
BFE000007FD0
BFDFFFFFBFD0
BFD00000BFD0
BFD00000BFD0
BFD00000BFD0
BFD00000BFD0
BFD00000BFD0
BFD00000BFD0
BFD00000BFD0
BFD00000BFD0
BFD00000BFD0
BFD00000BFD0
BFD00000BFD0
BFD00000BFD0
BFD00000BFD0
BFD00000BFD0
BFD00000BFD0
BFD00000BFD0
BFD00000BFD0
BFDFFFFFBFD0
BFE000007FD0
BFFFFFFFFFD0
BFFFFFFFFFD0
BFFFFFFFFF90
5FFFFFFFFFA0
6FFFFFFFFF60
3000000000C0
0FFFFFFFFF00
ENDCHAR
STARTCHAR 00F4
ENCODING 244
SWIDTH 980 0
DWIDTH 49 0
BBX 44 48 2 0
BITMAP
00003FE00000
000040100000
00009FC80000
0001BFEC0000
00017FE40000
00027FF20000
0004F8F90000
000DE73D8000
000BCD9E8000
000830608000
0007E03F0000
000000000000
000000000000
0FFFFFFFFF00
3000000000C0
67FFFFFFFE60
5FFFFFFFFFA0
BFFFFFFFFF90
BFFFFFFFFFD0
BFFFFFFFFFD0
BFE000007FD0
BFDFFFFFBFD0
BFD00000BFD0
BFD00000BFD0
BFD00000BFD0
BFD00000BFD0
BFD00000BFD0
BFD00000BFD0
BFD00000BFD0
BFD00000BFD0
BFD00000BFD0
BFD00000BFD0
BFD00000BFD0
BFD00000BFD0
BFD00000BFD0
BFD00000BFD0
BFD00000BFD0
BFD00000BFD0
BFD00000BFD0
BFDFFFFFBFD0
BFE000007FD0
BFFFFFFFFFD0
BFFFFFFFFFD0
BFFFFFFFFF90
5FFFFFFFFFA0
6FFFFFFFFF60
3000000000C0
0FFFFFFFFF00
ENDCHAR
STARTCHAR 00F5
ENCODING 245
SWIDTH 980 0
DWIDTH 49 0
BBX 44 47 2 0
BITMAP
0000001F8000
00007F308000
000180EE8000
00033E0E8000
0004FFFD8000
000DFFF90000
000BC3F20000
000BB80C0000
000867F80000
0007C0000000
000000000000
000000000000
0FFFFFFFFF00
3000000000C0
67FFFFFFFE60
5FFFFFFFFFA0
BFFFFFFFFF90
BFFFFFFFFFD0
BFFFFFFFFFD0
BFE000007FD0
BFDFFFFFBFD0
BFD00000BFD0
BFD00000BFD0
BFD00000BFD0
BFD00000BFD0
BFD00000BFD0
BFD00000BFD0
BFD00000BFD0
BFD00000BFD0
BFD00000BFD0
BFD00000BFD0
BFD00000BFD0
BFD00000BFD0
BFD00000BFD0
BFD00000BFD0
BFD00000BFD0
BFD00000BFD0
BFD00000BFD0
BFDFFFFFBFD0
BFE000007FD0
BFFFFFFFFFD0
BFFFFFFFFFD0
BFFFFFFFFF90
5FFFFFFFFFA0
6FFFFFFFFF60
3000000000C0
0FFFFFFFFF00
ENDCHAR
STARTCHAR 00F6
ENCODING 246
SWIDTH 980 0
DWIDTH 49 0
BBX 44 47 2 0
BITMAP
0003FCFF0000
000403008000
0005FB7E8000
0005FB7E8000
0005FB7E8000
0005FB7E8000
0005FB7E8000
000403008000
0003FCFF0000
000000000000
000000000000
000000000000
0FFFFFFFFF00
3000000000C0
67FFFFFFFE60
5FFFFFFFFFA0
BFFFFFFFFF90
BFFFFFFFFFD0
BFFFFFFFFFD0
BFE000007FD0
BFDFFFFFBFD0
BFD00000BFD0
BFD00000BFD0
BFD00000BFD0
BFD00000BFD0
BFD00000BFD0
BFD00000BFD0
BFD00000BFD0
BFD00000BFD0
BFD00000BFD0
BFD00000BFD0
BFD00000BFD0
BFD00000BFD0
BFD00000BFD0
BFD00000BFD0
BFD00000BFD0
BFD00000BFD0
BFD00000BFD0
BFDFFFFFBFD0
BFE000007FD0
BFFFFFFFFFD0
BFFFFFFFFFD0
BFFFFFFFFF90
5FFFFFFFFFA0
6FFFFFFFFF60
3000000000C0
0FFFFFFFFF00
ENDCHAR
STARTCHAR 00F7
ENCODING 247
SWIDTH 620 0
DWIDTH 31 0
BBX 27 30 1 2
BITMAP
003F8000
00404000
005F4000
005F4000
005F4000
005F4000
005F4000
00404000
003F8000
00000000
7FFFFFC0
80000020
BFFFFFA0
BFFFFFA0
BFFFFFA0
BFFFFFA0
BFFFFFA0
BFFFFFA0
80000020
7FFFFFC0
00000000
003F8000
00404000
005F4000
005F4000
005F4000
005F4000
005F4000
00404000
003F8000
ENDCHAR
STARTCHAR 00F8
ENCODING 248
SWIDTH 980 0
DWIDTH 49 0
BBX 54 45 -3 -5
BITMAP
000000000000E0
00000000000130
00000000000258
000000000004EC
000000000019F4
007FFFFFFFF3F4
01800000000FC8
033FFFFFFFFFB0
02FFFFFFFFFF60
05FFFFFFFFFEC0
05FFFFFFFFFE80
05FFFFFFFFFE80
05FF000003FE80
05FEFFFFFDFE80
05FE800005FE80
05FE800005FE80
05FE800005FE80
05FE800005FE80
05FE800005FE80
05FE800005FE80
05FE800005FE80
05FE800005FE80
05FE800005FE80
05FE800005FE80
05FE800005FE80
05FE800005FE80
05FE800005FE80
05FE800005FE80
05FE800005FE80
05FE800005FE80
05FE800005FE80
05FEFFFFFDFE80
05FF000003FE80
05FFFFFFFFFE80
05FFFFFFFFFE80
0DFFFFFFFFFC80
1BFFFFFFFFFD00
37FFFFFFFFFB00
4F800000000600
BF3FFFFFFFF800
BE600000000000
DC800000000000
69000000000000
32000000000000
1C000000000000
ENDCHAR
STARTCHAR 00F9
ENCODING 249
SWIDTH 1020 0
DWIDTH 51 0
BBX 46 48 2 0
BITMAP
0001FF000000
000201800000
0002FEC00000
00033E400000
00019F200000
00004F900000
000027C80000
000019EC0000
00000CF40000
000002040000
000001F80000
000000000000
000000000000
7FE000001FF8
801000002004
BFD000002FF4
BFD000002FF4
BFD000002FF4
BFD000002FF4
BFD000002FF4
BFD000002FF4
BFD000002FF4
BFD000002FF4
BFD000002FF4
BFD000002FF4
BFD000002FF4
BFD000002FF4
BFD000002FF4
BFD000002FF4
BFD000002FF4
BFD000002FF4
BFD000002FF4
BFD000002FF4
BFD000002FF4
BFD000002FF4
BFD000002FF4
BFD000002FF4
BFD000002FF4
BFD000002FF4
BFDFFFFFEFF4
BFE000001FF4
BFFFFFFFFFF4
BFFFFFFFFFF4
BFFFFFFFFFE4
5FFFFFFFFFE8
6FFFFFFFFFD8
300000000030
0FFFFFFFFFC0
ENDCHAR
STARTCHAR 00FA
ENCODING 250
SWIDTH 1020 0
DWIDTH 51 0
BBX 46 48 2 0
BITMAP
000001FF0000
000003008000
000006FE8000
000004F98000
000009F30000
000013E40000
000027D80000
00006F300000
00005E600000
000040800000
00003F000000
000000000000
000000000000
7FE000001FF8
801000002004
BFD000002FF4
BFD000002FF4
BFD000002FF4
BFD000002FF4
BFD000002FF4
BFD000002FF4
BFD000002FF4
BFD000002FF4
BFD000002FF4
BFD000002FF4
BFD000002FF4
BFD000002FF4
BFD000002FF4
BFD000002FF4
BFD000002FF4
BFD000002FF4
BFD000002FF4
BFD000002FF4
BFD000002FF4
BFD000002FF4
BFD000002FF4
BFD000002FF4
BFD000002FF4
BFD000002FF4
BFDFFFFFEFF4
BFE000001FF4
BFFFFFFFFFF4
BFFFFFFFFFF4
BFFFFFFFFFE4
5FFFFFFFFFE8
6FFFFFFFFFD8
300000000030
0FFFFFFFFFC0
ENDCHAR
STARTCHAR 00FB
ENCODING 251
SWIDTH 1020 0
DWIDTH 51 0
BBX 46 48 2 0
BITMAP
00001FF00000
000020080000
00004FE40000
0000DFF60000
0000BFF20000
00013FF90000
00027C7C8000
0006F39EC000
0005E6CF4000
000418304000
0003F01F8000
000000000000
000000000000
7FE000001FF8
801000002004
BFD000002FF4
BFD000002FF4
BFD000002FF4
BFD000002FF4
BFD000002FF4
BFD000002FF4
BFD000002FF4
BFD000002FF4
BFD000002FF4
BFD000002FF4
BFD000002FF4
BFD000002FF4
BFD000002FF4
BFD000002FF4
BFD000002FF4
BFD000002FF4
BFD000002FF4
BFD000002FF4
BFD000002FF4
BFD000002FF4
BFD000002FF4
BFD000002FF4
BFD000002FF4
BFD000002FF4
BFDFFFFFEFF4
BFE000001FF4
BFFFFFFFFFF4
BFFFFFFFFFF4
BFFFFFFFFFE4
5FFFFFFFFFE8
6FFFFFFFFFD8
300000000030
0FFFFFFFFFC0
ENDCHAR
STARTCHAR 00FC
ENCODING 252
SWIDTH 1020 0
DWIDTH 51 0
BBX 46 47 2 0
BITMAP
0001FE7F8000
000201804000
0002FDBF4000
0002FDBF4000
0002FDBF4000
0002FDBF4000
0002FDBF4000
000201804000
0001FE7F8000
000000000000
000000000000
000000000000
7FE000001FF8
801000002004
BFD000002FF4
BFD000002FF4
BFD000002FF4
BFD000002FF4
BFD000002FF4
BFD000002FF4
BFD000002FF4
BFD000002FF4
BFD000002FF4
BFD000002FF4
BFD000002FF4
BFD000002FF4
BFD000002FF4
BFD000002FF4
BFD000002FF4
BFD000002FF4
BFD000002FF4
BFD000002FF4
BFD000002FF4
BFD000002FF4
BFD000002FF4
BFD000002FF4
BFD000002FF4
BFD000002FF4
BFDFFFFFEFF4
BFE000001FF4
BFFFFFFFFFF4
BFFFFFFFFFF4
BFFFFFFFFFE4
5FFFFFFFFFE8
6FFFFFFFFFD8
300000000030
0FFFFFFFFFC0
ENDCHAR
STARTCHAR 00FD
ENCODING 253
SWIDTH 940 0
DWIDTH 47 0
BBX 47 48 -1 0
BITMAP
000000FF8000
000001804000
0000037F4000
0000027CC000
000004F98000
000009F20000
000013EC0000
000037980000
00002F300000
000020400000
00001F800000
000000000000
000000000000
7FFE00007FFC
80030000C002
9FFD8001BFF2
CFFE80017FF6
6FFE40027FEC
37FF2006FFD8
1BFFB00DFFB0
0DFFD00BFF20
06FFC813FE40
037FE437FC80
01BFF66FF900
00DFFA5FFB00
004FFD9FF600
0027FC3FEC00
0013FFFFD800
0009FFFF9000
0004FFFF2000
00027FFE4000
00013FFC8000
00009FFD8000
00005FFB0000
00006FF60000
00002FF40000
00002FF40000
00002FF40000
00002FF40000
00002FF40000
00002FF40000
00002FF40000
00002FF40000
00002FF40000
00002FF40000
00002FF40000
000020040000
00001FF80000
ENDCHAR
STARTCHAR 00FE
ENCODING 254
SWIDTH 980 0
DWIDTH 49 0
BBX 44 35 2 0
BITMAP
7FE000000000
801000000000
BFD000000000
BFD000000000
BFD000000000
BFD000000000
BFDFFFFFFF00
BFE0000000C0
BFFFFFFFFE60
BFFFFFFFFFA0
BFFFFFFFFF90
BFFFFFFFFFD0
BFFFFFFFFFD0
BFE000007FD0
BFDFFFFF3FD0
BFD00000BFD0
BFD00000BFD0
BFD00000BFD0
BFD00000BFD0
BFD00000BFD0
BFDFFFFF3FD0
BFE000007FD0
BFFFFFFFFFD0
BFFFFFFFFFD0
BFFFFFFFFF90
BFFFFFFFFFA0
BFFFFFFFFE60
BFE0000000C0
BFDFFFFFFF00
BFD000000000
BFD000000000
BFD000000000
BFD000000000
801000000000
7FE000000000
ENDCHAR
STARTCHAR 00FF
ENCODING 255
SWIDTH 940 0
DWIDTH 47 0
BBX 47 47 -1 0
BITMAP
0000FF3FC000
000100C02000
00017EDFA000
00017EDFA000
00017EDFA000
00017EDFA000
00017EDFA000
000100C02000
0000FF3FC000
000000000000
000000000000
000000000000
7FFE00007FFC
80030000C002
9FFD8001BFF2
CFFE80017FF6
6FFE40027FEC
37FF2006FFD8
1BFFB00DFFB0
0DFFD00BFF20
06FFC813FE40
037FE437FC80
01BFF66FF900
00DFFA5FFB00
004FFD9FF600
0027FC3FEC00
0013FFFFD800
0009FFFF9000
0004FFFF2000
00027FFE4000
00013FFC8000
00009FFD8000
00005FFB0000
00006FF60000
00002FF40000
00002FF40000
00002FF40000
00002FF40000
00002FF40000
00002FF40000
00002FF40000
00002FF40000
00002FF40000
00002FF40000
00002FF40000
000020040000
00001FF80000
ENDCHAR
STARTCHAR 0106
ENCODING 262
SWIDTH 960 0
DWIDTH 48 0
BBX 44 48 2 0
BITMAP
000003FE0000
000006010000
00000DFD0000
000009F30000
000013E60000
000027C80000
00004FB00000
0000DE600000
0000BCC00000
000081000000
00007E000000
000000000000
000000000000
0FFFFFFFFF00
3000000000C0
6FFFFFFFFE60
5FFFFFFFFFA0
BFFFFFFFFF90
BFFFFFFFFFD0
BFFFFFFFFFD0
BFE00000FFD0
BFCFFFFE7FD0
BFD000017FD0
BFD000018030
BFD00000FFE0
BFD000000000
BFD000000000
BFD000000000
BFD000000000
BFD000000000
BFD000000000
BFD000000000
BFD000000000
BFD000000000
BFD000000000
BFD000000000
BFD00000FFE0
BFD000010030
BFD000017FD0
BFCFFFFE7FD0
BFE00000FFD0
BFFFFFFFFFD0
BFFFFFFFFFD0
BFFFFFFFFF90
5FFFFFFFFFA0
6FFFFFFFFE60
3000000000C0
0FFFFFFFFF00
ENDCHAR
STARTCHAR 0107
ENCODING 263
SWIDTH 960 0
DWIDTH 48 0
BBX 44 48 2 0
BITMAP
000003FE0000
000006010000
00000DFD0000
000009F30000
000013E60000
000027C80000
00004FB00000
0000DE600000
0000BCC00000
000081000000
00007E000000
000000000000
000000000000
0FFFFFFFFF00
3000000000C0
6FFFFFFFFE60
5FFFFFFFFFA0
BFFFFFFFFF90
BFFFFFFFFFD0
BFFFFFFFFFD0
BFE00000FFD0
BFCFFFFE7FD0
BFD000017FD0
BFD000018030
BFD00000FFE0
BFD000000000
BFD000000000
BFD000000000
BFD000000000
BFD000000000
BFD000000000
BFD000000000
BFD000000000
BFD000000000
BFD000000000
BFD000000000
BFD00000FFE0
BFD000010030
BFD000017FD0
BFCFFFFE7FD0
BFE00000FFD0
BFFFFFFFFFD0
BFFFFFFFFFD0
BFFFFFFFFF90
5FFFFFFFFFA0
6FFFFFFFFE60
3000000000C0
0FFFFFFFFF00
ENDCHAR
STARTCHAR 010C
ENCODING 268
SWIDTH 960 0
DWIDTH 48 0
BBX 44 48 2 0
BITMAP
0007E03F0000
000830608000
000BCD9E8000
0009E73D8000
0004F8F90000
00027FF20000
00017FF40000
0001BFEC0000
00009FC80000
000040100000
00003FE00000
000000000000
000000000000
0FFFFFFFFF00
3000000000C0
6FFFFFFFFE60
5FFFFFFFFFA0
BFFFFFFFFF90
BFFFFFFFFFD0
BFFFFFFFFFD0
BFE00000FFD0
BFCFFFFE7FD0
BFD000017FD0
BFD000018030
BFD00000FFE0
BFD000000000
BFD000000000
BFD000000000
BFD000000000
BFD000000000
BFD000000000
BFD000000000
BFD000000000
BFD000000000
BFD000000000
BFD000000000
BFD00000FFE0
BFD000010030
BFD000017FD0
BFCFFFFE7FD0
BFE00000FFD0
BFFFFFFFFFD0
BFFFFFFFFFD0
BFFFFFFFFF90
5FFFFFFFFFA0
6FFFFFFFFE60
3000000000C0
0FFFFFFFFF00
ENDCHAR
STARTCHAR 010D
ENCODING 269
SWIDTH 960 0
DWIDTH 48 0
BBX 44 48 2 0
BITMAP
0007E03F0000
000830608000
000BCD9E8000
0009E73D8000
0004F8F90000
00027FF20000
00017FF40000
0001BFEC0000
00009FC80000
000040100000
00003FE00000
000000000000
000000000000
0FFFFFFFFF00
3000000000C0
6FFFFFFFFE60
5FFFFFFFFFA0
BFFFFFFFFF90
BFFFFFFFFFD0
BFFFFFFFFFD0
BFE00000FFD0
BFCFFFFE7FD0
BFD000017FD0
BFD000018030
BFD00000FFE0
BFD000000000
BFD000000000
BFD000000000
BFD000000000
BFD000000000
BFD000000000
BFD000000000
BFD000000000
BFD000000000
BFD000000000
BFD000000000
BFD00000FFE0
BFD000010030
BFD000017FD0
BFCFFFFE7FD0
BFE00000FFD0
BFFFFFFFFFD0
BFFFFFFFFFD0
BFFFFFFFFF90
5FFFFFFFFFA0
6FFFFFFFFE60
3000000000C0
0FFFFFFFFF00
ENDCHAR
STARTCHAR 0111
ENCODING 273
SWIDTH 1100 0
DWIDTH 55 0
BBX 52 35 1 0
BITMAP
03FFFFFFFFFF00
040000000000C0
05FFFFFFFFFE60
05FFFFFFFFFFA0
05FFFFFFFFFFD0
05FFFFFFFFFFD0
05FFFFFFFFFFD0
05FF0000007FD0
05FEFFFFFF3FD0
05FE800000BFD0
05FE800000BFD0
05FE800000BFD0
05FE800000BFD0
7DFEFFF000BFD0
83FF000800BFD0
BFFFFFE800BFD0
BFFFFFE800BFD0
BFFFFFE800BFD0
83FF000800BFD0
7DFEFFF000BFD0
05FE800000BFD0
05FE800000BFD0
05FE800000BFD0
05FE800000BFD0
05FE800000BFD0
05FE800000BFD0
05FEFFFFFF3FD0
05FF0000007FD0
05FFFFFFFFFFD0
05FFFFFFFFFFD0
05FFFFFFFFFFD0
05FFFFFFFFFFA0
05FFFFFFFFFF60
040000000000C0
03FFFFFFFFFF00
ENDCHAR
STARTCHAR 011E
ENCODING 286
SWIDTH 1040 0
DWIDTH 52 0
BBX 47 47 2 0
BITMAP
0001F007C000
0003180C6000
0002E80BA000
0002E413A000
0002F3E7A000
00027C1F6000
00017FFF4000
00009FFC8000
000047F10000
0000380E0000
00000FF80000
000000000000
0FFFFFFFFFE0
300000000018
6FFFFFFFFFCC
5FFFFFFFFFF4
BFFFFFFFFFF2
BFFFFFFFFFFA
BFFFFFFFFFFA
BFE000000FFA
BFCFFFFFEFFA
BFD0000017FA
BFD000001006
BFD000000FFC
BFD000000000
BFD000000000
BFD000000000
BFD003FFFFFC
BFD004000002
BFD005FFFFFA
BFD005FFFFFA
BFD005FFFFFA
BFD005FFFFFA
BFD005FFFFFA
BFD005FFFFFA
BFD004000FFA
BFD003FFF7FA
BFD0000017FA
BFDFFFFFF7FA
BFE000000FFA
BFFFFFFFFFFA
BFFFFFFFFFFA
BFFFFFFFFFFA
5FFFFFFFFFF4
6FFFFFFFFFEC
300000000018
0FFFFFFFFFE0
ENDCHAR
STARTCHAR 011F
ENCODING 287
SWIDTH 1040 0
DWIDTH 52 0
BBX 47 47 2 0
BITMAP
0001F007C000
0003180C6000
0002E80BA000
0002E413A000
0002F3E7A000
00027C1F6000
00017FFF4000
00009FFC8000
000047F10000
0000380E0000
00000FF80000
000000000000
0FFFFFFFFFE0
300000000018
6FFFFFFFFFCC
5FFFFFFFFFF4
BFFFFFFFFFF2
BFFFFFFFFFFA
BFFFFFFFFFFA
BFE000000FFA
BFCFFFFFEFFA
BFD0000017FA
BFD000001006
BFD000000FFC
BFD000000000
BFD000000000
BFD000000000
BFD003FFFFFC
BFD004000002
BFD005FFFFFA
BFD005FFFFFA
BFD005FFFFFA
BFD005FFFFFA
BFD005FFFFFA
BFD005FFFFFA
BFD004000FFA
BFD003FFF7FA
BFD0000017FA
BFDFFFFFF7FA
BFE000000FFA
BFFFFFFFFFFA
BFFFFFFFFFFA
BFFFFFFFFFFA
5FFFFFFFFFF4
6FFFFFFFFFEC
300000000018
0FFFFFFFFFE0
ENDCHAR
STARTCHAR 0130
ENCODING 304
SWIDTH 360 0
DWIDTH 18 0
BBX 12 47 2 0
BITMAP
1FC0
2020
2FA0
2FA0
2FA0
2FA0
2FA0
2020
1FC0
0000
0000
0000
7FE0
8010
BFD0
BFD0
BFD0
BFD0
BFD0
BFD0
BFD0
BFD0
BFD0
BFD0
BFD0
BFD0
BFD0
BFD0
BFD0
BFD0
BFD0
BFD0
BFD0
BFD0
BFD0
BFD0
BFD0
BFD0
BFD0
BFD0
BFD0
BFD0
BFD0
BFD0
BFD0
8010
7FE0
ENDCHAR
STARTCHAR 0131
ENCODING 305
SWIDTH 360 0
DWIDTH 18 0
BBX 12 35 2 0
BITMAP
7FE0
8010
BFD0
BFD0
BFD0
BFD0
BFD0
BFD0
BFD0
BFD0
BFD0
BFD0
BFD0
BFD0
BFD0
BFD0
BFD0
BFD0
BFD0
BFD0
BFD0
BFD0
BFD0
BFD0
BFD0
BFD0
BFD0
BFD0
BFD0
BFD0
BFD0
BFD0
BFD0
8010
7FE0
ENDCHAR
STARTCHAR 0141
ENCODING 321
SWIDTH 880 0
DWIDTH 44 0
BBX 42 35 1 0
BITMAP
01FF80000000
020040000000
02FF40000000
02FF40000000
02FF40700000
02FF40C80000
02FF41A80000
02FF46680000
02FF4CE80000
02FF59E80000
02FF77C80000
02FF0F900000
02FF9F200000
02FFFE400000
02FFFD800000
02FFF3000000
02FFE6000000
06FFCC000000
09FF98000000
33FF20000000
67FF40000000
4FFF40000000
BFFF40000000
BFFF40000000
B9FF40000000
B0FF40000000
AEFF7FFFFF80
9AFF80000040
62FFFFFFFF40
02FFFFFFFF40
02FFFFFFFF40
02FFFFFFFF40
02FFFFFFFF40
020000000040
01FFFFFFFF80
ENDCHAR
STARTCHAR 0142
ENCODING 322
SWIDTH 880 0
DWIDTH 44 0
BBX 42 35 1 0
BITMAP
01FF80000000
020040000000
02FF40000000
02FF40000000
02FF40700000
02FF40C80000
02FF41A80000
02FF46680000
02FF4CE80000
02FF59E80000
02FF77C80000
02FF0F900000
02FF9F200000
02FFFE400000
02FFFD800000
02FFF3000000
02FFE6000000
06FFCC000000
09FF98000000
33FF20000000
67FF40000000
4FFF40000000
BFFF40000000
BFFF40000000
B9FF40000000
B0FF40000000
AEFF7FFFFF80
9AFF80000040
62FFFFFFFF40
02FFFFFFFF40
02FFFFFFFF40
02FFFFFFFF40
02FFFFFFFF40
020000000040
01FFFFFFFF80
ENDCHAR
STARTCHAR 0152
ENCODING 338
SWIDTH 1520 0
DWIDTH 76 0
BBX 71 35 2 0
BITMAP
0FFFFFFFFFFFFFFFFC
300000000000000002
67FFFFFFFFFFFFFFFA
5FFFFFFFFFFFFFFFFA
BFFFFFFFFFFFFFFFFA
BFFFFFFFFFFFFFFFFA
BFFFFFFFFFFFFFFFFA
BFE00000FFC0000002
BFCFFFFE7FBFFFFFFC
BFD000017FA0000000
BFD000017FA0000000
BFD000017FA0000000
BFD000017FA0000000
BFD000017FBFFFFFFC
BFD000017FC0000002
BFD000017FFFFFFFFA
BFD000017FFFFFFFFA
BFD000017FFFFFFFFA
BFD000017FFFFFFFFA
BFD000017FFFFFFFFA
BFD000017FC0000002
BFD000017FBFFFFFFC
BFD000017FA0000000
BFD000017FA0000000
BFD000017FA0000000
BFD000017FA0000000
BFCFFFFE7FBFFFFFFC
BFE00000FFC0000002
BFFFFFFFFFFFFFFFFA
BFFFFFFFFFFFFFFFFA
BFFFFFFFFFFFFFFFFA
5FFFFFFFFFFFFFFFFA
6FFFFFFFFFFFFFFFFA
300000000000000002
0FFFFFFFFFFFFFFFFC
ENDCHAR
STARTCHAR 0153
ENCODING 339
SWIDTH 1520 0
DWIDTH 76 0
BBX 71 35 2 0
BITMAP
0FFFFFFFFFFFFFFFFC
300000000000000002
67FFFFFFFFFFFFFFFA
5FFFFFFFFFFFFFFFFA
BFFFFFFFFFFFFFFFFA
BFFFFFFFFFFFFFFFFA
BFFFFFFFFFFFFFFFFA
BFE00000FFC0000002
BFCFFFFE7FBFFFFFFC
BFD000017FA0000000
BFD000017FA0000000
BFD000017FA0000000
BFD000017FA0000000
BFD000017FBFFFFFFC
BFD000017FC0000002
BFD000017FFFFFFFFA
BFD000017FFFFFFFFA
BFD000017FFFFFFFFA
BFD000017FFFFFFFFA
BFD000017FFFFFFFFA
BFD000017FC0000002
BFD000017FBFFFFFFC
BFD000017FA0000000
BFD000017FA0000000
BFD000017FA0000000
BFD000017FA0000000
BFCFFFFE7FBFFFFFFC
BFE00000FFC0000002
BFFFFFFFFFFFFFFFFA
BFFFFFFFFFFFFFFFFA
BFFFFFFFFFFFFFFFFA
5FFFFFFFFFFFFFFFFA
6FFFFFFFFFFFFFFFFA
300000000000000002
0FFFFFFFFFFFFFFFFC
ENDCHAR
STARTCHAR 015E
ENCODING 350
SWIDTH 940 0
DWIDTH 47 0
BBX 43 48 2 -13
BITMAP
0FFFFFFFFE00
300000000100
27FFFFFFFC80
5FFFFFFFFF40
DFFFFFFFFF60
BFFFFFFFFFA0
BFFFFFFFFFA0
BFE00000FFA0
BFCFFFFEFFA0
BFD000017FA0
BFD000010060
BFD00000FFC0
BFD000000000
BFDFFFFFFE00
BFE000000100
BFFFFFFFFC80
BFFFFFFFFF40
9FFFFFFFFF60
5FFFFFFFFFA0
27FFFFFFFFA0
30000000FFA0
0FFFFFFF7FA0
000000017FA0
7FE000017FA0
C01000017FA0
BFD000017FA0
BFEFFFFE7FA0
BFE00000FFA0
BFFFFFFFFFA0
BFFFFFFFFFA0
9FFFFFFFFF60
5FFFFFFFFF40
27FFFFFFFC80
300000000180
0FFFFFFFFE00
00003FF80000
000060040000
00005FF60000
00005FFA0000
00005FFA0000
0000607A0000
0007FF7A0000
000C007A0000
000BFFFA0000
000BFFFA0000
000BFFF60000
000C00040000
0007FFF80000
ENDCHAR
STARTCHAR 015F
ENCODING 351
SWIDTH 940 0
DWIDTH 47 0
BBX 43 48 2 -13
BITMAP
0FFFFFFFFE00
300000000100
27FFFFFFFC80
5FFFFFFFFF40
DFFFFFFFFF60
BFFFFFFFFFA0
BFFFFFFFFFA0
BFE00000FFA0
BFCFFFFEFFA0
BFD000017FA0
BFD000010060
BFD00000FFC0
BFD000000000
BFDFFFFFFE00
BFE000000100
BFFFFFFFFC80
BFFFFFFFFF40
9FFFFFFFFF60
5FFFFFFFFFA0
27FFFFFFFFA0
30000000FFA0
0FFFFFFF7FA0
000000017FA0
7FE000017FA0
C01000017FA0
BFD000017FA0
BFEFFFFE7FA0
BFE00000FFA0
BFFFFFFFFFA0
BFFFFFFFFFA0
9FFFFFFFFF60
5FFFFFFFFF40
27FFFFFFFC80
300000000180
0FFFFFFFFE00
00003FF80000
000060040000
00005FF60000
00005FFA0000
00005FFA0000
0000607A0000
0007FF7A0000
000C007A0000
000BFFFA0000
000BFFFA0000
000BFFF60000
000C00040000
0007FFF80000
ENDCHAR
STARTCHAR 0160
ENCODING 352
SWIDTH 940 0
DWIDTH 47 0
BBX 43 48 2 0
BITMAP
000FC07E0000
001060C10000
00179B3D0000
0013CE7B0000
0009F1F20000
0004FFE40000
0002FFE80000
00037FD80000
00013F900000
000080200000
00007FC00000
000000000000
000000000000
0FFFFFFFFE00
300000000100
27FFFFFFFC80
5FFFFFFFFF40
DFFFFFFFFF60
BFFFFFFFFFA0
BFFFFFFFFFA0
BFE00000FFA0
BFCFFFFEFFA0
BFD000017FA0
BFD000010060
BFD00000FFC0
BFD000000000
BFDFFFFFFE00
BFE000000100
BFFFFFFFFC80
BFFFFFFFFF40
9FFFFFFFFF60
5FFFFFFFFFA0
27FFFFFFFFA0
30000000FFA0
0FFFFFFF7FA0
000000017FA0
7FE000017FA0
C01000017FA0
BFD000017FA0
BFEFFFFE7FA0
BFE00000FFA0
BFFFFFFFFFA0
BFFFFFFFFFA0
9FFFFFFFFF60
5FFFFFFFFF40
27FFFFFFFC80
300000000180
0FFFFFFFFE00
ENDCHAR
STARTCHAR 0161
ENCODING 353
SWIDTH 940 0
DWIDTH 47 0
BBX 43 48 2 0
BITMAP
000FC07E0000
001060C10000
00179B3D0000
0013CE7B0000
0009F1F20000
0004FFE40000
0002FFE80000
00037FD80000
00013F900000
000080200000
00007FC00000
000000000000
000000000000
0FFFFFFFFE00
300000000100
27FFFFFFFC80
5FFFFFFFFF40
DFFFFFFFFF60
BFFFFFFFFFA0
BFFFFFFFFFA0
BFE00000FFA0
BFCFFFFEFFA0
BFD000017FA0
BFD000010060
BFD00000FFC0
BFD000000000
BFDFFFFFFE00
BFE000000100
BFFFFFFFFC80
BFFFFFFFFF40
9FFFFFFFFF60
5FFFFFFFFFA0
27FFFFFFFFA0
30000000FFA0
0FFFFFFF7FA0
000000017FA0
7FE000017FA0
C01000017FA0
BFD000017FA0
BFEFFFFE7FA0
BFE00000FFA0
BFFFFFFFFFA0
BFFFFFFFFFA0
9FFFFFFFFF60
5FFFFFFFFF40
27FFFFFFFC80
300000000180
0FFFFFFFFE00
ENDCHAR
STARTCHAR 0178
ENCODING 376
SWIDTH 940 0
DWIDTH 47 0
BBX 47 47 -1 0
BITMAP
0000FF3FC000
000100C02000
00017EDFA000
00017EDFA000
00017EDFA000
00017EDFA000
00017EDFA000
000100C02000
0000FF3FC000
000000000000
000000000000
000000000000
7FFE00007FFC
80030000C002
9FFD8001BFF2
CFFE80017FF6
6FFE40027FEC
37FF2006FFD8
1BFFB00DFFB0
0DFFD00BFF20
06FFC813FE40
037FE437FC80
01BFF66FF900
00DFFA5FFB00
004FFD9FF600
0027FC3FEC00
0013FFFFD800
0009FFFF9000
0004FFFF2000
00027FFE4000
00013FFC8000
00009FFD8000
00005FFB0000
00006FF60000
00002FF40000
00002FF40000
00002FF40000
00002FF40000
00002FF40000
00002FF40000
00002FF40000
00002FF40000
00002FF40000
00002FF40000
00002FF40000
000020040000
00001FF80000
ENDCHAR
STARTCHAR 017D
ENCODING 381
SWIDTH 940 0
DWIDTH 47 0
BBX 43 48 2 0
BITMAP
000FC07E0000
001060C10000
00179B3D0000
0013CE7B0000
0009F1F20000
0004FFE40000
0002FFE80000
00037FD80000
00013F900000
000080200000
00007FC00000
000000000000
000000000000
7FFFFFFFFFC0
800000000020
BFFFFFFFFFA0
BFFFFFFFFFA0
BFFFFFFFFFA0
BFFFFFFFFFA0
BFFFFFFFFFA0
800001FFFFA0
7FFFFEFFFF60
000006FFFEC0
00000CFFF980
000033FFF300
000067FFEC00
0000CFFF9800
00019FFF3000
00067FFE6000
000CFFFD8000
0019FFF30000
0037FFE60000
00CFFFCC0000
019FFF300000
033FFE600000
04FFFCC00000
19FFFB800000
33FFE6000000
6FFFEC000000
9FFFEFFFFFC0
BFFFF0000020
BFFFFFFFFFA0
BFFFFFFFFFA0
BFFFFFFFFFA0
BFFFFFFFFFA0
BFFFFFFFFFA0
800000000020
7FFFFFFFFFC0
ENDCHAR
STARTCHAR 017E
ENCODING 382
SWIDTH 940 0
DWIDTH 47 0
BBX 43 48 2 0
BITMAP
000FC07E0000
001060C10000
00179B3D0000
0013CE7B0000
0009F1F20000
0004FFE40000
0002FFE80000
00037FD80000
00013F900000
000080200000
00007FC00000
000000000000
000000000000
7FFFFFFFFFC0
800000000020
BFFFFFFFFFA0
BFFFFFFFFFA0
BFFFFFFFFFA0
BFFFFFFFFFA0
BFFFFFFFFFA0
800001FFFFA0
7FFFFEFFFF60
000006FFFEC0
00000CFFF980
000033FFF300
000067FFEC00
0000CFFF9800
00019FFF3000
00067FFE6000
000CFFFD8000
0019FFF30000
0037FFE60000
00CFFFCC0000
019FFF300000
033FFE600000
04FFFCC00000
19FFFB800000
33FFE6000000
6FFFEC000000
9FFFEFFFFFC0
BFFFF0000020
BFFFFFFFFFA0
BFFFFFFFFFA0
BFFFFFFFFFA0
BFFFFFFFFFA0
BFFFFFFFFFA0
800000000020
7FFFFFFFFFC0
ENDCHAR
STARTCHAR 0192
ENCODING 402
SWIDTH 700 0
DWIDTH 35 0
BBX 30 35 2 0
BITMAP
0001FFF8
00030004
0004FFF4
0009FFF4
000BFFF4
0017FFF4
0017FFF4
0017FC04
0017FBF8
0037FA00
0027F200
002FF600
002FF600
002FF400
0FEFF7F8
101FF808
17FFFFE8
37FFFFE8
27FFFFE8
2FFFFFE8
2FFFFFE8
207FE010
3FBFDFF0
00BFD000
01BFD000
017F9000
7F7FB000
80FFA000
BFFFA000
BFFF2000
BFFF4000
BFFE4000
BFFC8000
80030000
7FFE0000
ENDCHAR
STARTCHAR 02C6
ENCODING 710
SWIDTH 500 0
DWIDTH 25 0
BBX 21 11 2 37
BITMAP
03FE00
040100
09FC80
1BFEC0
17FE40
27FF20
4F8F90
DE73D8
BCD9E8
830608
7E03F0
ENDCHAR
STARTCHAR 02C7
ENCODING 711
SWIDTH 500 0
DWIDTH 25 0
BBX 21 11 2 37
BITMAP
7E03F0
830608
BCD9E8
9E73D8
4F8F90
27FF20
17FF40
1BFEC0
09FC80
040100
03FE00
ENDCHAR
STARTCHAR 02D8
ENCODING 728
SWIDTH 500 0
DWIDTH 25 0
BBX 21 11 2 36
BITMAP
7C01F0
C60318
BA02E8
B904E8
BCF9E8
9F07D8
5FFFD0
27FF20
11FC40
0E0380
03FE00
ENDCHAR
STARTCHAR 02D9
ENCODING 729
SWIDTH 500 0
DWIDTH 25 0
BBX 9 9 8 38
BITMAP
7F00
8080
BE80
BE80
BE80
BE80
BE80
8080
7F00
ENDCHAR
STARTCHAR 02DA
ENCODING 730
SWIDTH 500 0
DWIDTH 25 0
BBX 18 14 3 37
BITMAP
07F800
180600
27F100
4FFC80
DC1EC0
BBEF40
BA2F40
BA2F40
BBEF40
DC1EC0
4FFC80
27F100
180600
07F800
ENDCHAR
STARTCHAR 02DB
ENCODING 731
SWIDTH 500 0
DWIDTH 25 0
BBX 16 12 6 -12
BITMAP
0FC0
3020
67A0
4F20
9F60
BEFE
BE01
BFFD
BFFD
5FFD
6001
1FFE
ENDCHAR
STARTCHAR 02DC
ENCODING 732
SWIDTH 500 0
DWIDTH 25 0
BBX 21 10 2 36
BITMAP
0001F8
07F308
180EE8
33E0E8
4FFFD8
DFFF90
BC3F20
BB80C0
867F80
7C0000
ENDCHAR
STARTCHAR 02DD
ENCODING 733
SWIDTH 500 0
DWIDTH 25 0
BBX 24 11 3 37
BITMAP
0FE0FE
181181
37D37D
2796F9
2F34F2
4E69E4
5CDBC8
B99390
BB1720
8610C0
780F80
ENDCHAR
STARTCHAR 03A9
ENCODING 937
SWIDTH 800 0
DWIDTH 40 0
BBX 39 37 1 0
BITMAP
0001FF0000
001FFFF000
007FFFFC00
00FFFFFE00
01FFFFFF00
03FFFFFF80
07FFFFFFC0
0FFFFFFFE0
0FFF83FFE0
1FFE00FFF0
1FFC007FF0
1FF8003FF0
3FF8003FF8
3FF8003FF8
3FF0001FF8
3FF0001FF8
3FF0001FF8
3FF0001FF8
3FF0001FF8
3FF0001FF8
1FF0001FF0
1FF0003FF0
1FF8003FF0
0FF8003FE0
0FFC007FE0
07FC007FC0
03FE00FF80
01FF01FF00
00FF01FE00
FFFF01FFFE
FFFF01FFFE
FFFF01FFFE
FFFF01FFFE
FFFF01FFFE
FFFF01FFFE
FFFF01FFFE
FFFF01FFFE
ENDCHAR
STARTCHAR 03C0
ENCODING 960
SWIDTH 740 0
DWIDTH 37 0
BBX 38 27 0 0
BITMAP
03FFFFFFFC
0FFFFFFFFC
1FFFFFFFFC
3FFFFFFFF8
7FFFFFFFF8
7FFFFFFFF8
7E7FC1FF80
FC7FC1FF00
FC7FC1FF00
007FC1FF00
007FC1FF00
00FFC1FF00
00FF83FF00
00FF83FE00
00FF83FE00
00FF83FE00
00FF83FE00
01FF83FE00
01FF03FE00
01FF07FE00
01FF07FC00
01FF07FC00
01FF07FC00
01FF07FC00
03FE07FC00
03FE0FFC00
03FE0FF800
ENDCHAR
STARTCHAR 2013
ENCODING 8211
SWIDTH 500 0
DWIDTH 25 0
BBX 23 9 1 14
BITMAP
7FFFFC
800002
BFFFFA
BFFFFA
BFFFFA
BFFFFA
BFFFFA
800002
7FFFFC
ENDCHAR
STARTCHAR 2014
ENCODING 8212
SWIDTH 1000 0
DWIDTH 50 0
BBX 50 9 0 14
BITMAP
7FFFFFFFFFFF80
80000000000040
BFFFFFFFFFFF40
BFFFFFFFFFFF40
BFFFFFFFFFFF40
BFFFFFFFFFFF40
BFFFFFFFFFFF40
80000000000040
7FFFFFFFFFFF80
ENDCHAR
STARTCHAR 2018
ENCODING 8216
SWIDTH 340 0
DWIDTH 17 0
BBX 13 14 2 21
BITMAP
7FF0
8008
BFE8
BFE8
BFE8
BFE8
BFE8
BFE8
9E08
CCF0
6D80
3580
1980
0F00
ENDCHAR
STARTCHAR 2019
ENCODING 8217
SWIDTH 340 0
DWIDTH 17 0
BBX 13 14 2 21
BITMAP
7FF0
8008
BFE8
BFE8
BFE8
BFE8
BFE8
BFE8
83C8
79D8
0DB0
0D60
0CC0
0700
ENDCHAR
STARTCHAR 201A
ENCODING 8218
SWIDTH 340 0
DWIDTH 17 0
BBX 13 14 2 -4
BITMAP
7FF0
8008
BFE8
BFE8
BFE8
BFE8
BFE8
BFE8
83C8
7DD0
05B0
0560
04C0
0780
ENDCHAR
STARTCHAR 201C
ENCODING 8220
SWIDTH 640 0
DWIDTH 32 0
BBX 28 14 2 21
BITMAP
7FF0FFE0
80090010
BFE97FD0
BFE97FD0
BFE97FD0
BFE97FD0
BFE97FD0
BFE97FD0
9E093C10
CCF199E0
6D80DB00
35806B00
19803300
0F000E00
ENDCHAR
STARTCHAR 201D
ENCODING 8221
SWIDTH 640 0
DWIDTH 32 0
BBX 28 14 2 21
BITMAP
7FF0FFE0
80090010
BFE97FD0
BFE97FD0
BFE97FD0
BFE97FD0
BFE97FD0
BFE97FD0
83C90790
79D8F3B0
0DB01B60
0D601AC0
0CC01980
07000E00
ENDCHAR
STARTCHAR 201E
ENCODING 8222
SWIDTH 640 0
DWIDTH 32 0
BBX 28 14 2 -4
BITMAP
7FF0FFE0
80090010
BFE97FD0
BFE97FD0
BFE97FD0
BFE97FD0
BFE97FD0
BFE97FD0
83C90790
7DD0FBA0
05B00B60
05600AC0
04C00980
07800F00
ENDCHAR
STARTCHAR 2020
ENCODING 8224
SWIDTH 500 0
DWIDTH 25 0
BBX 22 35 2 0
BITMAP
01FE00
020100
02FD00
02FD00
02FD00
02FD00
02FD00
02FD00
02FD00
7EFDF8
81FE04
BFFFF4
BFFFF4
BFFFF4
BFFFF4
BFFFF4
BFFFF4
81FE04
7EFDF8
02FD00
02FD00
02FD00
02FD00
02FD00
02FD00
02FD00
02FD00
02FD00
02FD00
02FD00
02FD00
02FD00
02FD00
020100
01FE00
ENDCHAR
STARTCHAR 2021
ENCODING 8225
SWIDTH 500 0
DWIDTH 25 0
BBX 22 35 2 0
BITMAP
01FE00
020100
02FD00
02FD00
02FD00
02FD00
7EFDF8
81FE04
BFFFF4
BFFFF4
BFFFF4
BFFFF4
BFFFF4
BFFFF4
81FE04
7EFDF8
02FD00
02FD00
02FD00
7EFDF8
81FE04
BFFFF4
BFFFF4
BFFFF4
BFFFF4
BFFFF4
BFFFF4
81FE04
7EFDF8
02FD00
02FD00
02FD00
02FD00
020100
01FE00
ENDCHAR
STARTCHAR 2022
ENCODING 8226
SWIDTH 600 0
DWIDTH 30 0
BBX 14 14 8 11
BITMAP
0FC0
1FE0
3FF0
7FF8
FFFC
FFFC
FFFC
FFFC
FFFC
FFFC
7FF8
3FF0
1FE0
0FC0
ENDCHAR
STARTCHAR 2026
ENCODING 8230
SWIDTH 1000 0
DWIDTH 50 0
BBX 46 10 2 0
BITMAP
7FF07FF03FF8
800880084004
BFE8BFE85FF4
BFE8BFE85FF4
BFE8BFE85FF4
BFE8BFE85FF4
BFE8BFE85FF4
BFE8BFE85FF4
800880084004
7FF07FF03FF8
ENDCHAR
STARTCHAR 2030
ENCODING 8240
SWIDTH 2040 0
DWIDTH 102 0
BBX 97 35 2 0
BITMAP
0FFFFF000FF000000000000000
18000180181800000000000000
67FFFE4017D800000000000000
5FFFFFA037D000000000000000
9FFFFF902FD000000000000000
BFFFFFD02FA000000000000000
BFC03FD06FA000000000000000
BF9F9FD05FA000000000000000
BFA05FD05F4000000000000000
BFA05FD0DF4000000000000000
BFA05FD0BE4000000000000000
BFA05FD0BE8000000000000000
BFA05FD1BE87FFFF003FFFF800
BFA05FD17D9C000180E0000C00
BFA05FD17D33FFFE419FFFF200
BF9F9FD37D2FFFFFA17FFFFD00
BFC03FD2FB4FFFFF927FFFFC80
BFFFFFD2FA5FFFFFD2FFFFFE80
BFFFFF96FA5FE03FD2FF01FE80
5FFFFFA5F65FCF9FD2FE7CFE80
67FFFE65F45FD05FD2FE82FE80
1800018DF45FD05FD2FE82FE80
0FFFFF0BEC5FD05FD2FE82FE80
0000000BE85FD05FD2FE82FE80
0000001BE85FD05FD2FE82FE80
00000017D85FD05FD2FE82FE80
00000017D05FD05FD2FE82FE80
00000037D05FDFDFD2FEFEFE80
0000002FB05FE03FD2FF01FE80
0000002FA05FFFFFD2FFFFFE80
0000005FA05FFFFF92FFFFFC80
0000005F602FFFFFA17FFFFD00
000000DF4033FFFE619FFFF300
000000C0C018000180C0000C00
0000007F8007FFFF003FFFF800
ENDCHAR
STARTCHAR 2039
ENCODING 8249
SWIDTH 360 0
DWIDTH 18 0
BBX 14 20 1 3
BITMAP
03F8
0604
0DF4
09E4
13E8
37D8
2F90
4FA0
DF60
BE40
BE40
9F60
4FA0
2F90
37D8
13E8
09E4
0DF4
0604
03F8
ENDCHAR
STARTCHAR 203A
ENCODING 8250
SWIDTH 360 0
DWIDTH 18 0
BBX 14 20 2 3
BITMAP
7F00
8180
BEC0
9E40
5F20
6FB0
27D0
17C8
1BEC
09F4
09F4
1BEC
17C8
27D0
6FB0
5F20
9E40
BEC0
8180
7F00
ENDCHAR
STARTCHAR 20A3
ENCODING 8355
SWIDTH 1860 0
DWIDTH 93 0
BBX 88 35 2 0
BITMAP
7FFFFFFFFC07FFFFFFFFF0
800000000208000000000C
BFFFFFFFFA0BFFFFFFFFE6
BFFFFFFFFA0BFFFFFFFFFA
BFFFFFFFFA0BFFFFFFFFF9
BFFFFFFFFA0BFFFFFFFFFD
BFFFFFFFFA0BFFFFFFFFFD
BFE00000020BFE000007FD
BFDFFFFFFC0BFDFFFFF3FD
BFD00000000BFD00000BFD
BFD00000000BFD00000BFD
BFD00000000BFD00000BFD
BFD00000000BFD00000BFB
BFDFFFFFFC0BFDFFFFFBF2
BFE00000020BFE000007EC
BFFFFFFFFA0BFFFFFFFFD8
BFFFFFFFFA0BFFFFFFFFD0
BFFFFFFFFA0BFFFFFFFFC8
BFFFFFFFFA0BFFFFFFFFE4
BFFFFFFFFA0BFFFFFFFFF2
BFE00000020BFE000007FA
BFDFFFFFFC0BFDFFFFFBFD
BFD00000000BFD00000BFD
BFD00000000BFD00000BFD
BFD00000000BFD00000BFD
BFD00000000BFD00000BFD
BFD00000000BFD00000BFD
BFD00000000BFD00000BFD
BFD00000000BFD00000BFD
BFD00000000BFD00000BFD
BFD00000000BFD00000BFD
BFD00000000BFD00000BFD
BFD00000000BFD00000BFD
8010000000080100000801
7FE000000007FE000007FE
ENDCHAR
STARTCHAR 20AC
ENCODING 8364
SWIDTH 980 0
DWIDTH 49 0
BBX 48 35 -1 0
BITMAP
00FFFFFFFFE0
010000000018
027FFFFFFFE4
05FFFFFFFFF2
05FFFFFFFFFA
0BFFFFFFFFFD
0BFFFFFFFFFD
0BFE00003FFD
0BFDFFFF9FFD
0BFD00006001
0BFD00003FFE
0BFD00000000
7BFDFFE00000
C3FC00200000
BFFFFFE00000
BFFFFFE00000
83FC00200000
7BFDFFE00000
0BFD00000000
FFFFFFE00000
BFFFFFA00000
83FC00600000
FBFDFFC00000
0BFD00000000
0BFD00003FFE
0BFD00004001
0BFDFFFFDFFD
0BFE00003FFD
0BFFFFFFFFFD
0BFFFFFFFFFD
05FFFFFFFFFA
05FFFFFFFFF2
027FFFFFFFE4
010000000018
00FFFFFFFFE0
ENDCHAR
STARTCHAR 2122
ENCODING 8482
SWIDTH 840 0
DWIDTH 42 0
BBX 31 13 4 23
BITMAP
FFF1F87E
FFF1F87E
FFF1F87E
0F01FCFE
0F01FCFE
0F01ECDE
0F01EFDE
0F01EFDE
0F01E79E
0F01E79E
0F01E79E
0F01E39E
0F01E31E
ENDCHAR
STARTCHAR 2202
ENCODING 8706
SWIDTH 540 0
DWIDTH 27 0
BBX 24 33 1 0
BITMAP
003F00
00FFE0
01FFF0
03FC78
03F87C
03F07C
01E03E
00003E
00003E
00003F
00003F
00007F
01F87F
07FE7F
1FC77F
1F837F
3F81FF
7F01FF
7F01FF
FF01FF
FE01FE
FE01FE
FE01FE
FE01FC
FE01FC
FE03FC
FE03F8
7E03F0
7E07F0
3F07E0
1F8F80
0FFF00
01FC00
ENDCHAR
STARTCHAR 2206
ENCODING 8710
SWIDTH 720 0
DWIDTH 36 0
BBX 36 36 0 0
BITMAP
0007FE0000
0007FE0000
000FFF0000
000FFF0000
001FFF0000
001FFF8000
001FFF8000
003FFFC000
003FFFC000
003FFFC000
007FFFE000
007FFFE000
007FFFE000
00FFFFF000
00FFFFF000
01FFFFF000
01FFFFF800
01FF9FF800
03FF9FFC00
03FF9FFC00
03FF0FFC00
07FF0FFE00
07FF0FFE00
07FE07FE00
0FFE07FF00
0FFC07FF00
1FFC03FF80
1FFC03FF80
1FFFFFFF80
3FFFFFFFC0
3FFFFFFFC0
3FFFFFFFC0
7FFFFFFFE0
7FFFFFFFE0
7FFFFFFFE0
FFFFFFFFF0
ENDCHAR
STARTCHAR 220F
ENCODING 8719
SWIDTH 800 0
DWIDTH 40 0
BBX 33 46 4 -10
BITMAP
FFFFFFFF80
FFFFFFFF80
FFFFFFFF80
FFFFFFFF80
FFFFFFFF80
FFFFFFFF80
FFFFFFFF80
FFFFFFFF80
FFC001FF80
FFC001FF80
FFC001FF80
FFC001FF80
FFC001FF80
FFC001FF80
FFC001FF80
FFC001FF80
FFC001FF80
FFC001FF80
FFC001FF80
FFC001FF80
FFC001FF80
FFC001FF80
FFC001FF80
FFC001FF80
FFC001FF80
FFC001FF80
FFC001FF80
FFC001FF80
FFC001FF80
FFC001FF80
FFC001FF80
FFC001FF80
FFC001FF80
FFC001FF80
FFC001FF80
FFC001FF80
FFC001FF80
FFC001FF80
FFC001FF80
FFC001FF80
FFC001FF80
FFC001FF80
FFC001FF80
FFC001FF80
FFC001FF80
FFC001FF80
ENDCHAR
STARTCHAR 2211
ENCODING 8721
SWIDTH 740 0
DWIDTH 37 0
BBX 35 46 1 -10
BITMAP
7FFFFFFF80
7FFFFFFF80
7FFFFFFF80
7FFFFFFF80
7FFFFFFF80
7FFFFFFF80
7FFFFFFF80
3FFFFFFF80
1FFF800000
0FFFC00000
07FFE00000
03FFF00000
01FFF80000
00FFFC0000
00FFFE0000
007FFF0000
003FFF0000
001FFF8000
000FFFC000
0007FFE000
0003FFF000
0001FFF800
0000FFFC00
0000FFFC00
0001FFF800
0003FFF000
0003FFE000
0007FFC000
000FFF8000
001FFF0000
003FFE0000
007FFE0000
00FFFC0000
01FFF80000
03FFF00000
07FFE00000
0FFFC00000
0FFF800000
1FFFFFFFE0
3FFFFFFFE0
7FFFFFFFE0
FFFFFFFFE0
FFFFFFFFE0
FFFFFFFFE0
FFFFFFFFE0
FFFFFFFFE0
ENDCHAR
STARTCHAR 2212
ENCODING 8722
SWIDTH 620 0
DWIDTH 31 0
BBX 28 10 1 13
BITMAP
7FFFFFE0
80000010
BFFFFFD0
BFFFFFD0
BFFFFFD0
BFFFFFD0
BFFFFFD0
BFFFFFD0
80000010
7FFFFFE0
ENDCHAR
STARTCHAR 2215
ENCODING 8725
SWIDTH 160 0
DWIDTH 8 0
BBX 21 35 -6 0
BITMAP
000FF8
001808
0017E8
0037E8
0027D0
002FD0
006FB0
005FA0
005FA0
00DF40
00BF40
00BF40
013E80
017E80
037D80
02FD00
02FD00
06FB00
05FA00
05FA00
0DF400
0BF400
0BEC00
17E800
17E800
17D800
2FD000
2F9000
6FB000
5FA000
5F2000
FF6000
BF4000
80C000
FF8000
ENDCHAR
STARTCHAR 2219
ENCODING 8729
SWIDTH 340 0
DWIDTH 17 0
BBX 12 10 2 13
BITMAP
7FE0
8010
BFD0
BFD0
BFD0
BFD0
BFD0
BFD0
8010
7FE0
ENDCHAR
STARTCHAR 221A
ENCODING 8730
SWIDTH 660 0
DWIDTH 33 0
BBX 32 43 2 -1
BITMAP
0000001F
0000003F
0000003F
0000003F
00000078
00000078
000000F8
000000F0
000000F0
000001F0
000001E0
000001E0
000003C0
000003C0
000007C0
00000780
00000780
00000F80
03800F00
1FC01F00
FFC01E00
FFC01E00
77E03E00
47E03C00
07E03C00
03F07C00
03F07800
03F0F800
01F8F000
01F8F000
01FDF000
00FDE000
00FDE000
007FE000
007FC000
007FC000
003F8000
003F8000
003F8000
001F0000
001F0000
000F0000
000E0000
ENDCHAR
STARTCHAR 221E
ENCODING 8734
SWIDTH 840 0
DWIDTH 42 0
BBX 32 21 5 5
BITMAP
07C007C0
1FF00FF0
3FF81FF8
3FFC3FFC
7FFE7FFE
7FFEFFFE
FC3FFE3E
F00FF80F
E007F80F
E007F007
E007E007
E00FE007
E00FE007
F01FF00F
787FF81F
7FFF7FFE
7FFE7FFE
3FFC3FFC
1FFC1FFC
0FF00FF8
03E003E0
ENDCHAR
STARTCHAR 222B
ENCODING 8747
SWIDTH 620 0
DWIDTH 31 0
BBX 29 47 1 -9
BITMAP
00000FC0
00003FF0
0000FFF0
0000FFF8
0001F3F8
0003F3F8
0003E3F0
0007E1E0
0007E000
0007E000
000FE000
000FE000
000FE000
000FC000
000FC000
000FC000
001FC000
001FC000
001FC000
001FC000
001FC000
001FC000
001FC000
001FC000
001FC000
001FC000
001FC000
001FC000
001FC000
001FC000
001FC000
001F8000
001F8000
001F8000
003F8000
003F8000
003F8000
003F0000
003F0000
3C3F0000
7E3E0000
FE7E0000
FE7C0000
FFF80000
7FF00000
7FE00000
1F800000
ENDCHAR
STARTCHAR 2248
ENCODING 8776
SWIDTH 840 0
DWIDTH 42 0
BBX 33 21 4 5
BITMAP
03FC000180
1FFF800380
7FFFF81F80
FFFFFFFF80
FFFFFFFF80
FFFFFFFF80
FC07FFFF00
F0007FFC00
C0000FE000
8000000000
0000000000
03FC000180
1FFF800380
7FFFF81F80
FFFFFFFF80
FFFFFFFF80
FFFFFFFF80
FC07FFFF00
F0007FFC00
C0000FE000
8000000000
ENDCHAR
STARTCHAR 2260
ENCODING 8800
SWIDTH 840 0
DWIDTH 42 0
BBX 29 30 6 0
BITMAP
00000300
00000780
00000FC0
00000FC0
00001FC0
00003F80
00007F00
FFFFFFF8
FFFFFFF8
FFFFFFF8
FFFFFFF8
FFFFFFF8
FFFFFFF8
0007E000
000FE000
001FC000
003F8000
007F0000
FFFFFFF8
FFFFFFF8
FFFFFFF8
FFFFFFF8
FFFFFFF8
FFFFFFF8
07F00000
0FE00000
1FC00000
3F800000
1F000000
0E000000
ENDCHAR
STARTCHAR 2264
ENCODING 8804
SWIDTH 840 0
DWIDTH 42 0
BBX 29 31 6 0
BITMAP
00000018
000000F8
000007F8
00003FF8
0001FFF8
001FFFF8
00FFFFC0
07FFFE00
3FFFF000
FFFF8000
FFF80000
FFC00000
FFF80000
FFFF8000
3FFFF000
07FFFE00
00FFFFE0
001FFFF8
0001FFF8
00003FF8
000007F8
000000F8
00000018
00000000
00000000
FFFFFFF8
FFFFFFF8
FFFFFFF8
FFFFFFF8
FFFFFFF8
FFFFFFF8
ENDCHAR
STARTCHAR 2265
ENCODING 8805
SWIDTH 840 0
DWIDTH 42 0
BBX 29 31 6 0
BITMAP
C0000000
F8000000
FF000000
FFE00000
FFFC0000
FFFFC000
1FFFF800
03FFFF00
007FFFE0
000FFFF8
0000FFF8
00001FF8
0000FFF8
000FFFF8
007FFFE0
03FFFF00
3FFFF800
FFFFC000
FFFC0000
FFE00000
FF000000
F8000000
C0000000
00000000
00000000
FFFFFFF8
FFFFFFF8
FFFFFFF8
FFFFFFF8
FFFFFFF8
FFFFFFF8
ENDCHAR
STARTCHAR 25CA
ENCODING 9674
SWIDTH 500 0
DWIDTH 25 0
BBX 24 50 0 -11
BITMAP
001800
001800
003C00
003C00
007E00
007E00
006600
00E700
00C300
01C380
018180
0381C0
0381C0
0700E0
0700E0
0E0070
0E0070
1C0038
1C0038
380018
38001C
30000C
70000E
600006
E00007
E00007
70000E
70000E
30000C
38001C
180018
1C0038
1C0038
0E0070
0E0070
0700E0
0700E0
0381C0
0381C0
018380
01C380
00C300
00E700
006600
007E00
007E00
003C00
003C00
001800
001800
ENDCHAR
STARTCHAR F000
ENCODING 61440
SWIDTH 800 0
DWIDTH 40 0
BBX 34 40 3 0
BITMAP
0000018000
0000078000
00000F8000
00001F8000
00003F8000
00003F0000
00003E0000
00007C0000
0000780000
01FC03F000
07FF9FFC00
0FFFFFFF00
1FFFFFFF80
3FFFFFFF00
7FFFFFFE00
7FFFFFFC00
7FFFFFF800
FFFFFFF800
FFFFFFF000
FFFFFFF000
FFFFFFF000
FFFFFFF000
FFFFFFF000
FFFFFFF000
FFFFFFF800
FFFFFFF800
7FFFFFFC00
7FFFFFFE00
7FFFFFFF00
3FFFFFFFC0
3FFFFFFF80
1FFFFFFF80
1FFFFFFF00
0FFFFFFF00
0FFFFFFE00
07FFFFFE00
03FFFFFC00
01FFFFF800
00FFBFF000
007C03C000
ENDCHAR
STARTCHAR F001
ENCODING 61441
SWIDTH 1240 0
DWIDTH 62 0
BBX 56 35 2 0
BITMAP
7FFFFFFFFC07FE
80000000020801
BFFFFFFFFA0BFD
BFFFFFFFFA0BFD
BFFFFFFFFA0BFD
BFFFFFFFFA0BFD
BFFFFFFFFA0BFD
BFE00000020BFD
BFDFFFFFFC0BFD
BFD00000000BFD
BFD00000000BFD
BFD00000000BFD
BFD00000000BFD
BFDFFFFFFC0BFD
BFE00000020BFD
BFFFFFFFFA0BFD
BFFFFFFFFA0BFD
BFFFFFFFFA0BFD
BFFFFFFFFA0BFD
BFFFFFFFFA0BFD
BFE00000020BFD
BFDFFFFFFC0BFD
BFD00000000BFD
BFD00000000BFD
BFD00000000BFD
BFD00000000BFD
BFD00000000BFD
BFD00000000BFD
BFD00000000BFD
BFD00000000BFD
BFD00000000BFD
BFD00000000BFD
BFD00000000BFD
80100000000801
7FE000000007FE
ENDCHAR
STARTCHAR F002
ENCODING 61442
SWIDTH 1660 0
DWIDTH 83 0
BBX 80 35 2 0
BITMAP
7FFFFFFFFC07FE000000
80000000020801000000
BFFFFFFFFA0BFD000000
BFFFFFFFFA0BFD000000
BFFFFFFFFA0BFD000000
BFFFFFFFFA0BFD000000
BFFFFFFFFA0BFD000000
BFE00000020BFD000000
BFDFFFFFFC0BFD000000
BFD00000000BFD000000
BFD00000000BFD000000
BFD00000000BFD000000
BFD00000000BFD000000
BFDFFFFFFC0BFD000000
BFE00000020BFD000000
BFFFFFFFFA0BFD000000
BFFFFFFFFA0BFD000000
BFFFFFFFFA0BFD000000
BFFFFFFFFA0BFD000000
BFFFFFFFFA0BFD000000
BFE00000020BFD000000
BFDFFFFFFC0BFD000000
BFD00000000BFD000000
BFD00000000BFD000000
BFD00000000BFD000000
BFD00000000BFD000000
BFD00000000BFDFFFFFE
BFD00000000BFE000001
BFD00000000BFFFFFFFD
BFD00000000BFFFFFFFD
BFD00000000BFFFFFFFD
BFD00000000BFFFFFFFD
BFD00000000BFFFFFFFD
80100000000800000001
7FE000000007FFFFFFFE
ENDCHAR
ENDFONT
